<svg width="66" height="10" fill="none" xmlns="http://www.w3.org/2000/svg"><path d="m5 0 1.123 3.455h3.632L6.816 5.59 7.94 9.045 5 6.91 2.061 9.045 3.184 5.59.244 3.455h3.633L5 0ZM19 0l1.123 3.455h3.632L20.816 5.59l1.123 3.455L19 6.91l-2.939 2.135 1.123-3.455-2.94-2.135h3.633L19 0ZM33 0l1.123 3.455h3.632L34.816 5.59l1.123 3.455L33 6.91l-2.939 2.135 1.123-3.455-2.94-2.135h3.633L33 0ZM47 0l1.123 3.455h3.632L48.816 5.59l1.123 3.455L47 6.91l-2.939 2.135 1.123-3.455-2.94-2.135h3.633L47 0ZM61 0l1.123 3.455h3.632L62.816 5.59l1.123 3.455L61 6.91l-2.939 2.135 1.123-3.455-2.94-2.135h3.633L61 0Z" fill="#FF7400"/></svg>