<svg aria-hidden="true" style="width:0;height:0;position:absolute;overflow:hidden" xmlns="http://www.w3.org/2000/svg"><defs><symbol id="icon-menu" viewBox="0 0 32 32"><path d="M6.4 11.733V9.6h19.2v2.133H6.4zm0 5.334h19.2v-2.133H6.4v2.133zm0 5.333h19.2v-2.133H6.4V22.4z"/></symbol><symbol id="icon-close" viewBox="0 0 32 32"><path d="M23.733 10.304 22.229 8.8l-5.963 5.963L10.303 8.8l-1.504 1.504 5.963 5.963-5.963 5.963 1.504 1.504 5.963-5.963 5.963 5.963 1.504-1.504-5.963-5.963 5.963-5.963z"/></symbol><symbol id="icon-envelope" viewBox="0 0 32 32"><path fill="#ff7400" style="fill:var(--color1,#ff7400)" d="M26.667 5.333H5.334A2.667 2.667 0 0 0 2.667 8v16a2.667 2.667 0 0 0 2.667 2.667h21.333A2.667 2.667 0 0 0 29.334 24V8a2.667 2.667 0 0 0-2.667-2.667z"/><path fill="#272727" style="fill:var(--color2,#272727)" d="M15.902 17.333a2.821 2.821 0 0 1-1.837-.693L5.793 9.553c-.268-.271-.431-.639-.457-1.033s.086-.783.315-1.092c.229-.309.558-.514.921-.576s.735.026 1.042.244l8.287 7.087 8.287-7.087c.148-.15.323-.265.515-.338a1.39 1.39 0 0 1 1.179.09c.18.102.338.242.465.413s.219.368.271.579.062.431.031.646c-.032.215-.105.421-.215.605s-.254.341-.423.461l-8.272 7.087a2.821 2.821 0 0 1-1.837.693z"/></symbol><symbol id="icon-phone" viewBox="0 0 32 32"><path fill="#ff7400" style="fill:var(--color1,#ff7400)" d="M26.92 17.334a13.336 13.336 0 0 1-4.573-1.213 2.664 2.664 0 0 0-3.414 1.106l-.68 1.133a16.93 16.93 0 0 1-4.587-4.6l1.147-.653a2.667 2.667 0 0 0 1.106-3.414 13.334 13.334 0 0 1-1.253-4.613A2.67 2.67 0 0 0 12 2.667H6.84A4.009 4.009 0 0 0 3.813 4a4.182 4.182 0 0 0-.947 3.24 25.335 25.335 0 0 0 21.907 21.893c.186.013.374.013.56 0A4 4 0 0 0 28 28.16a4.005 4.005 0 0 0 1.333-3.013V20a2.668 2.668 0 0 0-2.413-2.666z"/></symbol><symbol id="icon-person" viewBox="0 0 32 32"><path d="M16 16c2.947 0 5.333-2.387 5.333-5.333S18.946 5.334 16 5.334c-2.947 0-5.333 2.387-5.333 5.333S13.054 16 16 16zm0 2.667c-3.56 0-10.667 1.787-10.667 5.333v1.333c0 .733.6 1.333 1.333 1.333h18.667c.733 0 1.333-.6 1.333-1.333V24c0-3.547-7.107-5.333-10.667-5.333z"/></symbol><symbol id="icon-mark" viewBox="0 0 32 32"><path d="M0 0h32v32H0V0z"/></symbol><symbol id="icon-instagram" viewBox="0 0 32 32"><path fill="none" stroke="#ff7400" style="stroke:var(--color1,#ff7400)" stroke-linejoin="round" stroke-linecap="round" stroke-width="3.333" d="M22.667 2.667H9.334a6.667 6.667 0 0 0-6.667 6.667v13.333a6.667 6.667 0 0 0 6.667 6.667h13.333a6.667 6.667 0 0 0 6.667-6.667V9.334a6.667 6.667 0 0 0-6.667-6.667z"/><path fill="none" stroke="#ff7400" style="stroke:var(--color1,#ff7400)" stroke-linejoin="round" stroke-linecap="round" stroke-width="3.333" d="M21.334 15.16a5.338 5.338 0 0 1-6.123 6.049 5.334 5.334 0 0 1-3.916-7.663c.504-1.002 1.312-1.82 2.308-2.336s2.129-.706 3.239-.542a5.334 5.334 0 0 1 4.493 4.493zM23.333 8.667h.013"/></symbol><symbol id="icon-scroll_up" viewBox="0 0 32 32"><path d="M4.5 19.6 15.7 8.367c.133-.133.278-.228.433-.283s.322-.084.5-.084.345.028.5.084.3.149.433.283L28.799 19.6c.311.311.467.7.467 1.167s-.167.867-.5 1.2c-.333.333-.722.5-1.167.5s-.833-.167-1.167-.5l-9.8-9.8-9.8 9.8c-.311.311-.694.467-1.149.467s-.851-.167-1.184-.5-.5-.722-.5-1.167c0-.444.167-.833.5-1.167z"/></symbol><symbol id="icon-chevrons-right" viewBox="0 0 32 32"><path fill="none" stroke="#f87a11" style="stroke:var(--color1,#f87a11)" stroke-linejoin="round" stroke-linecap="round" stroke-width="3.56" d="M17.333 22.667 24 16l-6.667-6.667M8 22.667 14.667 16 8 9.333"/></symbol><symbol id="icon-cd" viewBox="0 0 32 32"><path fill="#272727" style="fill:var(--color1,#272727)" d="M16 29.333c7.364 0 13.333-5.97 13.333-13.333S23.363 2.667 16 2.667C8.636 2.667 2.667 8.637 2.667 16S8.637 29.333 16 29.333z"/><path fill="#f87a11" style="fill:var(--color2,#f87a11)" d="M16 20a4 4 0 1 0 0-8 4 4 0 0 0 0 8z"/></symbol><symbol id="icon-check_blue" viewBox="0 0 32 32"><path fill="#272727" style="fill:var(--color2,#272727)" d="M29.333 12.321v14.347a2.67 2.67 0 0 1-2.667 2.667H5.333a2.668 2.668 0 0 1-2.667-2.667V5.335a2.668 2.668 0 0 1 2.667-2.667h19.68a1.329 1.329 0 0 1 1.229.828 1.338 1.338 0 0 1-.295 1.452L16 14.895l-3.453-3.44a2.665 2.665 0 0 0-4.094.404c-.293.436-.451.95-.453 1.476a2.67 2.67 0 0 0 .787 1.893l5.333 5.333a2.666 2.666 0 0 0 3.774 0l9.173-9.173a1.33 1.33 0 0 1 2.036.202c.147.216.227.47.231.731z"/><path fill="#6fc7b8" style="fill:var(--color4,#6fc7b8)" d="M16 20a1.337 1.337 0 0 1-.947-.387L9.72 14.28a1.34 1.34 0 0 1 1.894-1.894l4.387 4.4L27.054 5.719a1.34 1.34 0 0 1 1.894 1.894l-12 12a1.327 1.327 0 0 1-.947.387z"/></symbol><symbol id="icon-check_pink" viewBox="0 0 32 32"><path fill="#272727" style="fill:var(--color2,#272727)" d="M29.333 12.321v14.347a2.67 2.67 0 0 1-2.667 2.667H5.333a2.668 2.668 0 0 1-2.667-2.667V5.335a2.668 2.668 0 0 1 2.667-2.667h19.68a1.329 1.329 0 0 1 1.229.828 1.338 1.338 0 0 1-.295 1.452L16 14.895l-3.453-3.44a2.665 2.665 0 0 0-4.094.404c-.293.436-.451.95-.453 1.476a2.67 2.67 0 0 0 .787 1.893l5.333 5.333a2.666 2.666 0 0 0 3.774 0l9.173-9.173a1.33 1.33 0 0 1 2.036.202c.147.216.227.47.231.731z"/><path fill="#f18ea3" style="fill:var(--color3,#f18ea3)" d="M16 20a1.337 1.337 0 0 1-.947-.387L9.72 14.28a1.34 1.34 0 0 1 1.894-1.894l4.387 4.4L27.054 5.719a1.34 1.34 0 0 1 1.894 1.894l-12 12a1.327 1.327 0 0 1-.947.387z"/></symbol><symbol id="icon-check_orange" viewBox="0 0 32 32"><path fill="#272727" style="fill:var(--color1,#272727)" d="M29.333 12.32v14.347a2.668 2.668 0 0 1-2.667 2.667H5.333a2.668 2.668 0 0 1-2.667-2.667V5.334a2.668 2.668 0 0 1 2.667-2.667h19.68a1.329 1.329 0 0 1 1.229.828 1.338 1.338 0 0 1-.295 1.452L16 14.894l-3.453-3.44a2.665 2.665 0 0 0-4.094.404c-.293.436-.451.95-.453 1.476a2.67 2.67 0 0 0 .787 1.893l5.333 5.333a2.666 2.666 0 0 0 3.774 0l9.173-9.173a1.33 1.33 0 0 1 2.036.202c.147.216.227.47.231.731z"/><path fill="#f87a11" style="fill:var(--color2,#f87a11)" d="M16 20a1.337 1.337 0 0 1-.947-.387L9.72 14.28a1.34 1.34 0 0 1 1.894-1.894l4.387 4.4L27.054 5.719a1.34 1.34 0 0 1 1.894 1.894l-12 12a1.327 1.327 0 0 1-.947.387z"/></symbol><symbol id="icon-infinite" viewBox="0 0 32 32"><path fill="#f87a11" style="fill:var(--color2,#f87a11)" d="M22.307 8.973a6.224 6.224 0 0 1-1.853 4.453l-2.573 2.573 2.573 2.573a6.303 6.303 0 0 1 1.853 4.46 6.297 6.297 0 0 1-1.853 4.46 6.307 6.307 0 1 1-8.906-8.92l2.573-2.573-2.573-2.573a6.307 6.307 0 0 1 8.907-8.92 6.272 6.272 0 0 1 1.853 4.467zM16 14.12l2.573-2.573a3.734 3.734 0 0 0 0-5.146 3.642 3.642 0 0 0-5.146 0 3.734 3.734 0 0 0 0 5.146L16 14.12zm-3.64 8.907a3.64 3.64 0 0 0 6.214 2.573 3.734 3.734 0 0 0 0-5.146l-2.573-2.573-2.573 2.573a3.655 3.655 0 0 0-1.067 2.573z"/></symbol><symbol id="icon-apple-fruit" viewBox="0 0 32 32"><path fill="#f87a11" style="fill:var(--color2,#f87a11)" d="M16 10.667a1.335 1.335 0 0 1-1.334-1.334 8.09 8.09 0 0 1 3.266-6.44 1.335 1.335 0 0 1 1.948 1.379 1.336 1.336 0 0 1-.481.834 5.506 5.506 0 0 0-2.067 4.227 1.335 1.335 0 0 1-1.334 1.334z"/><path fill="#f87a11" style="fill:var(--color2,#f87a11)" d="M23.84 7.2a7.243 7.243 0 0 0-6.093.294A5.336 5.336 0 0 1 16 8.001a5.44 5.44 0 0 1-1.76-.507 7.237 7.237 0 0 0-6.093-.293c-3.213 1.333-4.573 4.533-4 9.453.64 6.147 3.547 12.68 7.6 12.68a5.068 5.068 0 0 0 2.667-.813 2.829 2.829 0 0 1 1.587-.52 2.786 2.786 0 0 1 1.547.507c.796.512 1.72.794 2.667.813 4 0 6.96-6.533 7.627-12.68s-1.787-8.507-4-9.44z"/></symbol><symbol id="icon-battery-charge" viewBox="0 0 32 32"><path fill="#fff" style="fill:var(--color3,#fff)" d="M18.667 2.667h-5.333c-.736 0-1.333.597-1.333 1.333v2.667c0 .736.597 1.333 1.333 1.333h5.333C19.403 8 20 7.403 20 6.667V4c0-.736-.597-1.333-1.333-1.333z"/><path fill="#f87a11" style="fill:var(--color2,#f87a11)" d="M21.333 5.333H10.666A2.667 2.667 0 0 0 7.999 8v18.667a2.667 2.667 0 0 0 2.667 2.667h10.667A2.667 2.667 0 0 0 24 26.667V8a2.667 2.667 0 0 0-2.667-2.667z"/><path fill="#fff" style="fill:var(--color3,#fff)" d="M16 21.333a1.23 1.23 0 0 1-.6-.147 1.333 1.333 0 0 1-.587-1.786l.36-.733h-.507a1.33 1.33 0 0 1-1.328-1.278c-.01-.227.039-.453.141-.656l1.333-2.667a1.333 1.333 0 0 1 2.373 1.2l-.36.733h.507a1.33 1.33 0 0 1 1.328 1.278c.01.227-.039.453-.141.656L17.186 20.6a1.327 1.327 0 0 1-1.187.733z"/></symbol><symbol id="icon-bike-2" viewBox="0 0 32 32"><path fill="#fff" style="fill:var(--color3,#fff)" d="M24 26.667a5.333 5.333 0 1 1-.004-10.662 5.333 5.333 0 0 1 .006 10.66zm0-8a2.664 2.664 0 0 0-2.615 3.187 2.664 2.664 0 0 0 2.095 2.095 2.666 2.666 0 1 0 .52-5.282zm-16 8a5.333 5.333 0 1 1-.002-10.662 5.333 5.333 0 0 1 .003 10.66zm0-8a2.67 2.67 0 0 0-2.464 1.646 2.665 2.665 0 0 0 3.484 3.484 2.667 2.667 0 0 0-1.021-5.13z"/><path fill="#f87a11" style="fill:var(--color2,#f87a11)" d="M22.84 7.52a2.668 2.668 0 0 0-2.666-2.186h-1.507a1.335 1.335 0 0 0-.943 2.277c.25.25.589.391.943.391h1.56l.4 2.24-4.52 4.8-.72-3.56a2.665 2.665 0 0 0-2.614-2.147h-2.107a1.335 1.335 0 0 0-.943 2.277c.251.25.589.391.943.391h2.107l1.08 5.413-2.427 2.587H7.999a1.334 1.334 0 0 0 0 2.668h4a1.333 1.333 0 0 0 .973-.413l8.253-8.747 1.467 8a1.336 1.336 0 0 0 1.307 1.16.743.743 0 0 0 .24 0 1.336 1.336 0 0 0 1.067-1.546l-2.467-13.6z"/></symbol><symbol id="icon-caution" viewBox="0 0 33 32"><path fill="#f87a11" style="fill:var(--color2,#f87a11)" d="M21.306 3.547a2.674 2.674 0 0 0-1.974-.88h-5.333a2.669 2.669 0 0 0-2.545 1.831 2.678 2.678 0 0 0-.121 1.103L12.4 16.268a2.662 2.662 0 0 0 2.666 2.4h3.2a2.668 2.668 0 0 0 2.666-2.4l1.067-10.667c.035-.372-.009-.747-.129-1.1s-.312-.678-.565-.953zM16.667 29.333a4 4 0 1 0 0-8 4 4 0 0 0 0 8z"/></symbol><symbol id="icon-user" viewBox="0 0 33 32"><path fill="#f87a11" style="fill:var(--color2,#f87a11)" d="M28.667 26.667A2.67 2.67 0 0 1 26 29.334H7.333a2.668 2.668 0 0 1-2.667-2.667 8 8 0 0 1 8-8h8a8 8 0 0 1 8 8zM16.667 16a6.665 6.665 0 0 0 6.538-7.968c-.257-1.293-.892-2.481-1.825-3.413s-2.12-1.567-3.413-1.825a6.674 6.674 0 0 0-6.844 2.834 6.662 6.662 0 0 0 .829 8.418 6.67 6.67 0 0 0 4.714 1.953z"/></symbol><symbol id="icon-untitled" viewBox="0 0 44 32"><path fill="#f87a11" style="fill:var(--color1,#f87a11)" opacity=".1" d="m.256 31.659 2.901-14.677C5.12 7.339 12.714 1.281 22.528.342l-1.877 9.301c-4.181.256-7.168 2.901-7.936 6.656h7.253l-3.072 15.36H.256zm21.077 0 2.901-14.677C26.197 7.339 33.791 1.281 43.605.342l-1.877 9.301c-4.181.256-7.168 2.901-7.936 6.656h7.253l-3.072 15.36h-16.64z"/></symbol><symbol id="icon-fizkylt" viewBox="0 0 95 32"><path fill="#ff7500" style="fill:var(--color4,#ff7500)" d="M22.951 24h-3.653l2.767-15.925h3.642L22.951 24zm2.875 0 .394-2.188 7.848-10.773h-6.12l.525-2.964h10.412l-.372 2.144-7.803 10.828h5.933L36.129 24H25.826zM41.39 8.075h3.653l-1.131 6.51 1.109-1.61 3.106-4.9h4.692l-5.536 7.112L49.822 24h-4.189l-1.222-5.563-1.435 1.533-.7 4.029h-3.631L41.39 8.074zm17.575-6.518L57.301.075l-3.806.011-.416.522-.26-.533h-4.692l-2.109 1.16-.976-1.16h-3.653l-1.465 1.234L38.885.075H28.473l-1.622 1.36-1.145-1.36h-3.642L20.56 1.341 19.495.075h-8.837L2.774 6.716.029 22.641 7.913 32h3.631l4.541-3.82L19.298 32h3.653l1.688-1.421L25.827 32H36.13l1.472-1.238L38.645 32h3.631l1.641-1.38L45.634 32h4.189l2.329-3.095L54.755 32h3.73l3.553-3 2.527 3h8.859l1.921-1.616L76.704 32h3.664l7.882-6.63 1.611-9.276 4.382-3.688.514-2.964L86.875.075H75.828l-2.854 2.393L70.961.075h-3.653l-1.321 1.113L65.34.075h-4.058l-2.319 1.482zm-5.447 6.529 3.806-.011.777 6.88 3.183-6.88h4.058l-5.917 10.391L58.484 24h-3.73l1.028-5.906-2.264-10.008zM64.564 24l2.745-15.925h3.653l-2.254 12.972h5.229L73.423 24h-8.859zm12.14 0 2.252-12.961h-3.652l.525-2.964h11.047l-.514 2.964H82.62L80.368 24h-3.664zM18.981 11.039h-5.185l-.637 3.664h4.75l-.514 2.953h-4.749L11.544 24H7.913l2.745-15.925h8.837l-.514 2.964z"/></symbol><symbol id="icon-Group_43" viewBox="0 0 211 32"><path fill="#ff7400" style="fill:var(--color6,#ff7400)" d="m16 0 3.592 11.056h11.625l-9.405 6.833 3.592 11.056-9.405-6.833-9.405 6.833 3.592-11.056-9.405-6.833h11.625L15.998 0zM60.8 0l3.592 11.056h11.625l-9.404 6.833 3.592 11.056-9.404-6.833-9.404 6.833 3.592-11.056-9.404-6.833H57.21L60.802 0zM105.6 0l3.592 11.056h11.625l-9.404 6.833 3.592 11.056-9.404-6.833-9.404 6.833 3.592-11.056-9.404-6.833h11.625L105.602 0zM150.4 0l3.592 11.056h11.625l-9.404 6.833 3.592 11.056-9.404-6.833-9.404 6.833 3.592-11.056-9.404-6.833h11.625L150.402 0zM195.2 0l3.592 11.056h11.625l-9.404 6.833 3.592 11.056-9.404-6.833-9.404 6.833 3.592-11.056-9.404-6.833h11.625L195.202 0z"/></symbol><symbol id="icon-Vector" viewBox="0 0 42 32"><path fill="#fff" stroke="#fff" stroke-width=".64" d="m6.263 15.205-.22-.21-3.307 3.132 11.651 11.114L38.864 5.89l-3.285-3.134-21.192 20.197-8.124-7.75z"/></symbol><symbol id="icon-slider-min-down" viewBox="0 0 32 32"><path fill="#fff" d="M16 32C7.163 32 0 24.837 0 16S7.163 0 16 0s16 7.163 16 16-7.163 16-16 16z" style="fill:var(--color1,#fff)"/><path fill="#4f2ee8" d="M15.453 17.081a.768.768 0 0 0 1.094 0l3.537-3.544a.768.768 0 0 1 1.094 0 .768.768 0 0 1 0 1.088l-3.543 3.543c-.419.418-.997.677-1.636.677s-1.217-.259-1.636-.677l-3.544-3.543a.773.773 0 0 1 1.097-1.089l3.535 3.543z" style="fill:var(--color2,#4f2ee8)"/></symbol><symbol id="icon-slider-min-up" viewBox="0 0 32 32"><path fill="#fff" d="M16 0c8.837 0 16 7.163 16 16s-7.163 16-16 16S0 24.837 0 16 7.163 0 16 0z" style="fill:var(--color1,#fff)"/><path fill="#4f2ee8" d="M16.547 14.919a.768.768 0 0 0-1.094 0l-3.537 3.544a.768.768 0 0 1-1.094 0 .77.77 0 0 1 0-1.088l3.543-3.543c.419-.418.997-.677 1.636-.677s1.217.259 1.636.677l3.544 3.543a.773.773 0 0 1-1.097 1.089l-3.535-3.543z" style="fill:var(--color2,#4f2ee8)"/></symbol><symbol id="icon-barbell" viewBox="0 0 32 32"><path fill="none" stroke="#ff7400" style="stroke:var(--color1,#ff7400)" stroke-linejoin="round" stroke-linecap="round" stroke-width="2" d="M11 7H8a1 1 0 0 0-1 1v16a1 1 0 0 0 1 1h3a1 1 0 0 0 1-1V8a1 1 0 0 0-1-1zM24 7h-3a1 1 0 0 0-1 1v16a1 1 0 0 0 1 1h3a1 1 0 0 0 1-1V8a1 1 0 0 0-1-1zM25 10h3a.997.997 0 0 1 1 1v10a.997.997 0 0 1-1 1h-3M7 22H4a.997.997 0 0 1-1-1V11a.997.997 0 0 1 1-1h3M12 16h8M29 16h2M1 16h2"/></symbol><symbol id="icon-cross-circle" viewBox="0 0 32 32"><path fill="#272727" style="fill:var(--color1,#272727)" d="M16 29.333c7.364 0 13.333-5.97 13.333-13.333S23.363 2.667 16 2.667C8.636 2.667 2.667 8.637 2.667 16S8.637 29.333 16 29.333z"/><path fill="#ff1414" style="fill:var(--color2,#ff1414)" d="m17.88 16 3.067-3.053a1.34 1.34 0 0 0-1.894-1.894L16 14.12l-3.053-3.067a1.34 1.34 0 0 0-1.894 1.894L14.12 16l-3.067 3.053a1.334 1.334 0 0 0 0 1.894 1.334 1.334 0 0 0 1.894 0L16 17.88l3.053 3.067a1.334 1.334 0 0 0 1.894 0 1.334 1.334 0 0 0 0-1.894L17.88 16z"/></symbol><symbol id="icon-check-mark" viewBox="0 0 32 32"><path fill="#272727" style="fill:var(--color1,#272727)" d="M16 29.333c7.364 0 13.333-5.97 13.333-13.333S23.363 2.667 16 2.667C8.636 2.667 2.667 8.637 2.667 16S8.637 29.333 16 29.333z"/><path fill="#2cdf28" style="fill:var(--color3,#2cdf28)" d="M14.667 20.667a1.345 1.345 0 0 1-.947-.387l-4-4a1.339 1.339 0 1 1 1.894-1.893l3.053 3.067 5.72-5.733a1.34 1.34 0 0 1 1.894 1.894l-6.667 6.667a1.337 1.337 0 0 1-.947.387z"/></symbol><symbol id="icon--5-" viewBox="0 0 38 32"><path d="M10.832 7.189c.399-.983 1.053-2.769 1.964-5.359l3.622 1.274-2.633 7.486-1.66-.584 2.088-5.937-.453-.159c-.708 2.012-1.243 3.449-1.606 4.309-.25.583-.534.95-.851 1.103-.311.155-.754.13-1.331-.073l-.312-.11.563-1.6.081.028c.134.047.238.042.311-.015.075-.064.148-.185.219-.364zm7.665-3.353L17.18 7.579l2.122-3.46 1.55.545-2.633 7.486-1.55-.545 1.309-3.723-2.114 3.44-1.55-.545 2.633-7.486 1.55.545zm.244 8.498 2.633-7.486 1.66.584-2.078 5.907.433.152 2.078-5.907 1.66.584-2.078 5.907.433.152L25.56 6.32l1.67.588-2.633 7.486-5.856-2.06zM27.777 7.1l3.109 1.094-.545 1.55-1.469-.517-.45 1.278 1.177.414-.559 1.59-1.177-.414-.524 1.489 1.529.538-.556 1.58-3.17-1.115 2.633-7.486zM4.753 15.708l-1.57-.552 1.469-4.176 3.502 1.232-.52 1.479-1.972-.694-.446 1.268c.487-.334.915-.436 1.284-.306l.101.035c.315.111.518.306.608.587s.082.571-.024.873l-.995 2.828a1.624 1.624 0 0 1-.849.968c-.401.198-.864.205-1.387.021l-.402-.142c-.577-.203-.948-.488-1.113-.855a1.561 1.561 0 0 1-.021-1.161l.499-1.419 1.6.563-.393 1.117c-.066.188-.025.308.122.36.134.047.234-.023.3-.211l.743-2.113c.066-.188.035-.304-.092-.349s-.224.027-.29.214l-.152.433zm2.748 4.687 2.633-7.486 1.982.697-.819 3.647 1.664-3.35 1.872.658-2.633 7.486-1.429-.503 1.437-4.085-2.071 3.862-.594-.209.803-4.308-1.437 4.085-1.409-.495zm9.526-5.063-2.633 7.486-1.66-.584 2.633-7.486 1.66.584zm.76 6.69.527-1.499 1.64.577-.545 1.55c-.184.523-.483.912-.896 1.166-.404.25-.912.267-1.522.053l-.292-.103c-1.228-.432-1.609-1.308-1.144-2.63l1.338-3.804c.205-.584.514-.999.925-1.246.418-.245.945-.255 1.583-.031l.302.106c1.181.415 1.566 1.207 1.155 2.374l-.432 1.228-1.64-.577.407-1.157c.087-.248.04-.404-.141-.468-.101-.035-.18-.033-.24.006s-.113.13-.163.271l-1.405 3.995c-.092.262-.044.425.144.492.174.061.308-.039.4-.3zm3.896 4.548.372-1.057-2.787-.98 2.633-7.486 1.66.584-2.088 5.937.513.181 2.088-5.937 1.66.584-2.078 5.907.372.131-.927 2.636-1.419-.499zm5.557-4.66.795.28c.429.151.714.402.855.753.147.353.133.778-.041 1.275l-.623 1.771c-.179.51-.427.849-.742 1.017-.309.17-.708.169-1.198-.003l-2.395-.842 2.633-7.486 1.65.58-.934 2.657zm-1.239 3.521.201.071c.114.04.202.037.263-.009s.115-.133.159-.261l.495-1.409c.045-.127.057-.225.035-.293-.019-.075-.086-.132-.2-.172l-.201-.071-.754 2.143zm4.238 1.141-.57 1.62-1.419-.499.57-1.62 1.419.499zm.474-6.426 1.771.623-2.468 5.441-.795-.28 1.492-5.785z"/></symbol><symbol id="icon-Group-298" viewBox="0 0 32 32"><path d="M32 16c0 8.836-7.164 16-16 16S0 24.836 0 16C0 7.163 7.163 0 16 0s16 7.163 16 16z"/><path style="fill:var(--color1,#000)" d="M27.426 21.271a.456.456 0 0 1-.506.097c-.279-.114-.376-.441-.236-.784.125-.305.383-.462.656-.403l-.055.133c-.19-.026-.372.097-.465.325-.107.261-.038.507.167.59.178.073.385-.012.47-.219l.111-.272.121.05-.111.273c-.079.192-.011.372.149.438.186.076.39-.041.487-.278.085-.207.042-.408-.1-.515l.054-.133c.221.135.288.419.172.703-.127.311-.405.467-.657.364a.394.394 0 0 1-.257-.368zM25.698 22.863l-.125.209-.536-.32.074-.124.409.244.81-1.358-.41-.244.074-.124.536.32-.098.165c.043.208.197.337 1.213 1.052l-.59.989-1.357-.81zm1.753-.128c-.855-.596-1.044-.761-1.107-.955l-.567.951 1.237.738.438-.734zM24.75 23.783c.336-.39.882-.435 1.272-.099s.424.881.087 1.271c-.339.393-.882.435-1.27.1a.88.88 0 0 1-.09-1.273zm.114.098a.726.726 0 0 0 .08 1.054c.325.28.771.247 1.052-.078s.247-.771-.08-1.054a.728.728 0 0 0-1.052.078zM24.171 26.823c-.403.322-.927.249-1.247-.151s-.276-.93.126-1.252a.855.855 0 0 1 .825-.151l-.609-.762.122-.098 1.462 1.83-.087.07-.263-.273a.863.863 0 0 1-.329.787zm-1.019-1.291c-.33.264-.375.705-.105 1.043.268.335.708.389 1.038.125.327-.262.375-.709.11-1.042s-.715-.387-1.043-.126zM21.399 26.508c.454-.243.98-.089 1.223.365s.079.974-.375 1.218c-.457.245-.98.089-1.221-.362a.88.88 0 0 1 .374-1.22zm.072.133a.725.725 0 0 0-.304 1.012c.202.378.631.508 1.009.305s.508-.631.304-1.012a.726.726 0 0 0-1.009-.305zM19.412 28.357a.438.438 0 0 1-.446-.302c-.088-.261.06-.523.339-.617l.779-.262.551 1.638-.773.26c-.264.089-.498-.015-.578-.255a.413.413 0 0 1 .128-.462zm.012.387c.059.176.221.246.409.183l.61-.205-.193-.573-.61.205c-.188.063-.274.22-.216.39zm-.052-1.17c-.206.07-.309.256-.247.441.063.188.258.275.467.204l.613-.206-.217-.646-.616.207zM16.976 28.827l-.007-.06 1.546-.26c-.089-.394-.43-.625-.818-.56a.694.694 0 0 0-.567.485l-.164.028c.1-.367.349-.604.706-.664.489-.082.923.237 1.007.742.084.502-.221.946-.71 1.028-.499.084-.91-.243-.994-.738zm.969.593c.379-.064.618-.38.594-.768l-1.395.235c.101.386.431.596.8.534zM14.055 29.635l.009-.144.69.045.104-1.581.153.01-.104 1.581.687.045-.009.144-1.53-.101zM13.51 29.891l-.037.218-.196-.033.037-.218.196.033zm.328-2.057-.29 1.703-.155-.026.29-1.703.155.026zM12.311 29.278l-1.023-.299.484-1.659.15.044-.445 1.524.746.218.391-.953c.161-.39.347-.492.666-.399l.028.008-.041.141-.034-.01c-.224-.066-.355.016-.47.296l-.454 1.088zM10.556 26.751c.461.229.64.747.411 1.208s-.748.628-1.21.399c-.464-.231-.64-.747-.412-1.205a.88.88 0 0 1 1.211-.402zm-.067.135a.725.725 0 0 0-1.001.339c-.191.384-.048.809.336.999s.809.048 1.001-.339a.727.727 0 0 0-.336-1zM7.833 25.918c.092.074.106.2.032.292s-.198.103-.29.029c-.092-.074-.105-.196-.031-.288s.198-.108.29-.034zM5.782 24.116a.456.456 0 0 1 .149-.494c.23-.194.565-.129.804.155.212.252.232.554.052.768l-.093-.11c.111-.156.087-.374-.072-.563-.181-.215-.431-.269-.6-.127-.147.124-.168.347-.024.518l.19.225-.1.084-.19-.225c-.134-.159-.325-.182-.457-.071-.154.13-.145.365.02.56.144.171.342.227.503.15l.093.11c-.223.133-.505.061-.703-.174-.216-.257-.225-.576-.017-.751a.394.394 0 0 1 .445-.057zM5.176 21.843l-.127-.207.532-.326.075.123-.407.249.826 1.348.407-.249.075.123-.532.326-.1-.164c-.205-.058-.391.018-1.495.586l-.602-.982 1.348-.826zm-.701 1.612c.925-.481 1.159-.572 1.36-.537l-.579-.944-1.228.753.447.729zM4.795 20.559c.189.479-.025.983-.505 1.172s-.977-.035-1.166-.514a.879.879 0 0 1 .502-1.171.88.88 0 0 1 1.169.513zm-.14.055a.725.725 0 0 0-.97-.419c-.399.157-.578.568-.42.967s.568.578.97.419a.726.726 0 0 0 .42-.967zM2.374 18.65c-.099-.506.209-.937.711-1.035s.952.186 1.051.692a.858.858 0 0 1-.248.801l.958-.187.03.154-2.299.448-.021-.11.364-.107a.864.864 0 0 1-.545-.657zm1.616-.305c-.081-.415-.451-.659-.875-.576-.421.082-.672.447-.592.862.08.411.455.661.873.58s.674-.454.594-.866zM3.937 16.36c.005.515-.375.909-.89.915s-.9-.381-.905-.897a.879.879 0 0 1 .887-.914.88.88 0 0 1 .908.897zm-.15.001a.725.725 0 0 0-.756-.738c-.429.004-.742.324-.738.753s.324.742.756.738a.726.726 0 0 0 .738-.753zM3.218 13.762a.438.438 0 0 1 .475-.255c.272.043.436.296.39.587l-.129.812-1.707-.271.128-.806c.044-.275.244-.434.493-.395a.413.413 0 0 1 .35.328zm-.349-.168c-.183-.029-.321.082-.352.278l-.101.635.597.095.101-.635c.031-.196-.069-.345-.245-.373zm1.062.495c.034-.215-.084-.392-.276-.423-.196-.031-.363.101-.397.319l-.101.638.673.107.102-.642zM3.93 11.386l.057.022-.486 1.491c.39.104.753-.091.875-.465a.695.695 0 0 0-.167-.727l.052-.158c.279.259.373.589.261.933-.154.472-.638.708-1.125.549-.484-.158-.736-.634-.582-1.105.157-.481.637-.694 1.115-.539zm-.974.584c-.119.365.05.723.406.883l.438-1.345c-.388-.089-.728.106-.844.462zM4.604 8.357l.123.076-.363.588 1.348.832-.081.131-1.348-.832-.361.585-.123-.076.805-1.304zM4.601 7.791l-.176-.134.12-.158.176.134-.12.158zm1.67 1.246L4.897 7.989l.095-.125 1.374 1.048-.095.125zM5.725 6.983l.743-.764 1.239 1.204-.109.112L6.46 6.429l-.542.558.658.792c.269.324.272.537.04.776l-.02.021-.106-.103.025-.025c.163-.168.152-.321-.042-.554l-.748-.91zM8.705 6.667c-.417.302-.959.22-1.261-.197s-.209-.955.208-1.257c.42-.304.959-.22 1.259.195a.88.88 0 0 1-.206 1.259zm-.088-.122a.726.726 0 0 0 .165-1.044c-.251-.347-.694-.418-1.041-.167s-.418.694-.165 1.044a.727.727 0 0 0 1.041.167zM10.755 4.609c-.109.047-.226 0-.273-.108s.001-.224.11-.271c.109-.047.222-.002.269.107s.003.225-.105.272zM14.362 3.462c.181.05.31.194.336.391.04.298-.195.546-.563.595-.327.044-.592-.101-.676-.368l.143-.019c.072.178.269.274.513.241.279-.037.458-.22.429-.438-.025-.19-.202-.328-.424-.298l-.292.039-.017-.13.292-.039c.206-.028.328-.176.305-.348-.027-.2-.23-.318-.484-.284-.222.03-.375.167-.396.344l-.143.019c.007-.259.219-.459.524-.5.333-.045.607.119.643.388a.396.396 0 0 1-.191.407zM16.575 4.167l.243.004-.01.624-.144-.002.008-.477-1.581-.026-.008.477-.144-.002.01-.624.192.003c.159-.141.194-.339.308-1.576l1.152.019-.026 1.581zm-.984-1.456c-.091 1.039-.14 1.284-.276 1.436l1.107.018.024-1.44-.854-.014zM17.845 4.527c-.506-.098-.816-.55-.718-1.055s.554-.805 1.06-.707c.509.099.816.55.718 1.052a.879.879 0 0 1-1.06.71zm.029-.148a.726.726 0 0 0 .875-.593c.082-.421-.169-.792-.59-.874s-.792.169-.875.593a.726.726 0 0 0 .59.874zM20.805 3.522c.479.19.677.681.489 1.157s-.67.702-1.149.512a.857.857 0 0 1-.541-.641l-.359.908-.146-.058.862-2.178.104.041-.106.364a.863.863 0 0 1 .847-.105zm-.614 1.526c.393.155.798-.025.957-.427.158-.399-.014-.808-.407-.963-.39-.154-.802.027-.959.423s.019.813.409.967zM21.924 6.084c-.436-.274-.563-.807-.289-1.243s.807-.551 1.243-.277c.439.276.563.807.291 1.24a.88.88 0 0 1-1.245.28zm.08-.127c.363.228.8.128 1.03-.238.228-.363.128-.8-.235-1.028s-.8-.128-1.03.238a.726.726 0 0 0 .235 1.028zM24.475 6.853a.438.438 0 0 1-.041.537c-.183.206-.484.208-.704.012l-.615-.546 1.148-1.292.61.542c.208.185.234.44.067.628a.41.41 0 0 1-.464.118zm.33-.203c.123-.139.104-.314-.044-.446l-.481-.427-.402.452.481.427c.148.132.327.128.446-.006zm-.99.627c.163.145.375.141.505-.005.132-.148.11-.36-.055-.507l-.483-.429-.453.509.486.432zM26.104 8.739l-.049.036-.992-1.214c-.298.272-.33.683-.081.988.18.221.433.307.703.253l.105.129c-.369.095-.698-.004-.927-.284-.314-.384-.251-.919.145-1.243.394-.322.931-.277 1.245.107.32.391.24.911-.149 1.229zm.035-1.136c-.243-.297-.636-.348-.962-.135l.895 1.095c.285-.278.304-.67.067-.96zM28.277 10.895l-.13.063-.302-.622-1.425.692-.067-.138 1.425-.692-.3-.619.13-.063.669 1.379zM28.764 11.21l.207-.076.069.186-.207.076-.069-.186zm-1.947.743 1.621-.598.054.147-1.621.598-.054-.147zM28.841 12.571l.25 1.036-1.68.405-.037-.152 1.543-.372-.182-.756-1.021.134c-.418.055-.599-.056-.677-.38l-.007-.028.143-.034.008.034c.055.227.191.3.491.26l1.169-.147zM27.525 15.345c-.03-.514.33-.927.845-.957s.917.337.948.851c.03.518-.33.927-.841.957a.88.88 0 0 1-.951-.851zm.151-.008c.025.428.36.726.791.7.428-.025.726-.36.701-.788s-.36-.726-.791-.7a.727.727 0 0 0-.701.788zM28.164 18.094c.019-.117.121-.191.238-.173s.188.121.17.238c-.018.117-.117.189-.234.17s-.192-.118-.173-.235z"/><path fill="#272727" style="fill:var(--color2,#272727)" d="M10.034 13.947c-1.084-.362-1.626-1.468-1.262-2.557.366-1.094 1.464-1.651 2.548-1.288a1.87 1.87 0 0 1 1.287 2.062l-.794-.266a1.074 1.074 0 0 0-.748-1.034c-.626-.209-1.261.134-1.483.797s.081 1.314.707 1.523c.484.162.956-.008 1.242-.427l.805.269c-.473.854-1.392 1.225-2.302.92zM15.979 11.747l-.248.742-1.026-.343-.983 2.941-.794-.266.983-2.941-1.026-.343.248-.742 2.846.952zM17.213 16.254l-.026-.781-1.462-.489-.485.61-.847-.283 2.678-3.198.752.252.257 4.18-.868-.29zm-.083-3.04-.925 1.159.968.324-.042-1.482zM21.036 13.438c.736.246 1.118.976.875 1.702s-.981 1.081-1.723.833l-.621-.208-.384 1.147-.794-.266 1.231-3.682 1.415.473zm-.638 1.787c.316.106.607-.049.709-.354s-.04-.598-.355-.704l-.584-.195-.354 1.057.584.195zM25.271 14.854l-.248.742-1.026-.343-.983 2.941-.794-.266.983-2.941-1.026-.343.248-.742 2.846.952zM9.762 15.497l1.284.429-1.17 3.498-.742-.248.948-2.835-.542-.181.222-.663zM11.793 20.135c-.868-.29-1.181-1.173-.808-2.288s1.147-1.628 2.02-1.336c.878.294 1.188 1.169.815 2.285s-1.154 1.632-2.027 1.34zm.234-.7c.431.144.793-.168 1.034-.888.239-.715.136-1.194-.29-1.337s-.789.175-1.029.89c-.241.721-.141 1.193.285 1.335zM13.546 20.651l.274-.821.815.273-.274.821-.815-.273zM16.07 21.565c-.868-.29-1.181-1.173-.808-2.288s1.147-1.628 2.02-1.336c.878.294 1.188 1.169.815 2.285s-1.154 1.632-2.027 1.34zm.234-.699c.431.144.793-.168 1.034-.888.239-.715.136-1.194-.29-1.337s-.789.175-1.029.89c-.241.721-.141 1.193.285 1.335zM18.87 18.542l2.504.837-.035.105-2.471 2.946-.779-.26 2.065-2.45-1.51-.505.225-.673z"/></symbol></defs></svg>