<svg aria-hidden="true" style="width:0;height:0;position:absolute;overflow:hidden" xmlns="http://www.w3.org/2000/svg"><defs><symbol id="icon-menu" viewBox="0 0 32 32"><path d="M6.4 11.733V9.6h19.2v2.133H6.4zm0 5.334h19.2v-2.133H6.4v2.133zm0 5.333h19.2v-2.133H6.4V22.4z"/></symbol><symbol id="icon-close" viewBox="0 0 32 32"><path d="M23.733 10.304 22.229 8.8l-5.963 5.963L10.303 8.8l-1.504 1.504 5.963 5.963-5.963 5.963 1.504 1.504 5.963-5.963 5.963 5.963 1.504-1.504-5.963-5.963 5.963-5.963z"/></symbol><symbol id="icon-email" viewBox="0 0 32 32"><path d="M26.667 5.333H5.334A2.663 2.663 0 0 0 2.681 8l-.013 16c0 1.467 1.2 2.667 2.667 2.667h21.333c1.467 0 2.667-1.2 2.667-2.667V8c0-1.467-1.2-2.667-2.667-2.667zM26.133 11l-9.427 5.893a1.346 1.346 0 0 1-1.413 0L5.866 11a1.132 1.132 0 1 1 1.2-1.92l8.933 5.587 8.933-5.587a1.132 1.132 0 1 1 1.2 1.92z"/></symbol><symbol id="icon-phone" viewBox="0 0 32 32"><path d="m24.881 19.774-3.268-.373a2.561 2.561 0 0 0-2.11.733l-2.367 2.367a19.357 19.357 0 0 1-8.478-8.478l2.38-2.38a2.561 2.561 0 0 0 .733-2.11l-.373-3.242a2.575 2.575 0 0 0-2.56-2.277H6.612c-1.454 0-2.663 1.209-2.573 2.663.682 10.987 9.469 19.761 20.443 20.443 1.454.09 2.663-1.119 2.663-2.573v-2.226a2.55 2.55 0 0 0-2.264-2.547z"/></symbol><symbol id="icon-person" viewBox="0 0 32 32"><path d="M16 16c2.947 0 5.333-2.387 5.333-5.333S18.946 5.334 16 5.334c-2.947 0-5.333 2.387-5.333 5.333S13.054 16 16 16zm0 2.667c-3.56 0-10.667 1.787-10.667 5.333v1.333c0 .733.6 1.333 1.333 1.333h18.667c.733 0 1.333-.6 1.333-1.333V24c0-3.547-7.107-5.333-10.667-5.333z"/></symbol><symbol id="icon-mark" viewBox="0 0 32 32"><path d="M0 0h32v32H0V0z"/></symbol><symbol id="icon-instagram" viewBox="0 0 32 32"><path style="fill:var(--color1,#000)" d="M31.904 9.408c-.077-1.702-.352-2.867-.742-3.885-.41-1.05-.954-1.946-1.843-2.829S27.54 1.254 26.49.851C25.472.454 24.308.185 22.605.109 20.896.032 20.352.013 16.013.013c-4.346 0-4.89.019-6.592.096S6.554.461 5.536.851c-1.056.41-1.952.954-2.835 1.843S1.261 4.473.858 5.523C.468 6.541.192 7.705.116 9.408.039 11.117.02 11.661.02 16c0 4.346.019 4.89.096 6.592s.352 2.867.742 3.885c.41 1.05.954 1.946 1.843 2.829a7.7 7.7 0 0 0 2.829 1.843c1.018.397 2.182.666 3.885.742 1.709.077 2.253.096 6.592.096 4.346 0 4.89-.019 6.592-.096s2.867-.352 3.885-.742c1.05-.41 1.946-.954 2.829-1.843s1.44-1.779 1.843-2.829c.397-1.018.666-2.182.742-3.885.077-1.709.096-2.253.096-6.592s-.013-4.89-.09-6.592zM29.03 22.464c-.07 1.562-.333 2.413-.55 2.97-.288.742-.64 1.28-1.203 1.843s-1.094.902-1.843 1.203c-.563.218-1.414.48-2.97.55-1.683.077-2.189.096-6.464.096s-4.781-.019-6.464-.096c-1.562-.07-2.413-.333-2.97-.55-.742-.288-1.28-.64-1.843-1.203s-.902-1.094-1.203-1.843c-.218-.563-.48-1.414-.55-2.97-.077-1.683-.096-2.189-.096-6.464s.019-4.781.096-6.464c.07-1.562.333-2.413.55-2.97.288-.742.64-1.28 1.203-1.843s1.094-.902 1.843-1.203c.563-.218 1.414-.48 2.97-.55 1.683-.077 2.189-.096 6.464-.096s4.781.019 6.464.096c1.562.07 2.413.333 2.97.55.742.288 1.28.64 1.843 1.203s.902 1.094 1.203 1.843c.218.563.48 1.414.55 2.97.077 1.683.096 2.189.096 6.464s-.026 4.781-.096 6.464z"/><path style="fill:var(--color1,#000)" d="M16 7.782A8.215 8.215 0 0 0 7.782 16c0 4.544 3.68 8.218 8.218 8.218s8.218-3.686 8.218-8.218A8.211 8.211 0 0 0 16 7.782zm0 13.549a5.331 5.331 0 1 1 0-10.663 5.331 5.331 0 0 1 0 10.663z"/><path fill="#bc30a0" style="fill:var(--color2,#bc30a0)" d="M26.458 7.462a1.92 1.92 0 1 1-3.841-.001 1.92 1.92 0 0 1 3.841.001z"/><path style="fill:var(--color1,#000)" d="M0 16c0 4.346.019 4.89.096 6.592s.352 2.867.742 3.885c.41 1.05.954 1.946 1.843 2.829a7.79 7.79 0 0 0 2.829 1.843c1.018.397 2.182.666 3.885.742 1.709.077 2.253.096 6.592.096 4.346 0 4.89-.019 6.592-.096s2.867-.352 3.885-.742c1.05-.41 1.946-.954 2.829-1.843a7.79 7.79 0 0 0 1.843-2.829c.397-1.018.666-2.182.742-3.885.077-1.709.096-2.253.096-6.592 0-4.346-.019-4.89-.096-6.592s-.352-2.867-.742-3.885c-.41-1.05-.954-1.946-1.843-2.829A7.635 7.635 0 0 0 26.471.851C25.453.454 24.289.185 22.586.109 20.877.032 20.333.013 15.994.013c-4.346 0-4.89.019-6.592.096S6.535.461 5.517.851c-1.05.41-1.946.954-2.829 1.843S1.248 4.473.845 5.523C.448 6.541.173 7.705.096 9.408S0 11.654 0 16zm2.886 0c0-4.269.019-4.781.096-6.464.07-1.562.333-2.413.55-2.97.288-.742.64-1.28 1.203-1.843s1.094-.902 1.843-1.203c.563-.218 1.414-.48 2.97-.55 1.683-.077 2.189-.096 6.464-.096s4.781.019 6.464.096c1.562.07 2.413.333 2.97.55.742.288 1.28.64 1.843 1.203s.902 1.094 1.203 1.843c.218.563.48 1.414.55 2.97.077 1.683.096 2.189.096 6.464s-.019 4.781-.096 6.464c-.07 1.562-.333 2.413-.55 2.97-.288.742-.64 1.28-1.203 1.843s-1.094.902-1.843 1.203c-.563.218-1.414.48-2.97.55-1.683.077-2.189.096-6.464.096s-4.781-.019-6.464-.096c-1.562-.07-2.413-.333-2.97-.55-.742-.288-1.28-.64-1.843-1.203s-.902-1.094-1.203-1.843c-.218-.563-.48-1.414-.55-2.97-.083-1.683-.096-2.195-.096-6.464z"/></symbol><symbol id="icon-scroll_up" viewBox="0 0 32 32"><path d="M4.5 19.6 15.7 8.367c.133-.133.278-.228.433-.283s.322-.084.5-.084.345.028.5.084.3.149.433.283L28.799 19.6c.311.311.467.7.467 1.167s-.167.867-.5 1.2c-.333.333-.722.5-1.167.5s-.833-.167-1.167-.5l-9.8-9.8-9.8 9.8c-.311.311-.694.467-1.149.467s-.851-.167-1.184-.5-.5-.722-.5-1.167c0-.444.167-.833.5-1.167z"/></symbol><symbol id="icon-Vector" viewBox="0 0 42 32"><path fill="#fff" stroke="#fff" stroke-width=".64" d="m6.263 15.205-.22-.21-3.307 3.132 11.651 11.114L38.864 5.89l-3.285-3.134-21.192 20.197-8.124-7.75z"/></symbol></defs></svg>