<svg aria-hidden="true" style="width:0;height:0;position:absolute;overflow:hidden" xmlns="http://www.w3.org/2000/svg"><defs><symbol id="icon-apple" viewBox="0 0 32 32"><path fill="#ff7400" style="fill:var(--color1,#ff7400)" d="M16 10.667a1.333 1.333 0 0 1-1.334-1.333 8.09 8.09 0 0 1 3.266-6.44 1.335 1.335 0 0 1 1.948 1.379 1.332 1.332 0 0 1-.481.834 5.506 5.506 0 0 0-2.067 4.227 1.33 1.33 0 0 1-1.334 1.333z"/><path fill="#ff7400" style="fill:var(--color1,#ff7400)" d="M23.84 7.2a7.243 7.243 0 0 0-6.093.294A5.336 5.336 0 0 1 16 8.001a5.44 5.44 0 0 1-1.76-.507 7.237 7.237 0 0 0-6.093-.293c-3.213 1.333-4.573 4.533-4 9.453.64 6.147 3.547 12.68 7.6 12.68a5.068 5.068 0 0 0 2.667-.813 2.829 2.829 0 0 1 1.587-.52 2.786 2.786 0 0 1 1.547.507c.796.512 1.72.794 2.667.813 4 0 6.96-6.533 7.627-12.68s-1.787-8.507-4-9.44z"/></symbol><symbol id="icon-column" viewBox="0 0 33 32"><path fill="#ff7400" style="fill:var(--color1,#ff7400)" d="M30 9.013 28.667 3.68a1.33 1.33 0 0 0-1.334-1.013H22a1.335 1.335 0 0 0-.943 2.277c.25.25.589.391.943.391h2.827c-5.773 7.587-16.293 9.333-20.16 9.333a1.335 1.335 0 0 0-.943 2.277c.251.25.589.391.943.391 4.213 0 15.613-1.933 22.08-10.173l.587 2.493a1.372 1.372 0 1 0 2.667-.641zM31.333 14.667V28a1.334 1.334 0 0 1-1.334 1.334h-4A1.334 1.334 0 0 1 24.665 28V14.667a1.334 1.334 0 0 1 1.334-1.334h4a1.334 1.334 0 0 1 1.334 1.334zm-12 4h-4a1.334 1.334 0 0 0-1.334 1.334v8a1.334 1.334 0 0 0 1.334 1.334h4a1.334 1.334 0 0 0 1.334-1.334v-8a1.334 1.334 0 0 0-1.334-1.334zM8.667 21.333h-4a1.334 1.334 0 0 0-1.334 1.334V28a1.335 1.335 0 0 0 1.334 1.334h4A1.334 1.334 0 0 0 10.001 28v-5.333a1.335 1.335 0 0 0-1.334-1.334z"/></symbol><symbol id="icon-cross" viewBox="0 0 33 32"><path fill="#ff7400" style="fill:var(--color1,#ff7400)" d="M27.333 2.667H6a2.667 2.667 0 0 0-2.667 2.667v21.333A2.667 2.667 0 0 0 6 29.334h21.333A2.667 2.667 0 0 0 30 26.667V5.334a2.667 2.667 0 0 0-2.667-2.667z"/><path style="fill:var(--color2,#000)" d="m18.547 16 3.067-3.053a1.34 1.34 0 0 0-1.894-1.894l-3.053 3.067-3.053-3.067a1.34 1.34 0 0 0-1.894 1.894L14.787 16l-3.067 3.053a1.334 1.334 0 0 0 0 1.894 1.334 1.334 0 0 0 1.894 0l3.053-3.067 3.053 3.067a1.334 1.334 0 0 0 1.894 0 1.334 1.334 0 0 0 0-1.894L18.547 16z"/></symbol><symbol id="icon-list" viewBox="0 0 32 32"><path fill="#ff7400" style="fill:var(--color1,#ff7400)" d="m26.28 5.72-2.667-2.667a1.337 1.337 0 0 0-.947-.387H7.999a2.668 2.668 0 0 0-2.667 2.667v21.333a2.668 2.668 0 0 0 2.667 2.667h16a2.67 2.67 0 0 0 2.667-2.667v-20a1.345 1.345 0 0 0-.387-.947z"/><path style="fill:var(--color2,#000)" d="M21.333 24H10.666a1.335 1.335 0 0 1-.943-2.277c.25-.25.589-.391.943-.391h10.667a1.334 1.334 0 0 1 0 2.668zm0-5.333H10.666a1.335 1.335 0 0 1-.943-2.277c.25-.25.589-.391.943-.391h10.667a1.334 1.334 0 0 1 0 2.668zm0-5.334H10.666a1.333 1.333 0 1 1 0-2.667h10.667a1.335 1.335 0 0 1 .943 2.277c-.25.25-.589.39-.943.39zM26.28 5.72l-2.667-2.667a1.337 1.337 0 0 0-.947-.387v2.667A1.334 1.334 0 0 0 24 6.667h2.667a1.345 1.345 0 0 0-.387-.947z"/></symbol><symbol id="icon-body-title" viewBox="0 0 141 32"><path fill="#ff7400" style="fill:var(--color1,#ff7400)" d="M133.698 6.8c-.398 0-.692.126-.88.377-.168.231-.294.618-.377 1.163l-2.043 12.89c-.126.88.199 1.32.975 1.32.671 0 1.08-.44 1.226-1.32l2.043-12.89c.147-1.027-.168-1.54-.943-1.54zm-.346-4.087h.849c1.823 0 3.123.534 3.898 1.603s1.027 2.515.755 4.339l-1.949 12.324c-.65 3.835-2.369 5.753-5.156 5.753h-.849c-1.761 0-3.06-.524-3.898-1.572-.817-1.048-1.08-2.494-.786-4.339l1.918-12.135c.314-1.991.859-3.479 1.635-4.464.797-1.006 1.991-1.509 3.584-1.509zM118.896 26.386l3.05-19.272h-1.603c-1.195 7.713-2.086 12.764-2.672 15.153-.356 1.467-.87 2.526-1.54 3.175-.671.629-1.74.943-3.207.943h-1.037l.66-4.244h.251c.398 0 .692-.115.88-.346s.346-.639.472-1.226c.943-4.8 1.949-10.658 3.018-17.574h9.494l-3.71 23.39h-4.056zM113.425 2.996l-3.71 23.39h-4.056l3.71-23.39h4.056zM97.45 2.996h9.872l-.66 4.118h-2.861l-3.05 19.272h-4.056l3.05-19.272H96.79l.66-4.118zM82.387 2.996h8.646l-.66 4.118h-4.559l-.817 5.093h3.647l-.692 4.213h-3.647l-.912 5.753h4.842l-.692 4.213h-8.866l3.71-23.39zM65.998 26.386l3.71-23.39h5.816c1.425 0 2.442.335 3.05 1.006.629.65.817 1.708.566 3.175l-.472 2.987c-.293 1.865-1.121 2.997-2.484 3.395 1.425.524 2.002 1.75 1.729 3.678l-.597 3.898c-.314 1.865-.786 3.207-1.415 4.024-.607.817-1.519 1.226-2.735 1.226h-7.168zm6.665-10.469h-.943l-1.1 6.759h1.163c.377 0 .66-.084.849-.252s.336-.566.44-1.195l.597-3.773c.084-.524.053-.912-.094-1.163s-.45-.377-.912-.377zm1.446-9.337h-.912l-.88 5.565h1.006c.336 0 .587-.084.755-.252.189-.168.336-.493.44-.975l.503-3.112c.126-.817-.178-1.226-.912-1.226zM61.311 6.8c-.398 0-.692.126-.88.377-.167.231-.293.618-.377 1.163L58.01 21.23c-.126.88.199 1.32.975 1.32.671 0 1.08-.44 1.226-1.32l2.044-12.89c.147-1.027-.167-1.54-.943-1.54zm-.345-4.087h.849c1.823 0 3.123.534 3.898 1.603s1.027 2.515.755 4.339l-1.949 12.324c-.65 3.835-2.368 5.753-5.156 5.753h-.849c-1.761 0-3.06-.524-3.898-1.572-.817-1.048-1.079-2.494-.786-4.339l1.918-12.135c.314-1.991.859-3.479 1.635-4.464.797-1.006 1.991-1.509 3.584-1.509zM48.778 17.017H46.42l-1.478 9.369h-4.056l3.71-23.39h5.376c1.656 0 2.777.398 3.364 1.195.608.775.775 1.918.503 3.427l-.755 4.684c-.231 1.53-.671 2.704-1.32 3.521-.65.796-1.645 1.195-2.987 1.195zm-.692-10.406-1.037 6.602h.849c.398 0 .671-.094.817-.283s.252-.514.314-.975l.629-3.961c.147-.922-.136-1.383-.849-1.383h-.723zM36.2 6.8c-.398 0-.692.126-.88.377-.168.231-.293.618-.377 1.163l-2.044 12.89c-.126.88.199 1.32.975 1.32.671 0 1.079-.44 1.226-1.32l2.044-12.89c.147-1.027-.168-1.54-.943-1.54zm-.346-4.087h.849c1.823 0 3.123.534 3.898 1.603s1.027 2.515.755 4.339l-1.949 12.324c-.65 3.835-2.368 5.753-5.156 5.753h-.849c-1.761 0-3.06-.524-3.898-1.572-.817-1.048-1.079-2.494-.786-4.339l1.918-12.135c.314-1.991.859-3.479 1.635-4.464.796-1.006 1.991-1.509 3.584-1.509zM14.459 22.173h.786c.042-.126.126-.398.252-.817.231-.755.43-1.572.597-2.452.775-3.94 1.666-9.243 2.672-15.908h9.715l-3.05 19.178h1.1l-1.163 7.514h-3.741l.503-3.301h-4.59l-.503 3.301h-3.741l1.163-7.514zm4.622 0h2.326l2.389-15.059h-1.823c-.88 5.533-1.582 9.589-2.106 12.167-.272 1.153-.451 1.855-.534 2.106l-.126.377a1.92 1.92 0 0 1-.126.409zM4.594 10.195l.472-3.018c.21-1.509.66-2.63 1.352-3.364.713-.734 1.792-1.1 3.238-1.1h.723c1.698 0 2.882.43 3.553 1.289.692.838.933 1.991.723 3.458l-.44 2.892c-.293 1.761-.964 2.84-2.012 3.238 1.132.398 1.562 1.551 1.289 3.458l-.755 4.842c-.272 1.719-.796 2.955-1.572 3.71-.755.755-1.865 1.132-3.332 1.132h-.88c-3.312 0-4.726-1.614-4.244-4.842l.629-4.087h4.056l-.566 3.71c-.126.734.105 1.1.692 1.1.566 0 .912-.367 1.037-1.1l.692-4.401c.063-.398.042-.681-.063-.849-.084-.168-.304-.252-.66-.252H6.483l.66-4.181h1.949c.356 0 .597-.073.723-.22.147-.147.252-.419.314-.817l.472-2.924c.126-.713-.094-1.069-.66-1.069-.272 0-.482.073-.629.22s-.252.43-.314.849l-.377 2.326H4.597z"/><path fill="#272727" style="fill:var(--color4,#272727)" d="m136.904 20.979 1.949-12.324c.273-1.823.021-3.27-.755-4.339s-2.075-1.603-3.898-1.603h-.849c-1.593 0-2.787.503-3.584 1.509-.775.985-1.32 2.473-1.635 4.464l-1.918 12.135c-.293 1.844-.031 3.291.786 4.339.839 1.048 2.138 1.572 3.898 1.572h.849c2.788 0 4.506-1.918 5.156-5.753zM125.915 8.335c.342-2.163.973-4.086 2.088-5.503l.004-.005c1.324-1.672 3.248-2.361 5.345-2.361h.849c2.248 0 4.371.676 5.716 2.53 1.238 1.707 1.482 3.817 1.158 5.989l-.001.009-1.953 12.346-.002.012c-.362 2.137-1.066 4.041-2.318 5.439-1.323 1.477-3.079 2.185-5.052 2.185h-.849c-2.213 0-4.262-.678-5.652-2.415l-.009-.011-.008-.011c-1.334-1.711-1.583-3.867-1.233-6.07zm0 0zm4.482 12.895c-.126.88.199 1.32.975 1.32.579 0 .963-.328 1.151-.983l.009-.032a3.242 3.242 0 0 0 .066-.305l2.043-12.89c.147-1.027-.167-1.54-.943-1.54-.398 0-.692.126-.88.377-.13.179-.236.454-.315.824l-.007.033-.015.074a4.455 4.455 0 0 0-.04.232l-2.043 12.89z"/><path fill="#272727" style="fill:var(--color4,#272727)" d="M116.954 24.288c.285-.554.523-1.228.716-2.021.587-2.389 1.478-7.44 2.672-15.153h1.603l-3.05 19.272h4.056l3.71-23.39h-9.494c-1.069 6.916-2.075 12.775-3.018 17.574-.126.587-.283.996-.472 1.226s-.482.346-.88.346h-.251l-.66 4.244h1.037c.454 0 .871-.03 1.249-.091.842-.134 1.494-.419 1.958-.853a4.37 4.37 0 0 0 .825-1.155zm-4.961-4.392c.922-4.715 1.907-10.461 2.955-17.243l.294-1.903h14.05l-4.422 27.882h-8.602l.107-.675c-1.054.504-2.262.675-3.451.675h-3.66l.349-2.246h.103l1.029-6.49h1.248z"/><path fill="#272727" style="fill:var(--color4,#272727)" d="m116.055.75-3.393 21.392h-.117l-.66 4.244h.104l-.356 2.246h-8.603l3.413-21.517h.219l.66-4.118h-.226l.356-2.246h8.603zm-2.63 2.246h-4.056l-3.71 23.39h4.056l3.71-23.39z"/><path fill="#272727" style="fill:var(--color4,#272727)" d="M95.536.75h14.42l-.36 2.246h-.226l-1.009 6.364h-2.642l-3.05 19.272h-8.602l3.05-19.272h-2.961l1.38-8.61zm4.209 6.364-3.05 19.272h4.056l3.05-19.272h2.861l.66-4.118H97.45l-.66 4.118h2.955zM80.469.75h13.197l-1.38 8.61h-4.559l-.097.602h3.656l-1.429 8.704h-3.636l-.2 1.262h4.856l-1.429 8.704H76.045l.947-5.971c.121-.462.229-.97.322-1.525l.597-3.898a6.32 6.32 0 0 0 .065-.782L80.466.751zm2.924 21.423.912-5.753h3.647l.692-4.213h-3.647l.817-5.093h4.559l.66-4.118h-8.646l-3.71 23.39h8.866l.692-4.213h-4.842z"/><path fill="#272727" style="fill:var(--color4,#272727)" d="M63.368 28.632 67.79.75h7.733c1.69 0 3.464.386 4.689 1.717 1.35 1.418 1.432 3.372 1.143 5.074l-.469 2.972c-.189 1.198-.588 2.32-1.253 3.233.029.056.057.113.084.171.409.87.538 1.813.501 2.749l-1.024 6.456c-.336 1.316-.811 2.489-1.502 3.393-1.116 1.49-2.761 2.117-4.526 2.117h-9.798zm12.533-3.472c.629-.817 1.1-2.159 1.415-4.024l.597-3.898c.107-.752.084-1.398-.069-1.937-.238-.842-.792-1.422-1.661-1.742.83-.242 1.461-.757 1.894-1.543.278-.505.475-1.123.589-1.852l.472-2.987c.251-1.467.063-2.526-.566-3.175-.608-.671-1.624-1.006-3.05-1.006h-5.816l-3.71 23.39h7.168c1.216 0 2.127-.409 2.735-1.226zm-1.05-18.319c-.156-.174-.403-.261-.742-.261h-.912l-.88 5.565h1.006c.335 0 .587-.084.755-.252a.842.842 0 0 0 .077-.08c.152-.182.273-.48.363-.894l.503-3.112c.068-.44.011-.761-.17-.965zm-1.336 9.368c-.162-.195-.446-.292-.852-.292h-.943l-1.1 6.759h1.163c.377 0 .66-.084.849-.252s.335-.566.44-1.195l.597-3.773c.084-.524.052-.912-.094-1.163a.614.614 0 0 0-.059-.085z"/><path fill="#272727" style="fill:var(--color4,#272727)" d="m64.518 20.979 1.949-12.324c.273-1.823.021-3.27-.755-4.339s-2.075-1.603-3.898-1.603h-.849c-1.593 0-2.787.503-3.584 1.509-.775.985-1.32 2.473-1.635 4.464l-1.918 12.135c-.293 1.844-.031 3.291.786 4.339.838 1.048 2.138 1.572 3.898 1.572h.849c2.788 0 4.506-1.918 5.156-5.753zM53.719 8.366l.121-.748c.086-.478.129-.92.126-1.324.371-1.328.902-2.508 1.652-3.46l.004-.005C56.946 1.157 58.87.468 60.967.468h.849c2.248 0 4.371.676 5.716 2.53 1.238 1.707 1.482 3.817 1.158 5.989l-.001.009-1.953 12.346-.002.012c-.362 2.137-1.066 4.041-2.318 5.439-1.323 1.477-3.079 2.185-5.052 2.185h-.849c-2.213 0-4.262-.678-5.652-2.415l-.009-.011-.009-.011c-1.334-1.711-1.584-3.867-1.233-6.07s0-.002 0-.002l.97-6.139c.22-.587.388-1.263.503-2.028l.634-3.936zM58.01 21.23c-.126.88.199 1.32.975 1.32.579 0 .963-.328 1.151-.983l.009-.032a3.242 3.242 0 0 0 .066-.305l2.044-12.89c.147-1.027-.167-1.54-.943-1.54-.398 0-.692.126-.88.377-.13.179-.235.454-.315.824a.388.388 0 0 0-.007.033l-.015.074a4.455 4.455 0 0 0-.04.232l-2.044 12.89z"/><path fill="#272727" style="fill:var(--color4,#272727)" d="M49.451 6.826c.227.22.296.61.207 1.169l-.629 3.961c-.063.461-.168.786-.314.975s-.419.283-.817.283h-.849l1.037-6.602h.723c.281 0 .495.072.642.215zm2.313 8.997c.65-.817 1.09-1.991 1.32-3.521l.755-4.684c.273-1.509.105-2.651-.503-3.427-.587-.796-1.708-1.195-3.364-1.195h-5.376l-3.71 23.39h4.056l1.478-9.369h2.358c1.341 0 2.337-.398 2.987-1.195zm3.003-.933c-.299.862-.704 1.65-1.244 2.33l-.009.011-.009.011c-1.199 1.47-2.932 2.021-4.727 2.021h-.439l-1.478 9.369h-8.605L42.678.75h7.294c1.882 0 3.919.434 5.152 2.081.863 1.117 1.133 2.458 1.08 3.806a13.99 13.99 0 0 0-.325 1.309l-.008.038c-.045.227-.086.461-.125.702l-.98 6.204z"/><path fill="#272727" style="fill:var(--color4,#272727)" d="m39.407 20.979 1.949-12.324c.273-1.823.021-3.27-.755-4.339s-2.075-1.603-3.898-1.603h-.849c-1.593 0-2.788.503-3.584 1.509-.775.985-1.32 2.473-1.635 4.464l-1.918 12.135c-.293 1.844-.031 3.291.786 4.339.838 1.048 2.138 1.572 3.898 1.572h.849c2.788 0 4.506-1.918 5.156-5.753zm-6.508.251c-.126.88.199 1.32.975 1.32.579 0 .963-.328 1.151-.983l.009-.032a3.242 3.242 0 0 0 .066-.305l2.044-12.89c.147-1.027-.168-1.54-.943-1.54-.398 0-.692.126-.88.377-.13.179-.236.454-.315.824l-.007.033-.015.074a5.844 5.844 0 0 0-.04.232L32.9 21.23zM43.576 8.996l-1.955 12.358c-.362 2.137-1.066 4.041-2.318 5.439-1.323 1.477-3.079 2.185-5.052 2.185h-.849c-2.213 0-4.262-.678-5.652-2.415l-.009-.011-.009-.011c-.805-1.032-1.215-2.225-1.337-3.494l.135-.874h-.175c.001-.56.052-1.129.143-1.702s0-.002 0-.002l1.917-12.133c.342-2.163.973-4.086 2.088-5.503l.004-.005C31.831 1.156 33.755.467 35.852.467h.849c2.248 0 4.371.676 5.716 2.53 1.238 1.707 1.482 3.817 1.158 5.989l-.001.009z"/><path fill="#272727" style="fill:var(--color4,#272727)" d="M13.566 19.928c.117-.453.225-.934.322-1.444l.001-.007.001-.007c.766-3.893 1.651-9.159 2.655-15.809l.288-1.91H31.11l-3.05 19.178h.797l-.141.894a8.435 8.435 0 0 0-.11 1.673c.009.205.027.404.054.596l-1.369 8.842h-8.28l.503-3.301h-.047l-.503 3.301h-8.291l1.101-7.113c.444-.731.763-1.702.957-2.914l.003-.016.306-1.963h.524zm3.974 6.458h4.59l-.503 3.301h3.741l1.163-7.514h-1.1l3.05-19.178h-9.715c-1.006 6.665-1.897 11.968-2.672 15.908-.168.88-.367 1.698-.597 2.452-.126.419-.21.692-.252.817h-.786l-1.163 7.514h3.741l.503-3.301zm2.327-7.105-.154.647c-.187.773-.313 1.259-.38 1.46l-.126.377-.013.057a1.72 1.72 0 0 1-.113.351h2.326l2.389-15.059h-1.823c-.88 5.533-1.582 9.589-2.106 12.167z"/><path fill="#272727" style="fill:var(--color4,#272727)" d="m1.97 12.441.874-5.592c.244-1.741.807-3.374 1.939-4.576l.011-.012.012-.012C6.091.926 7.857.468 9.655.468h.723c1.989 0 4.013.496 5.304 2.129 1.208 1.48 1.459 3.335 1.195 5.182l-.001.01-.444 2.918-.003.016c-.174 1.044-.497 2.097-1.057 2.989.038.085.073.171.106.259.4 1.072.399 2.262.237 3.397l-.002.014-.747 4.793h-.506l-.525 3.389a6.377 6.377 0 0 1-1.193 1.636c-1.312 1.305-3.08 1.779-4.91 1.779h-.88c-1.952 0-3.913-.47-5.233-1.976C.391 25.488.2 23.483.487 21.56l.001-.005.922-5.996h2.869l.492-3.117h-2.8zm6.648-2.246.377-2.326c.013-.09.029-.174.046-.251l.005-.023c.063-.271.151-.463.263-.575.147-.147.356-.22.629-.22.566 0 .786.356.66 1.069l-.472 2.924c-.063.398-.168.671-.314.817-.126.147-.367.22-.723.22H7.14l-.66 4.181h2.044c.083 0 .159.005.228.014.224.03.368.109.432.238.105.168.126.451.063.849l-.692 4.401a2.408 2.408 0 0 1-.057.255l-.009.03c-.161.543-.485.815-.972.815-.587 0-.817-.367-.692-1.1l.566-3.71H3.335l-.629 4.087c-.482 3.228.933 4.842 4.244 4.842h.88c1.467 0 2.578-.377 3.333-1.132.775-.755 1.299-1.991 1.572-3.71l.755-4.842c.087-.611.102-1.145.046-1.601-.121-.967-.566-1.586-1.335-1.857.7-.266 1.232-.837 1.595-1.711a7.04 7.04 0 0 0 .417-1.527l.44-2.892c.21-1.467-.031-2.62-.723-3.458-.671-.859-1.855-1.289-3.553-1.289h-.723c-1.446 0-2.526.367-3.238 1.1-.692.734-1.142 1.855-1.352 3.364l-.472 3.018h4.024z"/></symbol><symbol id="icon-fitness-title" viewBox="0 0 52 32"><path fill="#ff7400" style="fill:var(--color1,#ff7400)" d="m33.509 28.003.409-2.547h2.028l-.409 2.578c-.115.838-.367 1.504-.755 1.996s-.996.739-1.823.739h-.409c-.912 0-1.535-.257-1.871-.77-.335-.524-.445-1.179-.33-1.965l1.053-6.634c.147-.838.409-1.488.786-1.949.377-.472.98-.707 1.808-.707h.424c1.729 0 2.452.859 2.169 2.578l-.314 1.996h-2.028l.314-1.918c.063-.451-.089-.676-.456-.676-.189 0-.325.052-.409.157-.073.105-.131.278-.173.519l-1.053 6.634c-.031.199-.01.362.063.487.084.126.22.189.409.189.178 0 .304-.058.377-.173.084-.115.147-.293.189-.534zM26.643 18.901h4.323l-.33 2.059h-2.279l-.409 2.547h1.823l-.346 2.106h-1.823l-.456 2.877h2.421l-.346 2.106h-4.433l1.855-11.695zM21.405 25.661l-.786 4.936h-2.028l1.855-11.695h2.028l-.707 4.464h1.085l.707-4.464h2.028l-1.855 11.695h-2.028l.786-4.936h-1.085zM14.643 18.901h4.936l-.33 2.059h-1.43l-1.525 9.636h-2.028l1.525-9.636h-1.478l.33-2.059zM13.778 18.901l-1.855 11.695H9.895l1.855-11.695h2.028zM5.632 19.703l.157-.959h2.028l-.157.959h.11c1.918 0 2.719 1.027 2.405 3.081l-.566 3.6c-.178 1.027-.529 1.808-1.053 2.342-.524.524-1.305.786-2.342.786h-.11L5.9 30.754H3.872l.204-1.242h-.11c-1.928 0-2.73-1.027-2.405-3.081l.566-3.6c.314-2.085 1.446-3.128 3.395-3.128h.11zm-.33 2.091h-.016c-.314 0-.55.063-.707.189-.147.126-.246.356-.299.692l-.613 3.82c-.052.325-.031.561.063.707.105.147.32.22.644.22h.031l.896-5.628zm2.028 0-.896 5.628c.314 0 .55-.063.707-.189.157-.136.262-.367.314-.692l.597-3.82c.052-.325.026-.561-.079-.707-.094-.147-.304-.22-.629-.22h-.016zM46.636 14.877l.99-6.209-2.342 6.209h-1.996l1.855-11.695h1.996l-.99 6.256 2.342-6.256h1.996l-1.855 11.695h-1.996zm1.383-12.056h-.063c-.524 0-.922-.147-1.195-.44-.273-.304-.377-.723-.314-1.258h1.273a.533.533 0 0 0 .047.346c.063.084.157.126.283.126h.016c.273 0 .409-.157.409-.472h1.305c-.021.534-.194.954-.519 1.258-.314.293-.728.44-1.242.44zM40.239 14.877l.99-6.209-2.342 6.209h-1.996l1.855-11.695h1.996l-.99 6.256 2.342-6.256h1.996l-1.855 11.695h-1.996zM29.435 14.877 31.29 3.182h2.405l-.157 5.942 1.698-5.942h2.484l-1.855 11.695h-1.839l1.116-6.995-2.106 6.995h-.786l.079-6.995-1.116 6.995h-1.776zM27.249 5.084c-.199 0-.346.063-.44.189-.084.115-.147.309-.189.582L25.598 12.3c-.063.44.1.66.487.66.335 0 .54-.22.613-.66l1.022-6.445c.073-.513-.084-.77-.472-.77zm-.173-2.043h.424c.912 0 1.561.267 1.949.802s.514 1.258.377 2.169l-.975 6.162c-.325 1.918-1.184 2.877-2.578 2.877h-.424c-.88 0-1.53-.262-1.949-.786-.409-.524-.54-1.247-.393-2.169l.959-6.068c.157-.996.43-1.74.817-2.232.398-.503.996-.755 1.792-.755zM16.536 12.771h.393c.021-.063.063-.199.126-.409.115-.377.215-.786.299-1.226.388-1.97.833-4.621 1.336-7.954h4.857l-1.525 9.589h.55l-.582 3.757h-1.871l.252-1.651h-2.295l-.252 1.651h-1.871l.582-3.757zm2.311 0h1.163l1.195-7.53h-.912c-.44 2.767-.791 4.794-1.053 6.083-.136.576-.225.927-.267 1.053l-.063.189a.963.963 0 0 1-.063.204zM17.243 3.182l-1.855 11.695H13.36l1.855-11.695h2.028zM7.178 14.877 9.033 3.182h2.908c.713 0 1.221.168 1.525.503.314.325.409.854.283 1.588l-.236 1.493c-.147.933-.561 1.499-1.242 1.698.713.262 1.001.875.865 1.839l-.299 1.949c-.157.933-.393 1.603-.707 2.012-.304.409-.76.613-1.368.613H7.178zm3.333-5.234h-.472l-.55 3.38h.582c.189 0 .33-.042.424-.126s.168-.283.22-.597l.299-1.886c.042-.262.026-.456-.047-.582s-.225-.189-.456-.189zm.723-4.669h-.456l-.44 2.782h.503c.168 0 .293-.042.377-.126.094-.084.168-.246.22-.487l.252-1.556c.063-.409-.089-.613-.456-.613zM4.579 12.284l.409-2.547h2.028l-.409 2.578c-.115.838-.367 1.504-.755 1.996s-.996.739-1.823.739H3.62c-.912 0-1.535-.257-1.871-.77-.335-.524-.445-1.179-.33-1.965l1.053-6.634c.147-.838.409-1.488.786-1.949.377-.472.98-.707 1.808-.707h.424c1.729 0 2.452.859 2.169 2.578l-.314 1.996H5.317l.314-1.918c.063-.451-.089-.676-.456-.676-.189 0-.325.052-.409.157-.073.105-.131.278-.173.519L3.54 12.315c-.031.199-.01.362.063.487.084.126.22.189.409.189.178 0 .304-.058.377-.173.084-.115.147-.293.189-.534z"/><path fill="#272727" style="fill:var(--color2,#272727)" d="m29.354 29.788.213-1.297h-.383c.005-.204.024-.411.054-.619l1.057-6.655.002-.009c.015-.083.03-.165.047-.247h.292l.251-1.567a4.03 4.03 0 0 1 .429-.649c.662-.824 1.648-1.124 2.68-1.124h.424c1.016 0 2.03.25 2.698 1.044.665.791.744 1.831.579 2.834l-.001.004-.445 2.829h.008l-.613 3.866c-.134.965-.438 1.834-.983 2.526-.665.845-1.653 1.167-2.706 1.167h-.409c-1.094 0-2.18-.313-2.811-1.279l-.003-.004-.003-.005a3.383 3.383 0 0 1-.38-.817zm7.236-8.466c.283-1.719-.44-2.578-2.169-2.578h-.424c-.828 0-1.43.236-1.808.707-.377.461-.639 1.111-.786 1.949l-1.053 6.634c-.115.786-.005 1.441.33 1.965.335.513.959.77 1.871.77h.409c.828 0 1.436-.246 1.823-.739s.639-1.158.755-1.996l.409-2.578h-2.028l-.409 2.547a2.483 2.483 0 0 1-.04.189v.001a1.032 1.032 0 0 1-.148.345c-.073.115-.199.173-.377.173-.189 0-.325-.063-.409-.189-.073-.126-.094-.288-.063-.487l1.053-6.634c.009-.05.018-.097.028-.141l.006-.024c.037-.157.084-.275.139-.354.084-.105.22-.157.409-.157.367 0 .519.225.456.676l-.314 1.918h2.028l.314-1.996z"/><path fill="#272727" style="fill:var(--color2,#272727)" d="M23.651 30.596h.08l1.855-11.695h-.08l.178-1.123h6.599l-.319 1.993c-.217.358-.384.799-.5 1.322a7.942 7.942 0 0 0-.061.307l-.108.683h-1.981l-.048.301h1.828l-.715 4.352h-1.818l-.1.631h1.994l-.106.667a4.044 4.044 0 0 0-.044.577c0 .395.068.751.204 1.067l-.335 2.04h-6.701l.178-1.123zm4.706-9.635h2.279l.33-2.059h-4.323l-1.855 11.695h4.433l.346-2.106h-2.421l.456-2.877h1.823l.346-2.106h-1.823l.409-2.547z"/><path fill="#272727" style="fill:var(--color2,#272727)" d="M18.982 20.961h.266l.33-2.059h-.27l.178-1.123H26.9l-.178 1.123h-.08l-1.855 11.695h.08l-.178 1.123h-7.414l1.706-10.759zm1.464-2.06-1.855 11.695h2.028l.786-4.936h1.085l-.786 4.936h2.028l1.855-11.695h-2.028l-.707 4.464h-1.085l.707-4.464h-2.028z"/><path fill="#272727" style="fill:var(--color2,#272727)" d="M13.778 18.901h-.272l.18-1.123h7.21l-.18 1.123h-.27l-.505 3.182h-1.164l-1.525 9.636h-4.301l1.525-9.636h-1.203l.505-3.182zm2.012 2.06-1.525 9.636h2.028l1.525-9.636h1.43l.33-2.059h-4.936l-.33 2.059h1.478z"/><path fill="#272727" style="fill:var(--color2,#272727)" d="M9.212 27.741c.176-.391.308-.843.397-1.357l.566-3.6c.076-.499.087-.938.031-1.315l.585-3.69h4.301l-.178 1.123h-.272l-.33 2.059h.276L12.882 31.72H8.581l.631-3.979zm4.566-8.84H11.75L9.895 30.596h2.028l1.855-11.695z"/><path fill="#272727" style="fill:var(--color2,#272727)" d="m5.789 18.744-.157.959h-.11c-1.949 0-3.081 1.043-3.395 3.128l-.566 3.6c-.261 1.649.205 2.637 1.397 2.961.292.08.628.12 1.008.12h.11l-.204 1.242H5.9l.204-1.242h.11c1.037 0 1.818-.262 2.342-.786.524-.534.875-1.315 1.053-2.342l.566-3.6c.252-1.647-.214-2.634-1.397-2.96-.28-.077-.6-.117-.961-.121H7.66l.157-.959H5.789zm2.005 3.124a1.128 1.128 0 0 0-.449-.074h-.016l-.896 5.628c.314 0 .55-.063.707-.189.157-.136.262-.367.314-.692l.597-3.82c.052-.325.026-.561-.079-.707a.402.402 0 0 0-.18-.146zm-3.885 5.474c.116.053.271.079.466.079h.031l.896-5.628h-.016c-.314 0-.55.063-.707.189-.147.126-.246.356-.299.692l-.613 3.82c-.052.325-.031.561.063.707a.434.434 0 0 0 .179.141zm5.051-8.63c.678.164 1.286.496 1.734 1.07.387.495.582 1.081.645 1.707l-1.041 6.566a4.546 4.546 0 0 1-.941 1.456l-.004.004-.004.004c-.614.614-1.406.939-2.284 1.059l-.213 1.297H2.548l.226-1.373c-.681-.164-1.292-.496-1.741-1.071-.681-.872-.764-2.021-.582-3.177l.565-3.592.001-.004c.182-1.201.621-2.253 1.434-3.001.62-.571 1.378-.894 2.218-1.018l.167-1.02h4.303L8.96 18.71zM45.284 14.877l2.342-6.209-.99 6.209h1.996l1.855-11.695h-1.996l-2.342 6.256.99-6.256h-1.996l-1.855 11.695h1.996zM41.973 16l.178-1.123h.084L44.09 3.182h-.084l.178-1.123h1.194a3.166 3.166 0 0 1-.045-1.068l.117-.992h5.499l-.046 1.167a3.277 3.277 0 0 1-.154.892h1.054l-2.211 13.941h-7.618zm4.474-14.877c-.024.2-.024.385 0 .553.019.139.055.267.107.384a1.223 1.223 0 0 0 .208.321c.106.115.232.207.377.277.095.046.198.082.309.108.154.037.323.055.509.055h.063a2.485 2.485 0 0 0 .472-.047 1.597 1.597 0 0 0 .898-.528c.049-.059.094-.121.134-.186.157-.258.243-.57.257-.936h-1.305a.836.836 0 0 1-.007.115c-.031.238-.165.357-.402.357h-.016c-.126 0-.22-.042-.283-.126a.447.447 0 0 1-.047-.133.633.633 0 0 1 0-.213h-1.273z"/><path fill="#272727" style="fill:var(--color2,#272727)" d="M35.754 14.877 35.576 16h7.618l.178-1.123h-.084l1.855-11.695h.084l.178-1.123h-7.618l-.178 1.123h.111l-1.855 11.695h-.111zm4.988-11.695-.99 6.256 2.342-6.256h1.996l-1.855 11.695h-1.996l.99-6.209-2.342 6.209h-1.996l1.855-11.695h1.996z"/><path fill="#272727" style="fill:var(--color2,#272727)" d="M28.54 13.354c.133-.342.237-.735.312-1.18l.975-6.162c.055-.367.067-.703.037-1.008l.467-2.944h8.703l-.178 1.123h-.11l-1.855 11.695h.11l-.178 1.123H28.12l.42-2.646zm5.155-10.172H31.29l-1.855 11.695h1.776l1.116-6.995-.079 6.995h.786l2.106-6.995-1.116 6.995h1.839l1.855-11.695h-2.484l-1.698 5.942.157-5.942z"/><path fill="#272727" style="fill:var(--color2,#272727)" d="m22.428 13.705.145-.934h-.245c.001-.28.026-.565.072-.851s0-.001 0-.001l.959-6.066c.171-1.082.486-2.043 1.044-2.751l.002-.002c.662-.836 1.624-1.18 2.672-1.18h.424c1.124 0 2.185.338 2.858 1.265.401.553.594 1.191.635 1.866l-1.363 8.592c-.198.547-.469 1.035-.831 1.439-.662.738-1.539 1.093-2.526 1.093h-.424c-1.107 0-2.131-.339-2.826-1.207l-.004-.005-.004-.005a3.177 3.177 0 0 1-.588-1.25zm2.039-7.678-.959 6.068c-.147.922-.016 1.645.393 2.169.419.524 1.069.786 1.949.786h.424c1.394 0 2.253-.959 2.578-2.877l.975-6.162c.136-.912.011-1.635-.377-2.169s-1.037-.802-1.949-.802h-.424c-.796 0-1.394.252-1.792.755-.388.493-.66 1.237-.817 2.232zm1.132 6.272c-.063.44.1.66.487.66.289 0 .481-.164.576-.492l.005-.016c.009-.032.016-.065.023-.099l.01-.053 1.022-6.445c.073-.513-.084-.77-.472-.77-.199 0-.346.063-.44.189-.065.09-.118.227-.158.412l-.003.016-.007.037a3.088 3.088 0 0 0-.02.116L25.6 12.299z"/><path fill="#272727" style="fill:var(--color2,#272727)" d="M15.074 14.877h.315l.512-3.229h.189c.059-.226.112-.467.161-.722l.001-.003.001-.003c.383-1.947.826-4.579 1.328-7.905l.144-.955h7.139l-1.525 9.589h.241l-.071.447c-.046.29-.065.561-.056.812.009.267.05.511.122.733l-.621 4.01h-4.14L19.066 16h-.023l-.252 1.651h-4.145l.429-2.773zm1.855-2.106h-.393l-.582 3.757h1.871l.252-1.651h2.295l-.251 1.651h1.871l.582-3.757h-.55l1.525-9.589h-4.857c-.503 3.332-.948 5.984-1.336 7.954-.084.44-.183.849-.299 1.226-.063.21-.105.346-.126.409zm4.276-7.53-1.195 7.53h-1.163a.812.812 0 0 0 .056-.176l.007-.029.063-.189c.033-.1.097-.344.19-.73l.077-.323c.262-1.289.613-3.317 1.053-6.083h.912z"/><path fill="#272727" style="fill:var(--color2,#272727)" d="M12.39 13.83c.188-.397.337-.922.448-1.578l.299-1.949c.053-.375.042-.697-.034-.966l.382-2.41.029-.161.236-1.493c.011-.067.021-.132.029-.196l.479-3.018h4.301L16.86 12.771h-.323l-.5 3.229h-3.991l.344-2.17zm4.853-10.648h-2.028L13.36 14.877h2.028l1.855-11.695z"/><path fill="#272727" style="fill:var(--color2,#272727)" d="M7.196 7.599h.15l.314-1.996c.069-.419.078-.786.028-1.103l.387-2.44h3.867c.845 0 1.732.193 2.345.858.618.65.705 1.524.603 2.321l-.298 1.881c-.104.532-.296 1.027-.595 1.438a2.584 2.584 0 0 1 .248.746l-.769 4.849a3.702 3.702 0 0 1-.45.789c-.558.745-1.381 1.059-2.263 1.059H5.864l.367-2.316c.179-.389.304-.845.376-1.37l.409-2.578h-.159l.339-2.138zm6.27-3.914c-.304-.335-.812-.503-1.525-.503H9.033L7.178 14.877h3.584c.608 0 1.064-.204 1.368-.613.314-.409.55-1.079.707-2.012l.299-1.949c.053-.376.042-.699-.034-.968-.119-.421-.396-.711-.83-.871a1.54 1.54 0 0 0 .947-.772c.139-.253.237-.561.295-.926l.236-1.493c.126-.734.031-1.263-.283-1.588zm-1.861 1.42c-.078-.087-.201-.131-.371-.131h-.456l-.44 2.782h.503c.168 0 .293-.042.377-.126a.497.497 0 0 0 .039-.04c.076-.091.136-.24.181-.447l.252-1.556c.034-.22.005-.381-.085-.482zm-.668 4.684c-.081-.097-.223-.146-.426-.146h-.472l-.55 3.38h.582c.189 0 .33-.042.424-.126s.168-.283.22-.597l.299-1.886c.042-.262.026-.456-.047-.582a.415.415 0 0 0-.03-.043z"/><path fill="#272727" style="fill:var(--color2,#272727)" d="M4.579 12.284a2.483 2.483 0 0 1-.04.189v.001a1.053 1.053 0 0 1-.148.345c-.073.115-.199.173-.377.173-.189 0-.325-.063-.409-.189-.073-.126-.094-.288-.063-.487l1.053-6.634c.009-.05.018-.097.028-.141l.006-.024c.037-.157.084-.275.139-.354.084-.105.22-.157.409-.157.367 0 .519.225.456.676L5.319 7.6h2.028l.314-1.996c.283-1.719-.44-2.578-2.169-2.578h-.424c-.828 0-1.43.236-1.808.707-.377.461-.639 1.111-.786 1.949l-1.053 6.634c-.115.786-.005 1.441.33 1.965.335.514.959.77 1.871.77h.409c.828 0 1.436-.246 1.823-.739s.639-1.158.755-1.996l.409-2.578H4.99l-.409 2.547zm2.738 1.718a4.237 4.237 0 0 1-.583 1.003c-.665.844-1.653 1.167-2.706 1.167h-.409c-1.094 0-2.18-.313-2.811-1.279l-.003-.004-.003-.004c-.518-.809-.639-1.756-.495-2.733l.001-.007 1.057-6.658c.166-.949.481-1.802 1.019-2.462.662-.824 1.648-1.124 2.68-1.124h.424c1.016 0 2.03.25 2.698 1.044.386.458.574 1.001.633 1.571l-1.504 9.485z"/></symbol><symbol id="icon-buttocks-title" viewBox="0 0 82 32"><path fill="#ff7400" style="fill:var(--color1,#ff7400)" d="m79.28 2.996-3.71 23.39h-4.056l3.71-23.39h4.056zM65.512 29.687l.534-3.301h-7.388l3.71-23.39h4.056l-3.05 19.272h1.886l3.05-19.272h4.056l-3.05 19.178h1.132l-1.195 7.514h-3.741zM52.56 26.386l1.981-12.418-4.684 12.418h-3.993l3.71-23.39h3.993l-1.981 12.513L56.27 2.996h3.993l-3.71 23.39H52.56zM39.159 16.514l-1.572 9.872h-4.056l3.71-23.39h4.056l-1.415 8.929h2.169l1.415-8.929h4.056l-3.71 23.39h-4.056l1.572-9.872h-2.169zM20.374 22.173h.786c.042-.126.126-.398.252-.817.231-.755.43-1.572.597-2.452.775-3.94 1.666-9.243 2.672-15.908h9.715l-3.05 19.178h1.1l-1.163 7.514h-3.741l.503-3.301h-4.59l-.503 3.301h-3.741l1.163-7.514zm4.621 0h2.326L29.71 7.114h-1.823c-.88 5.533-1.582 9.589-2.106 12.167-.272 1.153-.451 1.855-.534 2.106l-.126.377a1.92 1.92 0 0 1-.126.409zM21.788 2.996l-3.71 23.39h-4.056l3.71-23.39h4.056zM8.824 21.199l.817-5.093h4.056l-.817 5.156c-.23 1.677-.734 3.008-1.509 3.993s-1.991 1.478-3.647 1.478h-.817c-1.823 0-3.07-.514-3.741-1.541-.671-1.048-.891-2.358-.66-3.93L4.612 7.995c.293-1.677.817-2.976 1.572-3.898.755-.943 1.96-1.415 3.615-1.415h.849c3.458 0 4.904 1.719 4.339 5.156l-.629 3.993h-4.056l.629-3.835c.126-.901-.178-1.352-.912-1.352-.377 0-.65.105-.817.314-.147.21-.262.555-.346 1.037L6.75 21.262c-.063.398-.021.723.126.975.168.252.44.377.817.377.356 0 .608-.115.755-.346.168-.231.293-.587.377-1.069z"/><path fill="#272727" style="fill:var(--color2,#272727)" d="m81.91.75-4.422 27.882h-8.067l1.027-6.458h-.538L73.308.751h8.603zm-2.63 2.246h-4.056l-3.71 23.39h4.056l3.71-23.39z"/><path fill="#272727" style="fill:var(--color2,#272727)" d="m62.873 31.933.534-3.301h-7.379l.356-2.246h.168l3.71-23.39h-.168L60.45.75h14.546l-3.05 19.178h.593l-1.025 6.458h.537l-.882 5.547h-8.296zm9.492-28.937h-4.056l-3.05 19.272h-1.886l3.05-19.272h-4.056l-3.71 23.39h7.388l-.534 3.301h3.741l1.195-7.514h-1.132l3.05-19.178z"/><path fill="#272727" style="fill:var(--color2,#272727)" d="m49.857 26.386 4.684-12.418-1.981 12.418h3.993l3.71-23.39H56.27l-4.684 12.513 1.981-12.513h-3.993l-3.71 23.39h3.993zm-6.623 2.246.356-2.246h.222l3.71-23.39H47.3L47.656.75h15.237l-.356 2.246h-.168l-3.71 23.39h.168l-.356 2.246H43.234z"/><path fill="#272727" style="fill:var(--color2,#272727)" d="m39.757 26.386 1.572-9.872H39.16l-1.572 9.872h-4.056l3.71-23.39h4.056l-1.415 8.929h2.169l1.415-8.929h4.056l-3.71 23.39h-4.056zM35.324.75l-3.398 21.423h.52l-1 6.458h14.283l.356-2.246h-.222l3.71-23.39h.222l.356-2.246H35.323z"/><path fill="#272727" style="fill:var(--color2,#272727)" d="M19.481 19.928c.117-.453.225-.934.322-1.444l.001-.007.001-.007c.766-3.893 1.651-9.159 2.655-15.809l.288-1.91h14.278l-3.05 19.178h.579l-1.024 6.458h.535l-.859 5.547h-8.28l.503-3.301h-.047l-.503 3.301h-8.291l.859-5.547h.629l1.024-6.458h.378zm3.974 6.458h4.59l-.503 3.301h3.741l1.163-7.514h-1.1l3.05-19.178h-9.715c-1.006 6.665-1.897 11.968-2.672 15.908-.168.88-.367 1.698-.597 2.452-.126.419-.21.692-.252.817h-.786l-1.163 7.514h3.741l.503-3.301zm2.326-7.105-.154.647c-.187.773-.313 1.259-.38 1.46l-.126.377-.013.057a1.72 1.72 0 0 1-.113.351h2.326L29.71 7.114h-1.823c-.88 5.533-1.582 9.589-2.106 12.167z"/><path fill="#272727" style="fill:var(--color2,#272727)" d="M24.418.75 21.02 22.173h-.646l-1 6.458h-7.981L12.127 24c.357-.778.608-1.691.752-2.739l.817-5.156h-.317l.678-4.276h.299l.629-3.993c.138-.837.156-1.573.055-2.206l.774-4.881h8.603zm-2.63 2.246h-4.056l-3.71 23.39h4.056l3.71-23.39z"/><path fill="#272727" style="fill:var(--color2,#272727)" d="m12.879 21.261.817-5.156H9.64l-.817 5.093a4.949 4.949 0 0 1-.081.378v.002c-.077.294-.176.524-.296.69-.147.231-.398.346-.755.346-.377 0-.65-.126-.817-.377-.147-.252-.189-.576-.126-.975L8.854 7.995c.017-.1.036-.194.056-.282l.011-.047c.075-.314.168-.55.279-.708.168-.21.44-.314.817-.314.734 0 1.037.451.912 1.352l-.629 3.836h4.056l.629-3.993c.566-3.437-.88-5.156-4.339-5.156h-.849c-1.656 0-2.861.472-3.615 1.415-.755.922-1.279 2.222-1.572 3.898L2.504 21.263c-.231 1.572-.01 2.882.66 3.93.671 1.027 1.918 1.541 3.741 1.541h.817c1.656 0 2.871-.493 3.647-1.478s1.279-2.316 1.509-3.993zm1.421 3.375a8.556 8.556 0 0 1-1.166 2.007c-1.33 1.689-3.305 2.334-5.411 2.334h-.817c-2.188 0-4.359-.625-5.621-2.558l-.006-.009-.006-.009C.237 24.783-.004 22.89.282 20.935l.002-.013L2.398 7.607c.332-1.899.962-3.604 2.038-4.924C5.76 1.035 7.732.435 9.797.435h.849c2.032 0 4.06.5 5.397 2.089.772.917 1.149 2.002 1.265 3.142l-3.009 18.97z"/></symbol><symbol id="icon-stomache-title" viewBox="0 0 157 32"><path fill="#ff7400" style="fill:var(--color1,#ff7400)" d="M144.364 6.254h9.702l-.649 4.047h-2.812l-2.997 18.94h-3.986l2.997-18.94h-2.904l.649-4.047zM142.664 6.254l-3.646 22.987h-3.986l3.646-22.987h3.986zM122.881 29.241l3.646-22.987h5.716c1.401 0 2.4.33 2.997.989.618.638.803 1.679.556 3.121l-.463 2.935c-.288 1.833-1.102 2.946-2.441 3.337 1.401.515 1.967 1.72 1.699 3.615l-.587 3.831c-.309 1.833-.772 3.151-1.39 3.955-.597.803-1.493 1.205-2.688 1.205h-7.044zm6.55-10.288h-.927l-1.081 6.643h1.143c.371 0 .649-.082.834-.247s.33-.556.433-1.174l.587-3.708c.083-.515.052-.896-.093-1.143s-.442-.371-.896-.371zm1.421-9.176h-.896l-.865 5.469h.989c.33 0 .577-.082.742-.247.185-.165.33-.484.433-.958l.494-3.059c.124-.803-.175-1.205-.896-1.205zM116.827 29.241l1.946-12.204-4.604 12.204h-3.924l3.646-22.987h3.924l-1.946 12.297 4.604-12.297h3.924l-3.646 22.987h-3.924zM99.569 19.416l-4.109 9.825h-4.202l5.5-12.544-1.514-10.443h3.924l1.112 8.867 1.39-8.867h3.986l-1.421 8.867 3.924-8.867h3.924l-4.82 10.443 1.514 12.544h-4.202l-1.02-9.763-1.545 9.763h-3.986l1.545-9.825zM81.973 29.241l1.946-12.204-4.604 12.204h-3.924l3.646-22.987h3.924l-1.946 12.297 4.604-12.297h3.924l-3.646 22.987h-3.924zm2.719-23.697h-.124c-1.03 0-1.812-.288-2.348-.865-.535-.597-.742-1.421-.618-2.472h2.503c-.041.268-.01.494.093.68.124.165.309.247.556.247h.031c.536 0 .803-.309.803-.927h2.564c-.041 1.05-.381 1.874-1.02 2.472-.618.577-1.431.865-2.441.865zM69.4 29.241l1.946-12.204-4.604 12.204h-3.924l3.646-22.987h3.924l-1.946 12.297 4.604-12.297h3.924l-3.646 22.987H69.4zM57.341 29.241l-1.112-9.949-1.576 9.949h-3.986l3.646-22.987h3.986l-1.39 8.744 3.893-8.744h4.047l-4.727 10.598 1.421 12.39h-4.202zM45.62 24.143l.803-5.005h3.986l-.803 5.067c-.227 1.648-.721 2.956-1.483 3.924s-1.957 1.452-3.584 1.452h-.803c-1.792 0-3.018-.505-3.677-1.514-.659-1.03-.875-2.317-.649-3.862l2.07-13.038c.288-1.648.803-2.925 1.545-3.831.742-.927 1.926-1.39 3.553-1.39h.834c3.399 0 4.82 1.689 4.264 5.067l-.618 3.924h-3.986l.618-3.769c.124-.886-.175-1.329-.896-1.329-.371 0-.639.103-.803.309-.144.206-.257.546-.34 1.02l-2.07 13.038c-.062.391-.021.711.124.958.165.247.433.371.803.371.35 0 .597-.113.742-.34.165-.227.288-.577.371-1.05zM33.812 29.241l.185-3.862h-2.441l-.958 3.862h-3.615L33.44 6.254h4.727l-.525 22.987h-3.831zm-1.236-7.816h1.607l.34-7.755-1.946 7.755zM21.583 29.241l2.997-18.94h-1.576c-1.174 7.58-2.049 12.544-2.626 14.892-.35 1.442-.855 2.482-1.514 3.121-.659.618-1.71.927-3.151.927h-1.02l.649-4.171h.247c.391 0 .68-.113.865-.34s.34-.628.463-1.205c.927-4.717 1.916-10.474 2.966-17.271h9.331l-3.646 22.987h-3.986zM6.954 29.241H2.968L6.614 6.254h9.825l-3.646 22.987H8.807l2.997-18.94H9.95l-2.997 18.94z"/><path fill="#272727" style="fill:var(--color2,#272727)" d="M142.664 6.254h-.535l.354-2.207h14.172l-1.356 8.461h-2.808l-2.997 18.94h-8.455l2.997-18.94h-2.364l.992-6.254zm3.955 4.048-2.997 18.94h3.986l2.997-18.94h2.812l.649-4.047h-9.702l-.649 4.047h2.904z"/><path fill="#272727" style="fill:var(--color2,#272727)" d="M133.124 27.182c.37-.78.663-1.813.879-3.101l.587-3.831c.104-.737.082-1.37-.066-1.898l.751-4.737c.021-.103.04-.208.056-.316l.463-2.935a7.33 7.33 0 0 0 .057-.385l.941-5.932h8.455l-.35 2.207h-.535l-.649 4.047h.542l-3.354 21.146h-8.455l.676-4.266zm9.54-20.928h-3.986l-3.646 22.987h3.986l3.646-22.987z"/><path fill="#272727" style="fill:var(--color2,#272727)" d="M120.647 29.241h.104l3.646-22.987h-.104l.35-2.207h7.601c1.66 0 3.404.379 4.608 1.687 1.215 1.277 1.385 2.996 1.186 4.562l-.53 3.344v.001l-.056.351c-.205 1.045-.582 2.019-1.17 2.826a5.123 5.123 0 0 1 .489 1.467l-1.512 9.531a7.26 7.26 0 0 1-.884 1.551c-1.097 1.465-2.714 2.08-4.449 2.08h-9.629l.35-2.207zM135.24 7.243c-.597-.659-1.596-.989-2.996-.989h-5.716l-3.646 22.987h7.044c1.195 0 2.091-.402 2.689-1.205.617-.803 1.081-2.122 1.39-3.955l.587-3.831c.104-.739.082-1.374-.068-1.903-.234-.827-.777-1.398-1.631-1.712.815-.238 1.436-.744 1.861-1.517.274-.496.467-1.103.579-1.82l.463-2.935c.248-1.442.062-2.482-.556-3.121zm-3.659 2.791c-.153-.171-.396-.257-.728-.257h-.897l-.865 5.469h.988c.33 0 .577-.082.742-.247a.821.821 0 0 0 .076-.079c.15-.179.268-.472.356-.879l.494-3.059c.067-.432.011-.748-.167-.948zm-1.312 9.206c-.16-.192-.439-.287-.838-.287h-.926l-1.082 6.643h1.144c.371 0 .648-.082.834-.247s.33-.556.433-1.174l.588-3.708c.082-.515.051-.896-.093-1.143a.833.833 0 0 0-.058-.084z"/><path fill="#272727" style="fill:var(--color2,#272727)" d="m108.012 29.241-.35 2.207h14.974l.35-2.207h-.104l3.646-22.987h.104l.35-2.207h-14.974l-.35 2.207h.424l-.647 1.4-2.99 18.851.33 2.735h-.764zm9.804-22.987-1.946 12.297 4.604-12.297h3.924l-3.646 22.987h-3.924l1.946-12.204-4.604 12.204h-3.924l3.646-22.987h3.924z"/><path fill="#272727" style="fill:var(--color2,#272727)" d="m99.569 19.416-4.109 9.825h-4.202l5.5-12.544-1.514-10.443h3.924l1.112 8.867 1.39-8.867h3.986l-1.421 8.867 3.924-8.867h3.924l-4.82 10.443 1.514 12.544h-4.202l-1.02-9.763-1.545 9.763h-3.986l1.545-9.825zm-5.087-3.027L87.88 31.448h23.385l-.266-2.207h-.753l.427-2.694-1.145-9.493 4.039-8.752.325-2.047h.62l1.018-2.207H92.692l1.789 12.342zM79.316 29.241l4.604-12.204-1.946 12.204h3.924l3.646-22.987H85.62l-4.604 12.297 1.946-12.297h-3.924l-3.646 22.987h3.924zm-6.508 2.207.35-2.207h.166L76.97 6.254h-.166l.35-2.207h2.345a6.212 6.212 0 0 1-.088-2.098L79.64 0h10.808l-.09 2.293a6.533 6.533 0 0 1-.301 1.754h2.071l-4.346 27.401H72.808zm8.794-29.241a4.282 4.282 0 0 0 0 1.086c.039.273.109.525.21.754a2.404 2.404 0 0 0 .408.631c.21.226.457.407.742.544.186.09.389.161.607.213.302.072.635.108.999.108h.124a4.627 4.627 0 0 0 .927-.093 3.123 3.123 0 0 0 1.765-1.038c.097-.115.185-.237.263-.366.309-.507.477-1.121.505-1.841h-2.564c0 .081-.004.156-.013.226-.061.467-.324.701-.79.701h-.031c-.247 0-.433-.082-.556-.247a.862.862 0 0 1-.093-.261 1.278 1.278 0 0 1 0-.419h-2.503z"/><path fill="#272727" style="fill:var(--color2,#272727)" d="m60.584 29.241-.35 2.207h14.974l.35-2.207h-.166l3.646-22.987h.166l.35-2.207H64.58l-.35 2.207h.619l-.961 2.154-2.748 17.324.403 3.509h-.959zm9.804-22.987-1.946 12.297 4.604-12.297h3.924l-3.646 22.987H69.4l1.946-12.204-4.604 12.204h-3.924l3.646-22.987h3.924z"/><path fill="#272727" style="fill:var(--color2,#272727)" d="m50.702 14.936-.666 4.202h.373l-.803 5.067c-.154 1.118-.431 2.08-.831 2.885l-.691 4.358h15.935l-.253-2.207h-.946l.549-3.461-.984-8.581 3.639-8.158.442-2.787h.801l.984-2.207H52.43l-.732 4.615c.135.662.127 1.446-.021 2.35l-.618 3.924h-.356zm7.597-8.682-1.39 8.744 3.893-8.744h4.047l-4.727 10.598 1.421 12.39h-4.202l-1.112-9.949-1.576 9.949h-3.986l3.646-22.987h3.986z"/><path fill="#272727" style="fill:var(--color2,#272727)" d="m37.666 28.238.19-8.323 1.447-9.111.003-.017c.327-1.866.945-3.542 2.003-4.839 1.301-1.619 3.239-2.209 5.268-2.209h.834c1.997 0 3.99.491 5.303 2.053.708.841 1.078 1.826 1.217 2.865l-3.028 19.091a8.296 8.296 0 0 1-1.048 1.747c-1.307 1.66-3.248 2.294-5.318 2.294h-.803c-2.15 0-4.284-.614-5.524-2.514l-.006-.009-.005-.009a6.742 6.742 0 0 1-.534-1.019zm14.01-17.226c.556-3.378-.865-5.067-4.264-5.067h-.834c-1.627 0-2.812.463-3.553 1.39-.742.906-1.256 2.183-1.545 3.831l-2.07 13.038c-.227 1.545-.01 2.832.649 3.862.659 1.009 1.885 1.514 3.677 1.514h.803c1.627 0 2.822-.484 3.584-1.452s1.256-2.276 1.483-3.924l.803-5.067h-3.986l-.803 5.005c-.023.134-.05.257-.08.371v.002c-.076.289-.173.515-.291.678-.144.227-.391.34-.742.34-.371 0-.639-.124-.803-.371-.144-.247-.185-.566-.124-.958l2.07-13.038c.017-.098.035-.19.055-.277l.011-.047c.074-.308.165-.54.274-.696.165-.206.433-.309.803-.309.721 0 1.02.443.896 1.329l-.618 3.769h3.986l.618-3.924z"/><path fill="#272727" style="fill:var(--color2,#272727)" d="m24.692 29.241-.62 2.207h15.729l.084-3.678c-.522-.977-.68-2.165-.475-3.565l.65-4.092.367-16.066H31.77l-5.063 18.025-1.137 7.169h-.877zm9.12 0 .185-3.862h-2.441l-.958 3.862h-3.615L33.44 6.254h4.727l-.525 22.987h-3.831zm-1.236-7.816h1.607l.34-7.755-1.946 7.755z"/><path fill="#272727" style="fill:var(--color2,#272727)" d="M12.46 29.241h.334l1.012-6.378h.993c.906-4.634 1.874-10.281 2.904-16.946l.289-1.87h13.807l-2.934 18.498-1.881 6.696h.819l-.35 2.207h-8.454l.105-.663c-1.036.495-2.224.663-3.392.663h-3.596l.343-2.207zm4.458-5.715c-.124.577-.278.978-.463 1.205s-.474.34-.865.34h-.247l-.649 4.171h1.02c.447 0 .856-.03 1.228-.089.828-.132 1.469-.411 1.924-.838.303-.293.573-.672.811-1.135.28-.545.514-1.207.703-1.986.577-2.348 1.452-7.312 2.626-14.892h1.576l-2.997 18.94h3.986l3.646-22.987h-9.331c-1.05 6.797-2.039 12.554-2.966 17.271z"/><path fill="#272727" style="fill:var(--color2,#272727)" d="m6.954 29.241 2.997-18.94h1.854l-2.997 18.94h3.986L16.44 6.254H6.615L2.969 29.241h3.986zm-6.57 2.207L4.73 4.047h14.294l-3.334 21.02a1.678 1.678 0 0 1-.101.003h-.247l-.649 4.171h.335l-.35 2.207H.384z"/></symbol><symbol id="icon-star" viewBox="0 0 34 32"><path d="m16.842 0 3.781 11.638h12.236L22.96 18.83l3.781 11.638-9.9-7.192-9.9 7.192 3.781-11.638-9.9-7.192h12.236L16.839 0z"/></symbol><symbol id="icon-chat" viewBox="0 0 32 32"><path fill="#ff7400" style="fill:var(--color1,#ff7400)" d="M5.333 2.667h21.333a2.668 2.668 0 0 1 2.667 2.667v17.333a2.668 2.668 0 0 1-2.667 2.667h-8.96l-6.36 3.813a1.335 1.335 0 0 1-.68.187 1.334 1.334 0 0 1-1.15-.661 1.325 1.325 0 0 1-.183-.672v-2.667h-4a2.668 2.668 0 0 1-2.667-2.667V5.334a2.668 2.668 0 0 1 2.667-2.667z"/><path fill="#fff" style="fill:var(--color2,#fff)" d="M16 17.333a1.997 1.997 0 0 1 1.848 1.235 2.003 2.003 0 0 1-.433 2.179 1.997 1.997 0 0 1-2.179.433 1.997 1.997 0 0 1-1.235-1.848 2 2 0 0 1 2-2zm0-2.666a1.335 1.335 0 0 0 1.334-1.334v-4a1.335 1.335 0 0 0-2.277-.943c-.25.251-.391.589-.391.943v4A1.335 1.335 0 0 0 16 14.667z"/></symbol><symbol id="icon-lift" viewBox="0 0 33 32"><path fill="#ff7400" style="fill:var(--color1,#ff7400)" d="M25.714 24a1.335 1.335 0 0 1-1.334-1.334v-6.667h-4a1.335 1.335 0 0 1-.943-2.277c.251-.25.589-.391.943-.391h4V3.998a1.335 1.335 0 0 1 2.277-.943c.25.25.391.589.391.943v18.667a1.335 1.335 0 0 1-1.334 1.334zM7.048 24a1.335 1.335 0 0 1-1.334-1.334V3.999a1.335 1.335 0 0 1 2.277-.943c.25.251.391.589.391.943v9.333h4a1.335 1.335 0 0 1 .943 2.277c-.251.25-.589.391-.943.391h-4v6.667a1.335 1.335 0 0 1-1.334 1.334z"/><path fill="#ff7400" style="fill:var(--color1,#ff7400)" d="M27.048 22.667H5.715a2.668 2.668 0 0 0-2.667 2.667v2.667a1.335 1.335 0 0 0 1.334 1.334h24a1.335 1.335 0 0 0 1.334-1.334v-2.667a2.668 2.668 0 0 0-2.667-2.667z"/></symbol><symbol id="icon-unicycle" viewBox="0 0 33 32"><path fill="#ff7400" style="fill:var(--color1,#ff7400)" d="M16.381 29.333a8.003 8.003 0 0 1-7.391-4.938 8.007 8.007 0 0 1 1.734-8.718c1.119-1.119 2.544-1.881 4.096-2.189s3.16-.15 4.622.455a7.998 7.998 0 0 1 2.595 13.048 8 8 0 0 1-5.657 2.343zm0-13.333a5.333 5.333 0 1 0 4.436 8.298 5.334 5.334 0 0 0-4.434-8.296z"/><path fill="#ff7400" style="fill:var(--color1,#ff7400)" d="M20.381 5.333h-2.12a3.16 3.16 0 0 1-2.267-.947 5.892 5.892 0 0 0-4.16-1.72h-.787a1.335 1.335 0 0 0-.943 2.277c.251.25.589.391.943.391h.787a3.16 3.16 0 0 1 2.267.947c.294.279.611.533.947.76v14.293a1.335 1.335 0 0 0 2.277.943c.25-.25.391-.589.391-.943V8.001H20.383a1.334 1.334 0 0 0 0-2.668zM17.088 29.333h-1.413A26.656 26.656 0 0 1 3.782 26.52a1.337 1.337 0 0 1-.503-1.744 1.336 1.336 0 0 1 1.703-.629 24.193 24.193 0 0 0 10.667 2.52h1.413a24.196 24.196 0 0 0 10.667-2.52 1.328 1.328 0 0 1 1.538.115 1.325 1.325 0 0 1 .4 1.489 1.336 1.336 0 0 1-.738.768 26.654 26.654 0 0 1-11.84 2.813z"/></symbol><symbol id="icon-user" viewBox="0 0 33 32"><path fill="#fff" style="fill:var(--color2,#fff)" d="M16.333 29.333c7.364 0 13.333-5.97 13.333-13.333S23.696 2.667 16.333 2.667C8.969 2.667 3 8.637 3 16s5.97 13.333 13.333 13.333z"/><path fill="#ff7400" style="fill:var(--color1,#ff7400)" d="M26.16 23.84a10.667 10.667 0 0 0-4.573-5.107 6.67 6.67 0 0 0-1.72-9.758 6.667 6.667 0 0 0-8.786 9.758 10.667 10.667 0 0 0-4.573 5.107 1.336 1.336 0 0 0 .266 1.493 13.33 13.33 0 0 0 14.618 3.041 13.325 13.325 0 0 0 4.369-2.908l.12-.12a1.331 1.331 0 0 0 .28-1.507z"/></symbol><symbol id="icon-user1" viewBox="0 0 33 32"><path fill="#ff7400" style="fill:var(--color1,#ff7400)" d="M28.381 26.667a2.668 2.668 0 0 1-2.667 2.667H7.047a2.668 2.668 0 0 1-2.667-2.667 8 8 0 0 1 8-8h8a8 8 0 0 1 8 8zM16.381 16c1.319 0 2.607-.391 3.704-1.123s1.951-1.774 2.455-2.992A6.666 6.666 0 1 0 16.381 16z"/></symbol><symbol id="icon-user3" viewBox="0 0 32 32"><path fill="#ff7400" style="fill:var(--color1,#ff7400)" d="M24 12a9.33 9.33 0 0 1-1.467 5c-1.16 1.213-7.08 7.267-7.08 7.267a2.667 2.667 0 0 0-.787 1.88v3.187c-8.307 0-11.293-2.747-11.613-3.053a1.337 1.337 0 0 1-.387-.947v-1.333a8.001 8.001 0 0 1 4.133-7 9.341 9.341 0 0 1-.869-8.309 9.328 9.328 0 0 1 6.131-5.676 9.341 9.341 0 0 1 10.962 4.805 9.337 9.337 0 0 1 .977 4.18z"/><path fill="#f6921e" style="fill:var(--color3,#f6921e)" d="m27.08 16.387 1.867 1.867a1.333 1.333 0 0 1 0 1.866l-8.813 8.827a1.4 1.4 0 0 1-.947.387h-1.853A1.335 1.335 0 0 1 16 28v-1.853a1.4 1.4 0 0 1 .387-.947l8.827-8.813a1.333 1.333 0 0 1 1.866 0z"/></symbol></defs></svg>