<svg aria-hidden="true" style="width:0;height:0;position:absolute;overflow:hidden" xmlns="http://www.w3.org/2000/svg"><defs><symbol id="icon-menu" viewBox="0 0 32 32"><path d="M6.4 11.733V9.6h19.2v2.133H6.4zm0 5.334h19.2v-2.133H6.4v2.133zm0 5.333h19.2v-2.133H6.4V22.4z"/></symbol><symbol id="icon-close" viewBox="0 0 32 32"><path d="M23.733 10.304 22.229 8.8l-5.963 5.963L10.303 8.8l-1.504 1.504 5.963 5.963-5.963 5.963 1.504 1.504 5.963-5.963 5.963 5.963 1.504-1.504-5.963-5.963 5.963-5.963z"/></symbol><symbol id="icon-envelope" viewBox="0 0 32 32"><path fill="#ff7400" style="fill:var(--color1,#ff7400)" d="M26.667 5.333H5.334A2.667 2.667 0 0 0 2.667 8v16a2.667 2.667 0 0 0 2.667 2.667h21.333A2.667 2.667 0 0 0 29.334 24V8a2.667 2.667 0 0 0-2.667-2.667z"/><path fill="#272727" style="fill:var(--color2,#272727)" d="M15.902 17.333a2.821 2.821 0 0 1-1.837-.693L5.793 9.553c-.268-.271-.431-.639-.457-1.033s.086-.783.315-1.092c.229-.309.558-.514.921-.576s.735.026 1.042.244l8.287 7.087 8.287-7.087c.148-.15.323-.265.515-.338a1.39 1.39 0 0 1 1.179.09c.18.102.338.242.465.413s.219.368.271.579.062.431.031.646c-.032.215-.105.421-.215.605s-.254.341-.423.461l-8.272 7.087a2.821 2.821 0 0 1-1.837.693z"/></symbol><symbol id="icon-phone" viewBox="0 0 32 32"><path fill="#ff7400" style="fill:var(--color1,#ff7400)" d="M26.92 17.334a13.336 13.336 0 0 1-4.573-1.213 2.664 2.664 0 0 0-3.414 1.106l-.68 1.133a16.93 16.93 0 0 1-4.587-4.6l1.147-.653a2.667 2.667 0 0 0 1.106-3.414 13.334 13.334 0 0 1-1.253-4.613A2.67 2.67 0 0 0 12 2.667H6.84A4.009 4.009 0 0 0 3.813 4a4.182 4.182 0 0 0-.947 3.24 25.335 25.335 0 0 0 21.907 21.893c.186.013.374.013.56 0A4 4 0 0 0 28 28.16a4.005 4.005 0 0 0 1.333-3.013V20a2.668 2.668 0 0 0-2.413-2.666z"/></symbol><symbol id="icon-person" viewBox="0 0 32 32"><path d="M16 16c2.947 0 5.333-2.387 5.333-5.333S18.946 5.334 16 5.334c-2.947 0-5.333 2.387-5.333 5.333S13.054 16 16 16zm0 2.667c-3.56 0-10.667 1.787-10.667 5.333v1.333c0 .733.6 1.333 1.333 1.333h18.667c.733 0 1.333-.6 1.333-1.333V24c0-3.547-7.107-5.333-10.667-5.333z"/></symbol><symbol id="icon-mark" viewBox="0 0 32 32"><path d="M0 0h32v32H0V0z"/></symbol><symbol id="icon-instagram" viewBox="0 0 32 32"><path fill="none" stroke="#ff7400" style="stroke:var(--color1,#ff7400)" stroke-linejoin="round" stroke-linecap="round" stroke-width="3.333" d="M22.667 2.667H9.334a6.667 6.667 0 0 0-6.667 6.667v13.333a6.667 6.667 0 0 0 6.667 6.667h13.333a6.667 6.667 0 0 0 6.667-6.667V9.334a6.667 6.667 0 0 0-6.667-6.667z"/><path fill="none" stroke="#ff7400" style="stroke:var(--color1,#ff7400)" stroke-linejoin="round" stroke-linecap="round" stroke-width="3.333" d="M21.334 15.16a5.338 5.338 0 0 1-6.123 6.049 5.334 5.334 0 0 1-3.916-7.663c.504-1.002 1.312-1.82 2.308-2.336s2.129-.706 3.239-.542a5.334 5.334 0 0 1 4.493 4.493zM23.333 8.667h.013"/></symbol><symbol id="icon-scroll_up" viewBox="0 0 32 32"><path d="M4.5 19.6 15.7 8.367c.133-.133.278-.228.433-.283s.322-.084.5-.084.345.028.5.084.3.149.433.283L28.799 19.6c.311.311.467.7.467 1.167s-.167.867-.5 1.2c-.333.333-.722.5-1.167.5s-.833-.167-1.167-.5l-9.8-9.8-9.8 9.8c-.311.311-.694.467-1.149.467s-.851-.167-1.184-.5-.5-.722-.5-1.167c0-.444.167-.833.5-1.167z"/></symbol><symbol id="icon-chevrons-right" viewBox="0 0 32 32"><path fill="none" stroke="#f87a11" style="stroke:var(--color1,#f87a11)" stroke-linejoin="round" stroke-linecap="round" stroke-width="3.56" d="M17.333 22.667 24 16l-6.667-6.667M8 22.667 14.667 16 8 9.333"/></symbol><symbol id="icon-cd" viewBox="0 0 32 32"><path fill="#272727" style="fill:var(--color1,#272727)" d="M16 29.333c7.364 0 13.333-5.97 13.333-13.333S23.363 2.667 16 2.667C8.636 2.667 2.667 8.637 2.667 16S8.637 29.333 16 29.333z"/><path fill="#f87a11" style="fill:var(--color2,#f87a11)" d="M16 20a4 4 0 1 0 0-8 4 4 0 0 0 0 8z"/></symbol><symbol id="icon-check_blue" viewBox="0 0 32 32"><path fill="#272727" style="fill:var(--color2,#272727)" d="M29.333 12.321v14.347a2.67 2.67 0 0 1-2.667 2.667H5.333a2.668 2.668 0 0 1-2.667-2.667V5.335a2.668 2.668 0 0 1 2.667-2.667h19.68a1.329 1.329 0 0 1 1.229.828 1.338 1.338 0 0 1-.295 1.452L16 14.895l-3.453-3.44a2.665 2.665 0 0 0-4.094.404c-.293.436-.451.95-.453 1.476a2.67 2.67 0 0 0 .787 1.893l5.333 5.333a2.666 2.666 0 0 0 3.774 0l9.173-9.173a1.33 1.33 0 0 1 2.036.202c.147.216.227.47.231.731z"/><path fill="#6fc7b8" style="fill:var(--color4,#6fc7b8)" d="M16 20a1.337 1.337 0 0 1-.947-.387L9.72 14.28a1.34 1.34 0 0 1 1.894-1.894l4.387 4.4L27.054 5.719a1.34 1.34 0 0 1 1.894 1.894l-12 12a1.327 1.327 0 0 1-.947.387z"/></symbol><symbol id="icon-check_pink" viewBox="0 0 32 32"><path fill="#272727" style="fill:var(--color2,#272727)" d="M29.333 12.321v14.347a2.67 2.67 0 0 1-2.667 2.667H5.333a2.668 2.668 0 0 1-2.667-2.667V5.335a2.668 2.668 0 0 1 2.667-2.667h19.68a1.329 1.329 0 0 1 1.229.828 1.338 1.338 0 0 1-.295 1.452L16 14.895l-3.453-3.44a2.665 2.665 0 0 0-4.094.404c-.293.436-.451.95-.453 1.476a2.67 2.67 0 0 0 .787 1.893l5.333 5.333a2.666 2.666 0 0 0 3.774 0l9.173-9.173a1.33 1.33 0 0 1 2.036.202c.147.216.227.47.231.731z"/><path fill="#f18ea3" style="fill:var(--color3,#f18ea3)" d="M16 20a1.337 1.337 0 0 1-.947-.387L9.72 14.28a1.34 1.34 0 0 1 1.894-1.894l4.387 4.4L27.054 5.719a1.34 1.34 0 0 1 1.894 1.894l-12 12a1.327 1.327 0 0 1-.947.387z"/></symbol><symbol id="icon-check_orange" viewBox="0 0 32 32"><path fill="#272727" style="fill:var(--color1,#272727)" d="M29.333 12.32v14.347a2.668 2.668 0 0 1-2.667 2.667H5.333a2.668 2.668 0 0 1-2.667-2.667V5.334a2.668 2.668 0 0 1 2.667-2.667h19.68a1.329 1.329 0 0 1 1.229.828 1.338 1.338 0 0 1-.295 1.452L16 14.894l-3.453-3.44a2.665 2.665 0 0 0-4.094.404c-.293.436-.451.95-.453 1.476a2.67 2.67 0 0 0 .787 1.893l5.333 5.333a2.666 2.666 0 0 0 3.774 0l9.173-9.173a1.33 1.33 0 0 1 2.036.202c.147.216.227.47.231.731z"/><path fill="#f87a11" style="fill:var(--color2,#f87a11)" d="M16 20a1.337 1.337 0 0 1-.947-.387L9.72 14.28a1.34 1.34 0 0 1 1.894-1.894l4.387 4.4L27.054 5.719a1.34 1.34 0 0 1 1.894 1.894l-12 12a1.327 1.327 0 0 1-.947.387z"/></symbol><symbol id="icon-infinite" viewBox="0 0 32 32"><path fill="#f87a11" style="fill:var(--color2,#f87a11)" d="M22.307 8.973a6.224 6.224 0 0 1-1.853 4.453l-2.573 2.573 2.573 2.573a6.303 6.303 0 0 1 1.853 4.46 6.297 6.297 0 0 1-1.853 4.46 6.307 6.307 0 1 1-8.906-8.92l2.573-2.573-2.573-2.573a6.307 6.307 0 0 1 8.907-8.92 6.272 6.272 0 0 1 1.853 4.467zM16 14.12l2.573-2.573a3.734 3.734 0 0 0 0-5.146 3.642 3.642 0 0 0-5.146 0 3.734 3.734 0 0 0 0 5.146L16 14.12zm-3.64 8.907a3.64 3.64 0 0 0 6.214 2.573 3.734 3.734 0 0 0 0-5.146l-2.573-2.573-2.573 2.573a3.655 3.655 0 0 0-1.067 2.573z"/></symbol><symbol id="icon-apple-fruit" viewBox="0 0 32 32"><path fill="#f87a11" style="fill:var(--color2,#f87a11)" d="M16 10.667a1.335 1.335 0 0 1-1.334-1.334 8.09 8.09 0 0 1 3.266-6.44 1.335 1.335 0 0 1 1.948 1.379 1.336 1.336 0 0 1-.481.834 5.506 5.506 0 0 0-2.067 4.227 1.335 1.335 0 0 1-1.334 1.334z"/><path fill="#f87a11" style="fill:var(--color2,#f87a11)" d="M23.84 7.2a7.243 7.243 0 0 0-6.093.294A5.336 5.336 0 0 1 16 8.001a5.44 5.44 0 0 1-1.76-.507 7.237 7.237 0 0 0-6.093-.293c-3.213 1.333-4.573 4.533-4 9.453.64 6.147 3.547 12.68 7.6 12.68a5.068 5.068 0 0 0 2.667-.813 2.829 2.829 0 0 1 1.587-.52 2.786 2.786 0 0 1 1.547.507c.796.512 1.72.794 2.667.813 4 0 6.96-6.533 7.627-12.68s-1.787-8.507-4-9.44z"/></symbol><symbol id="icon-battery-charge" viewBox="0 0 32 32"><path fill="#fff" style="fill:var(--color3,#fff)" d="M18.667 2.667h-5.333c-.736 0-1.333.597-1.333 1.333v2.667c0 .736.597 1.333 1.333 1.333h5.333C19.403 8 20 7.403 20 6.667V4c0-.736-.597-1.333-1.333-1.333z"/><path fill="#f87a11" style="fill:var(--color2,#f87a11)" d="M21.333 5.333H10.666A2.667 2.667 0 0 0 7.999 8v18.667a2.667 2.667 0 0 0 2.667 2.667h10.667A2.667 2.667 0 0 0 24 26.667V8a2.667 2.667 0 0 0-2.667-2.667z"/><path fill="#fff" style="fill:var(--color3,#fff)" d="M16 21.333a1.23 1.23 0 0 1-.6-.147 1.333 1.333 0 0 1-.587-1.786l.36-.733h-.507a1.33 1.33 0 0 1-1.328-1.278c-.01-.227.039-.453.141-.656l1.333-2.667a1.333 1.333 0 0 1 2.373 1.2l-.36.733h.507a1.33 1.33 0 0 1 1.328 1.278c.01.227-.039.453-.141.656L17.186 20.6a1.327 1.327 0 0 1-1.187.733z"/></symbol><symbol id="icon-bike-2" viewBox="0 0 32 32"><path fill="#fff" style="fill:var(--color3,#fff)" d="M24 26.667a5.333 5.333 0 1 1-.004-10.662 5.333 5.333 0 0 1 .006 10.66zm0-8a2.664 2.664 0 0 0-2.615 3.187 2.664 2.664 0 0 0 2.095 2.095 2.666 2.666 0 1 0 .52-5.282zm-16 8a5.333 5.333 0 1 1-.002-10.662 5.333 5.333 0 0 1 .003 10.66zm0-8a2.67 2.67 0 0 0-2.464 1.646 2.665 2.665 0 0 0 3.484 3.484 2.667 2.667 0 0 0-1.021-5.13z"/><path fill="#f87a11" style="fill:var(--color2,#f87a11)" d="M22.84 7.52a2.668 2.668 0 0 0-2.666-2.186h-1.507a1.335 1.335 0 0 0-.943 2.277c.25.25.589.391.943.391h1.56l.4 2.24-4.52 4.8-.72-3.56a2.665 2.665 0 0 0-2.614-2.147h-2.107a1.335 1.335 0 0 0-.943 2.277c.251.25.589.391.943.391h2.107l1.08 5.413-2.427 2.587H7.999a1.334 1.334 0 0 0 0 2.668h4a1.333 1.333 0 0 0 .973-.413l8.253-8.747 1.467 8a1.336 1.336 0 0 0 1.307 1.16.743.743 0 0 0 .24 0 1.336 1.336 0 0 0 1.067-1.546l-2.467-13.6z"/></symbol><symbol id="icon-caution" viewBox="0 0 33 32"><path fill="#f87a11" style="fill:var(--color2,#f87a11)" d="M21.306 3.547a2.674 2.674 0 0 0-1.974-.88h-5.333a2.669 2.669 0 0 0-2.545 1.831 2.678 2.678 0 0 0-.121 1.103L12.4 16.268a2.662 2.662 0 0 0 2.666 2.4h3.2a2.668 2.668 0 0 0 2.666-2.4l1.067-10.667c.035-.372-.009-.747-.129-1.1s-.312-.678-.565-.953zM16.667 29.333a4 4 0 1 0 0-8 4 4 0 0 0 0 8z"/></symbol><symbol id="icon-user" viewBox="0 0 33 32"><path fill="#f87a11" style="fill:var(--color2,#f87a11)" d="M28.667 26.667A2.67 2.67 0 0 1 26 29.334H7.333a2.668 2.668 0 0 1-2.667-2.667 8 8 0 0 1 8-8h8a8 8 0 0 1 8 8zM16.667 16a6.665 6.665 0 0 0 6.538-7.968c-.257-1.293-.892-2.481-1.825-3.413s-2.12-1.567-3.413-1.825a6.674 6.674 0 0 0-6.844 2.834 6.662 6.662 0 0 0 .829 8.418 6.67 6.67 0 0 0 4.714 1.953z"/></symbol><symbol id="icon-untitled" viewBox="0 0 44 32"><path fill="#f87a11" style="fill:var(--color1,#f87a11)" opacity=".1" d="m.256 31.659 2.901-14.677C5.12 7.339 12.714 1.281 22.528.342l-1.877 9.301c-4.181.256-7.168 2.901-7.936 6.656h7.253l-3.072 15.36H.256zm21.077 0 2.901-14.677C26.197 7.339 33.791 1.281 43.605.342l-1.877 9.301c-4.181.256-7.168 2.901-7.936 6.656h7.253l-3.072 15.36h-16.64z"/></symbol><symbol id="icon-fizkylt" viewBox="0 0 95 32"><path fill="#ff7500" style="fill:var(--color4,#ff7500)" d="M22.951 24h-3.653l2.767-15.925h3.642L22.951 24zm2.875 0 .394-2.188 7.848-10.773h-6.12l.525-2.964h10.412l-.372 2.144-7.803 10.828h5.933L36.129 24H25.826zM41.39 8.075h3.653l-1.131 6.51 1.109-1.61 3.106-4.9h4.692l-5.536 7.112L49.822 24h-4.189l-1.222-5.563-1.435 1.533-.7 4.029h-3.631L41.39 8.074zm17.575-6.518L57.301.075l-3.806.011-.416.522-.26-.533h-4.692l-2.109 1.16-.976-1.16h-3.653l-1.465 1.234L38.885.075H28.473l-1.622 1.36-1.145-1.36h-3.642L20.56 1.341 19.495.075h-8.837L2.774 6.716.029 22.641 7.913 32h3.631l4.541-3.82L19.298 32h3.653l1.688-1.421L25.827 32H36.13l1.472-1.238L38.645 32h3.631l1.641-1.38L45.634 32h4.189l2.329-3.095L54.755 32h3.73l3.553-3 2.527 3h8.859l1.921-1.616L76.704 32h3.664l7.882-6.63 1.611-9.276 4.382-3.688.514-2.964L86.875.075H75.828l-2.854 2.393L70.961.075h-3.653l-1.321 1.113L65.34.075h-4.058l-2.319 1.482zm-5.447 6.529 3.806-.011.777 6.88 3.183-6.88h4.058l-5.917 10.391L58.484 24h-3.73l1.028-5.906-2.264-10.008zM64.564 24l2.745-15.925h3.653l-2.254 12.972h5.229L73.423 24h-8.859zm12.14 0 2.252-12.961h-3.652l.525-2.964h11.047l-.514 2.964H82.62L80.368 24h-3.664zM18.981 11.039h-5.185l-.637 3.664h4.75l-.514 2.953h-4.749L11.544 24H7.913l2.745-15.925h8.837l-.514 2.964z"/></symbol><symbol id="icon-Group_43" viewBox="0 0 211 32"><path fill="#ff7400" style="fill:var(--color6,#ff7400)" d="m16 0 3.592 11.056h11.625l-9.405 6.833 3.592 11.056-9.405-6.833-9.405 6.833 3.592-11.056-9.405-6.833h11.625L15.998 0zM60.8 0l3.592 11.056h11.625l-9.404 6.833 3.592 11.056-9.404-6.833-9.404 6.833 3.592-11.056-9.404-6.833H57.21L60.802 0zM105.6 0l3.592 11.056h11.625l-9.404 6.833 3.592 11.056-9.404-6.833-9.404 6.833 3.592-11.056-9.404-6.833h11.625L105.602 0zM150.4 0l3.592 11.056h11.625l-9.404 6.833 3.592 11.056-9.404-6.833-9.404 6.833 3.592-11.056-9.404-6.833h11.625L150.402 0zM195.2 0l3.592 11.056h11.625l-9.404 6.833 3.592 11.056-9.404-6.833-9.404 6.833 3.592-11.056-9.404-6.833h11.625L195.202 0z"/></symbol><symbol id="icon-Vector" viewBox="0 0 42 32"><path fill="#fff" stroke="#fff" stroke-width=".64" d="m6.263 15.205-.22-.21-3.307 3.132 11.651 11.114L38.864 5.89l-3.285-3.134-21.192 20.197-8.124-7.75z"/></symbol><symbol id="icon-slider-min-down" viewBox="0 0 32 32"><path fill="#fff" d="M16 32C7.163 32 0 24.837 0 16S7.163 0 16 0s16 7.163 16 16-7.163 16-16 16z" style="fill:var(--color1,#fff)"/><path fill="#4f2ee8" d="M15.453 17.081a.768.768 0 0 0 1.094 0l3.537-3.544a.768.768 0 0 1 1.094 0 .768.768 0 0 1 0 1.088l-3.543 3.543c-.419.418-.997.677-1.636.677s-1.217-.259-1.636-.677l-3.544-3.543a.773.773 0 0 1 1.097-1.089l3.535 3.543z" style="fill:var(--color2,#4f2ee8)"/></symbol><symbol id="icon-slider-min-up" viewBox="0 0 32 32"><path fill="#fff" d="M16 0c8.837 0 16 7.163 16 16s-7.163 16-16 16S0 24.837 0 16 7.163 0 16 0z" style="fill:var(--color1,#fff)"/><path fill="#4f2ee8" d="M16.547 14.919a.768.768 0 0 0-1.094 0l-3.537 3.544a.768.768 0 0 1-1.094 0 .77.77 0 0 1 0-1.088l3.543-3.543c.419-.418.997-.677 1.636-.677s1.217.259 1.636.677l3.544 3.543a.773.773 0 0 1-1.097 1.089l-3.535-3.543z" style="fill:var(--color2,#4f2ee8)"/></symbol></defs></svg>