<svg aria-hidden="true" style="width:0;height:0;position:absolute;overflow:hidden" xmlns="http://www.w3.org/2000/svg"><defs><symbol id="icon-apple" viewBox="0 0 32 32"><path fill="#ff7400" style="fill:var(--color1,#ff7400)" d="M16 10.667a1.333 1.333 0 0 1-1.334-1.333 8.09 8.09 0 0 1 3.266-6.44 1.335 1.335 0 0 1 1.948 1.379 1.332 1.332 0 0 1-.481.834 5.506 5.506 0 0 0-2.067 4.227 1.33 1.33 0 0 1-1.334 1.333z"/><path fill="#ff7400" style="fill:var(--color1,#ff7400)" d="M23.84 7.2a7.243 7.243 0 0 0-6.093.294A5.336 5.336 0 0 1 16 8.001a5.44 5.44 0 0 1-1.76-.507 7.237 7.237 0 0 0-6.093-.293c-3.213 1.333-4.573 4.533-4 9.453.64 6.147 3.547 12.68 7.6 12.68a5.068 5.068 0 0 0 2.667-.813 2.829 2.829 0 0 1 1.587-.52 2.786 2.786 0 0 1 1.547.507c.796.512 1.72.794 2.667.813 4 0 6.96-6.533 7.627-12.68s-1.787-8.507-4-9.44z"/></symbol><symbol id="icon-column" viewBox="0 0 33 32"><path fill="#ff7400" style="fill:var(--color1,#ff7400)" d="M30 9.013 28.667 3.68a1.33 1.33 0 0 0-1.334-1.013H22a1.335 1.335 0 0 0-.943 2.277c.25.25.589.391.943.391h2.827c-5.773 7.587-16.293 9.333-20.16 9.333a1.335 1.335 0 0 0-.943 2.277c.251.25.589.391.943.391 4.213 0 15.613-1.933 22.08-10.173l.587 2.493a1.372 1.372 0 1 0 2.667-.641zM31.333 14.667V28a1.334 1.334 0 0 1-1.334 1.334h-4A1.334 1.334 0 0 1 24.665 28V14.667a1.334 1.334 0 0 1 1.334-1.334h4a1.334 1.334 0 0 1 1.334 1.334zm-12 4h-4a1.334 1.334 0 0 0-1.334 1.334v8a1.334 1.334 0 0 0 1.334 1.334h4a1.334 1.334 0 0 0 1.334-1.334v-8a1.334 1.334 0 0 0-1.334-1.334zM8.667 21.333h-4a1.334 1.334 0 0 0-1.334 1.334V28a1.335 1.335 0 0 0 1.334 1.334h4A1.334 1.334 0 0 0 10.001 28v-5.333a1.335 1.335 0 0 0-1.334-1.334z"/></symbol><symbol id="icon-cross" viewBox="0 0 33 32"><path fill="#ff7400" style="fill:var(--color1,#ff7400)" d="M27.333 2.667H6a2.667 2.667 0 0 0-2.667 2.667v21.333A2.667 2.667 0 0 0 6 29.334h21.333A2.667 2.667 0 0 0 30 26.667V5.334a2.667 2.667 0 0 0-2.667-2.667z"/><path style="fill:var(--color2,#000)" d="m18.547 16 3.067-3.053a1.34 1.34 0 0 0-1.894-1.894l-3.053 3.067-3.053-3.067a1.34 1.34 0 0 0-1.894 1.894L14.787 16l-3.067 3.053a1.334 1.334 0 0 0 0 1.894 1.334 1.334 0 0 0 1.894 0l3.053-3.067 3.053 3.067a1.334 1.334 0 0 0 1.894 0 1.334 1.334 0 0 0 0-1.894L18.547 16z"/></symbol><symbol id="icon-list" viewBox="0 0 32 32"><path fill="#ff7400" style="fill:var(--color1,#ff7400)" d="m26.28 5.72-2.667-2.667a1.337 1.337 0 0 0-.947-.387H7.999a2.668 2.668 0 0 0-2.667 2.667v21.333a2.668 2.668 0 0 0 2.667 2.667h16a2.67 2.67 0 0 0 2.667-2.667v-20a1.345 1.345 0 0 0-.387-.947z"/><path style="fill:var(--color2,#000)" d="M21.333 24H10.666a1.335 1.335 0 0 1-.943-2.277c.25-.25.589-.391.943-.391h10.667a1.334 1.334 0 0 1 0 2.668zm0-5.333H10.666a1.335 1.335 0 0 1-.943-2.277c.25-.25.589-.391.943-.391h10.667a1.334 1.334 0 0 1 0 2.668zm0-5.334H10.666a1.333 1.333 0 1 1 0-2.667h10.667a1.335 1.335 0 0 1 .943 2.277c-.25.25-.589.39-.943.39zM26.28 5.72l-2.667-2.667a1.337 1.337 0 0 0-.947-.387v2.667A1.334 1.334 0 0 0 24 6.667h2.667a1.345 1.345 0 0 0-.387-.947z"/></symbol></defs></svg>