<svg width="66" height="10" viewBox="0 0 66 10" fill="none" xmlns="http://www.w3.org/2000/svg">
<path d="M5 0L6.12257 3.45492H9.75528L6.81636 5.59017L7.93893 9.04508L5 6.90983L2.06107 9.04508L3.18364 5.59017L0.244718 3.45492H3.87743L5 0Z" fill="#FF7400"/>
<path d="M19 0L20.1226 3.45492H23.7553L20.8164 5.59017L21.9389 9.04508L19 6.90983L16.0611 9.04508L17.1836 5.59017L14.2447 3.45492H17.8774L19 0Z" fill="#FF7400"/>
<path d="M33 0L34.1226 3.45492H37.7553L34.8164 5.59017L35.9389 9.04508L33 6.90983L30.0611 9.04508L31.1836 5.59017L28.2447 3.45492H31.8774L33 0Z" fill="#FF7400"/>
<path d="M47 0L48.1226 3.45492H51.7553L48.8164 5.59017L49.9389 9.04508L47 6.90983L44.0611 9.04508L45.1836 5.59017L42.2447 3.45492H45.8774L47 0Z" fill="#FF7400"/>
<path d="M61 0L62.1226 3.45492H65.7553L62.8164 5.59017L63.9389 9.04508L61 6.90983L58.0611 9.04508L59.1836 5.59017L56.2447 3.45492H59.8774L61 0Z" fill="#FF7400"/>
</svg>
