<svg aria-hidden="true" style="position: absolute; width: 0; height: 0; overflow: hidden;" version="1.1" xmlns="http://www.w3.org/2000/svg" xmlns:xlink="http://www.w3.org/1999/xlink">
<defs>
<symbol id="icon-star" viewBox="0 0 34 32">
<path fill="#ff7400" style="fill: var(--color1, #ff7400)" d="M16.842 0l3.781 11.638h12.236l-9.899 7.192 3.781 11.638-9.9-7.192-9.9 7.192 3.781-11.638-9.9-7.192h12.236l3.781-11.638z"></path>
</symbol>
<symbol id="icon-menu" viewBox="0 0 32 32">
<path d="M6.4 11.733v-2.133h19.2v2.133h-19.2zM6.4 17.067h19.2v-2.133h-19.2v2.133zM6.4 22.4h19.2v-2.133h-19.2v2.133z"></path>
</symbol>
<symbol id="icon-close" viewBox="0 0 32 32">
<path d="M23.733 10.304l-1.504-1.504-5.963 5.963-5.963-5.963-1.504 1.504 5.963 5.963-5.963 5.963 1.504 1.504 5.963-5.963 5.963 5.963 1.504-1.504-5.963-5.963 5.963-5.963z"></path>
</symbol>
<symbol id="icon-envelope" viewBox="0 0 32 32">
<path fill="#ff7400" style="fill: var(--color1, #ff7400)" d="M26.667 5.333h-21.333c-1.473 0-2.667 1.194-2.667 2.667v16c0 1.473 1.194 2.667 2.667 2.667h21.333c1.473 0 2.667-1.194 2.667-2.667v-16c0-1.473-1.194-2.667-2.667-2.667z"></path>
<path fill="#272727" style="fill: var(--color2, #272727)" d="M15.902 17.333c-0.668-0.001-1.316-0.245-1.837-0.693l-8.272-7.087c-0.268-0.271-0.431-0.639-0.457-1.033s0.086-0.783 0.315-1.092c0.229-0.309 0.558-0.514 0.921-0.576s0.735 0.026 1.042 0.244l8.287 7.087 8.287-7.087c0.148-0.15 0.323-0.265 0.515-0.338s0.395-0.103 0.598-0.088 0.401 0.076 0.581 0.178c0.18 0.102 0.338 0.242 0.465 0.413s0.219 0.368 0.271 0.579 0.062 0.431 0.031 0.646c-0.032 0.215-0.105 0.421-0.215 0.605s-0.254 0.341-0.423 0.461l-8.272 7.087c-0.521 0.448-1.169 0.692-1.837 0.693z"></path>
</symbol>
<symbol id="icon-phone" viewBox="0 0 32 32">
<path fill="#ff7400" style="fill: var(--color1, #ff7400)" d="M26.92 17.334c-1.585-0.129-3.133-0.539-4.573-1.213-0.605-0.273-1.289-0.311-1.921-0.107s-1.163 0.637-1.493 1.213l-0.68 1.133c-1.812-1.223-3.369-2.785-4.587-4.6l1.147-0.653c0.576-0.329 1.009-0.861 1.213-1.493s0.167-1.316-0.107-1.921c-0.692-1.45-1.117-3.013-1.253-4.613-0.063-0.662-0.372-1.277-0.865-1.724s-1.136-0.692-1.801-0.689h-5.16c-0.57-0.006-1.136 0.109-1.658 0.339s-0.989 0.569-1.369 0.994c-0.375 0.444-0.652 0.962-0.816 1.52s-0.208 1.144-0.131 1.72c0.716 5.558 3.254 10.723 7.218 14.684s9.13 6.497 14.689 7.209c0.186 0.013 0.374 0.013 0.56 0 0.978 0.013 1.927-0.334 2.667-0.973 0.423-0.379 0.761-0.843 0.991-1.363s0.347-1.082 0.342-1.65v-5.147c0.003-0.665-0.243-1.308-0.689-1.801s-1.061-0.802-1.724-0.865z"></path>
</symbol>
<symbol id="icon-person" viewBox="0 0 32 32">
<path d="M16 16c2.947 0 5.333-2.387 5.333-5.333s-2.387-5.333-5.333-5.333c-2.947 0-5.333 2.387-5.333 5.333s2.387 5.333 5.333 5.333zM16 18.667c-3.56 0-10.667 1.787-10.667 5.333v1.333c0 0.733 0.6 1.333 1.333 1.333h18.667c0.733 0 1.333-0.6 1.333-1.333v-1.333c0-3.547-7.107-5.333-10.667-5.333z"></path>
</symbol>
<symbol id="icon-mark" viewBox="0 0 32 32">
<path  d="M0 0h32v32h-32v-32z"></path>
</symbol>
<symbol id="icon-instagram" viewBox="0 0 32 32">
<path fill="none" stroke="#ff7400" style="stroke: var(--color1, #ff7400)" stroke-linejoin="round" stroke-linecap="round" stroke-miterlimit="4" stroke-width="3.3333" d="M22.667 2.667h-13.333c-3.682 0-6.667 2.985-6.667 6.667v13.333c0 3.682 2.985 6.667 6.667 6.667h13.333c3.682 0 6.667-2.985 6.667-6.667v-13.333c0-3.682-2.985-6.667-6.667-6.667z"></path>
<path fill="none" stroke="#ff7400" style="stroke: var(--color1, #ff7400)" stroke-linejoin="round" stroke-linecap="round" stroke-miterlimit="4" stroke-width="3.3333" d="M21.334 15.16c0.165 1.11-0.025 2.243-0.542 3.239s-1.334 1.803-2.336 2.308c-1.002 0.504-2.138 0.68-3.245 0.502s-2.131-0.701-2.924-1.494c-0.793-0.793-1.316-1.816-1.494-2.924s-0.003-2.243 0.502-3.245c0.504-1.002 1.312-1.82 2.308-2.336s2.129-0.706 3.239-0.542c1.132 0.168 2.18 0.695 2.989 1.504s1.337 1.857 1.504 2.989z"></path>
<path fill="none" stroke="#ff7400" style="stroke: var(--color1, #ff7400)" stroke-linejoin="round" stroke-linecap="round" stroke-miterlimit="4" stroke-width="3.3333" d="M23.333 8.667h0.013"></path>
</symbol>
<symbol id="icon-scroll_up" viewBox="0 0 32 32"><path d="M4.5 19.6 15.7 8.367c.133-.133.278-.228.433-.283s.322-.084.5-.084.345.028.5.084.3.149.433.283L28.799 19.6c.311.311.467.7.467 1.167s-.167.867-.5 1.2c-.333.333-.722.5-1.167.5s-.833-.167-1.167-.5l-9.8-9.8-9.8 9.8c-.311.311-.694.467-1.149.467s-.851-.167-1.184-.5-.5-.722-.5-1.167c0-.444.167-.833.5-1.167z"/></symbol>
<symbol id="icon-chevrons-right" viewBox="0 0 32 32">
<path fill="none" stroke="#f87a11" style="stroke: var(--color1, #f87a11)" stroke-linejoin="round" stroke-linecap="round" stroke-miterlimit="4" stroke-width="3.56" d="M17.333 22.667l6.667-6.667-6.667-6.667"></path>
<path fill="none" stroke="#f87a11" style="stroke: var(--color1, #f87a11)" stroke-linejoin="round" stroke-linecap="round" stroke-miterlimit="4" stroke-width="3.56" d="M8 22.667l6.667-6.667-6.667-6.667"></path>
</symbol>
<symbol id="icon-cd" viewBox="0 0 32 32">
<path fill="#272727" style="fill: var(--color1, #272727)" d="M16 29.333c7.364 0 13.333-5.97 13.333-13.333s-5.97-13.333-13.333-13.333c-7.364 0-13.333 5.97-13.333 13.333s5.97 13.333 13.333 13.333z"></path>
<path fill="#f87a11" style="fill: var(--color2, #f87a11)" d="M16 20c2.209 0 4-1.791 4-4s-1.791-4-4-4c-2.209 0-4 1.791-4 4s1.791 4 4 4z"></path>
</symbol>
<symbol id="icon-check_blue" viewBox="0 0 32 32">
<path fill="#272727" style="fill: var(--color2, #272727)" d="M29.333 12.321v14.347c0 0.707-0.281 1.385-0.781 1.886s-1.178 0.781-1.886 0.781h-21.333c-0.707 0-1.386-0.281-1.886-0.781s-0.781-1.178-0.781-1.886v-21.333c0-0.707 0.281-1.386 0.781-1.886s1.178-0.781 1.886-0.781h19.68c0.264 0.001 0.521 0.080 0.74 0.228s0.389 0.356 0.489 0.6 0.125 0.512 0.073 0.771c-0.052 0.258-0.18 0.495-0.368 0.681l-9.947 9.947-3.453-3.44c-0.373-0.371-0.847-0.623-1.363-0.725s-1.050-0.049-1.536 0.152c-0.486 0.201-0.902 0.541-1.195 0.977s-0.451 0.95-0.453 1.476c-0 0.352 0.069 0.7 0.204 1.025s0.333 0.62 0.583 0.868l5.333 5.333c0.248 0.248 0.542 0.445 0.866 0.579s0.671 0.203 1.021 0.203c0.35 0 0.697-0.069 1.021-0.203s0.618-0.331 0.866-0.579l9.173-9.173c0.186-0.183 0.422-0.307 0.678-0.357s0.521-0.024 0.763 0.076c0.241 0.099 0.448 0.267 0.595 0.483s0.227 0.47 0.231 0.731z"></path>
<path fill="#6fc7b8" style="fill: var(--color4, #6fc7b8)" d="M16 20c-0.176 0.001-0.35-0.033-0.512-0.099s-0.31-0.164-0.435-0.288l-5.333-5.333c-0.251-0.251-0.392-0.592-0.392-0.947s0.141-0.696 0.392-0.947c0.251-0.251 0.592-0.392 0.947-0.392s0.696 0.141 0.947 0.392l4.387 4.4 11.053-11.067c0.251-0.251 0.592-0.392 0.947-0.392s0.696 0.141 0.947 0.392 0.392 0.592 0.392 0.947c0 0.355-0.141 0.696-0.392 0.947l-12 12c-0.124 0.124-0.272 0.221-0.435 0.288s-0.336 0.1-0.512 0.099z"></path>
</symbol>
<symbol id="icon-check_pink" viewBox="0 0 32 32">
<path fill="#272727" style="fill: var(--color2, #272727)" d="M29.333 12.321v14.347c0 0.707-0.281 1.385-0.781 1.886s-1.178 0.781-1.886 0.781h-21.333c-0.707 0-1.386-0.281-1.886-0.781s-0.781-1.178-0.781-1.886v-21.333c0-0.707 0.281-1.386 0.781-1.886s1.178-0.781 1.886-0.781h19.68c0.264 0.001 0.521 0.080 0.74 0.228s0.389 0.356 0.489 0.6 0.125 0.512 0.073 0.771c-0.052 0.258-0.18 0.495-0.368 0.681l-9.947 9.947-3.453-3.44c-0.373-0.371-0.847-0.623-1.363-0.725s-1.050-0.049-1.536 0.152c-0.486 0.201-0.902 0.541-1.195 0.977s-0.451 0.95-0.453 1.476c-0 0.352 0.069 0.7 0.204 1.025s0.333 0.62 0.583 0.868l5.333 5.333c0.248 0.248 0.542 0.445 0.866 0.579s0.671 0.203 1.021 0.203c0.35 0 0.697-0.069 1.021-0.203s0.618-0.331 0.866-0.579l9.173-9.173c0.186-0.183 0.422-0.307 0.678-0.357s0.521-0.024 0.763 0.076c0.241 0.099 0.448 0.267 0.595 0.483s0.227 0.47 0.231 0.731z"></path>
<path fill="#f18ea3" style="fill: var(--color3, #f18ea3)" d="M16 20c-0.176 0.001-0.35-0.033-0.512-0.099s-0.31-0.164-0.435-0.288l-5.333-5.333c-0.251-0.251-0.392-0.592-0.392-0.947s0.141-0.696 0.392-0.947c0.251-0.251 0.592-0.392 0.947-0.392s0.696 0.141 0.947 0.392l4.387 4.4 11.053-11.067c0.251-0.251 0.592-0.392 0.947-0.392s0.696 0.141 0.947 0.392 0.392 0.592 0.392 0.947c0 0.355-0.141 0.696-0.392 0.947l-12 12c-0.124 0.124-0.272 0.221-0.435 0.288s-0.336 0.1-0.512 0.099z"></path>
</symbol>
<symbol id="icon-check_orange" viewBox="0 0 32 32">
<path fill="#272727" style="fill: var(--color1, #272727)" d="M29.333 12.32v14.347c0 0.707-0.281 1.386-0.781 1.886s-1.178 0.781-1.886 0.781h-21.333c-0.707 0-1.386-0.281-1.886-0.781s-0.781-1.178-0.781-1.886v-21.333c0-0.707 0.281-1.386 0.781-1.886s1.178-0.781 1.886-0.781h19.68c0.264 0.001 0.521 0.080 0.74 0.228s0.389 0.356 0.489 0.6 0.125 0.512 0.073 0.771c-0.052 0.258-0.18 0.495-0.368 0.681l-9.947 9.947-3.453-3.44c-0.373-0.371-0.847-0.623-1.363-0.725s-1.050-0.049-1.536 0.152c-0.486 0.201-0.902 0.541-1.195 0.977s-0.451 0.95-0.453 1.476c-0 0.352 0.069 0.7 0.204 1.025s0.333 0.62 0.583 0.868l5.333 5.333c0.248 0.248 0.542 0.445 0.866 0.579s0.671 0.203 1.021 0.203c0.35 0 0.697-0.069 1.021-0.203s0.618-0.331 0.866-0.579l9.173-9.173c0.186-0.183 0.422-0.307 0.678-0.357s0.521-0.024 0.763 0.076c0.241 0.099 0.448 0.267 0.595 0.483s0.227 0.47 0.231 0.731z"></path>
<path fill="#f87a11" style="fill: var(--color2, #f87a11)" d="M16 20c-0.176 0.001-0.35-0.033-0.512-0.099s-0.31-0.164-0.435-0.288l-5.333-5.333c-0.251-0.251-0.392-0.592-0.392-0.947s0.141-0.696 0.392-0.947c0.251-0.251 0.592-0.392 0.947-0.392s0.696 0.141 0.947 0.392l4.387 4.4 11.053-11.067c0.251-0.251 0.592-0.392 0.947-0.392s0.696 0.141 0.947 0.392 0.392 0.592 0.392 0.947c0 0.355-0.141 0.696-0.392 0.947l-12 12c-0.124 0.124-0.272 0.221-0.435 0.288s-0.336 0.1-0.512 0.099z"></path>
</symbol>
<symbol id="icon-infinite" viewBox="0 0 32 32">
<path fill="#f87a11" style="fill: var(--color2, #f87a11)" d="M22.307 8.973c0.003 0.828-0.16 1.649-0.478 2.413s-0.786 1.458-1.375 2.040l-2.573 2.573 2.573 2.573c0.587 0.585 1.053 1.28 1.371 2.045s0.482 1.586 0.482 2.415-0.164 1.649-0.482 2.415c-0.318 0.765-0.784 1.46-1.371 2.045-0.578 0.619-1.274 1.116-2.048 1.46s-1.609 0.529-2.456 0.544-1.688-0.142-2.473-0.46c-0.785-0.318-1.498-0.79-2.097-1.39s-1.070-1.313-1.387-2.099c-0.317-0.786-0.472-1.627-0.456-2.474s0.202-1.682 0.547-2.455c0.345-0.773 0.843-1.469 1.464-2.046l2.573-2.573-2.573-2.573c-1.114-1.195-1.722-2.775-1.694-4.409s0.688-3.193 1.843-4.349c1.154-1.156 2.712-1.819 4.346-1.849s3.215 0.575 4.412 1.687c0.589 0.585 1.056 1.281 1.374 2.048s0.481 1.589 0.479 2.419zM16 14.12l2.573-2.573c0.66-0.694 1.029-1.615 1.029-2.573s-0.368-1.879-1.029-2.573c-0.683-0.682-1.608-1.066-2.573-1.066s-1.891 0.383-2.573 1.066c-0.66 0.694-1.029 1.615-1.029 2.573s0.368 1.879 1.029 2.573l2.573 2.573zM12.36 23.027c0 0.72 0.214 1.423 0.614 2.022s0.968 1.065 1.633 1.34c0.665 0.275 1.397 0.347 2.103 0.207s1.355-0.487 1.864-0.996c0.66-0.694 1.029-1.615 1.029-2.573s-0.368-1.879-1.029-2.573l-2.573-2.573-2.573 2.573c-0.681 0.683-1.065 1.608-1.067 2.573z"></path>
</symbol>
<symbol id="icon-apple-fruit" viewBox="0 0 32 32">
<path fill="#f87a11" style="fill: var(--color2, #f87a11)" d="M16 10.667c-0.354 0-0.693-0.14-0.943-0.391s-0.391-0.589-0.391-0.943c0.009-1.253 0.308-2.487 0.875-3.604s1.386-2.088 2.391-2.836c0.293-0.157 0.634-0.199 0.956-0.118s0.602 0.28 0.786 0.556 0.257 0.612 0.206 0.941c-0.051 0.328-0.223 0.626-0.481 0.834-0.636 0.508-1.151 1.15-1.509 1.881s-0.548 1.532-0.558 2.346c0 0.354-0.14 0.693-0.391 0.943s-0.589 0.391-0.943 0.391z"></path>
<path fill="#f87a11" style="fill: var(--color2, #f87a11)" d="M23.84 7.2c-0.976-0.397-2.027-0.577-3.079-0.526s-2.081 0.33-3.014 0.82c-0.549 0.268-1.14 0.439-1.747 0.507-0.611-0.068-1.206-0.24-1.76-0.507-0.933-0.49-1.962-0.77-3.014-0.821s-2.104 0.129-3.079 0.528c-3.213 1.333-4.573 4.533-4 9.453 0.64 6.147 3.547 12.68 7.6 12.68 0.947-0.016 1.871-0.298 2.667-0.813 0.464-0.329 1.017-0.51 1.587-0.52 0.555 0.011 1.093 0.188 1.547 0.507 0.796 0.512 1.72 0.794 2.667 0.813 4 0 6.96-6.533 7.627-12.68s-1.787-8.507-4-9.44z"></path>
</symbol>
<symbol id="icon-battery-charge" viewBox="0 0 32 32">
<path fill="#fff" style="fill: var(--color3, #fff)" d="M18.667 2.667h-5.333c-0.736 0-1.333 0.597-1.333 1.333v2.667c0 0.736 0.597 1.333 1.333 1.333h5.333c0.736 0 1.333-0.597 1.333-1.333v-2.667c0-0.736-0.597-1.333-1.333-1.333z"></path>
<path fill="#f87a11" style="fill: var(--color2, #f87a11)" d="M21.333 5.333h-10.667c-1.473 0-2.667 1.194-2.667 2.667v18.667c0 1.473 1.194 2.667 2.667 2.667h10.667c1.473 0 2.667-1.194 2.667-2.667v-18.667c0-1.473-1.194-2.667-2.667-2.667z"></path>
<path fill="#fff" style="fill: var(--color3, #fff)" d="M16 21.333c-0.209 0.003-0.416-0.048-0.6-0.147-0.314-0.16-0.552-0.437-0.662-0.772s-0.083-0.699 0.075-1.014l0.36-0.733h-0.507c-0.227-0.001-0.451-0.059-0.649-0.171s-0.365-0.271-0.483-0.465c-0.119-0.194-0.186-0.415-0.196-0.642s0.039-0.453 0.141-0.656l1.333-2.667c0.174-0.289 0.45-0.501 0.773-0.594s0.67-0.061 0.971 0.091c0.3 0.152 0.532 0.412 0.649 0.728s0.11 0.664-0.020 0.975l-0.36 0.733h0.507c0.227 0.001 0.451 0.059 0.649 0.171s0.365 0.271 0.483 0.465c0.119 0.194 0.186 0.415 0.196 0.642s-0.039 0.453-0.141 0.656l-1.333 2.667c-0.111 0.22-0.28 0.405-0.49 0.534s-0.451 0.198-0.697 0.199z"></path>
</symbol>
<symbol id="icon-bike-2" viewBox="0 0 32 32">
<path fill="#fff" style="fill: var(--color3, #fff)" d="M24 26.667c-1.055 0-2.086-0.313-2.963-0.899s-1.561-1.419-1.964-2.394c-0.404-0.975-0.509-2.047-0.303-3.081s0.714-1.985 1.46-2.731 1.696-1.254 2.731-1.46c1.035-0.206 2.107-0.1 3.081 0.303s1.808 1.087 2.394 1.964 0.899 1.908 0.899 2.963c0 1.415-0.562 2.771-1.562 3.771s-2.357 1.562-3.771 1.562zM24 18.667c-0.527 0-1.043 0.156-1.481 0.449s-0.78 0.709-0.982 1.197c-0.202 0.487-0.255 1.023-0.152 1.541s0.357 0.992 0.73 1.365 0.848 0.627 1.365 0.73c0.517 0.103 1.053 0.050 1.541-0.152s0.904-0.544 1.197-0.982c0.293-0.439 0.449-0.954 0.449-1.481 0-0.707-0.281-1.385-0.781-1.886s-1.178-0.781-1.886-0.781zM8 26.667c-1.055 0-2.086-0.313-2.963-0.899s-1.561-1.419-1.964-2.394c-0.404-0.975-0.509-2.047-0.304-3.081s0.714-1.985 1.46-2.731 1.696-1.254 2.731-1.46c1.035-0.206 2.107-0.1 3.081 0.303s1.807 1.087 2.394 1.964 0.899 1.908 0.899 2.963c0 1.415-0.562 2.771-1.562 3.771s-2.357 1.562-3.771 1.562zM8 18.667c-0.527 0-1.043 0.156-1.482 0.449s-0.78 0.709-0.982 1.197c-0.202 0.487-0.255 1.023-0.152 1.541s0.357 0.992 0.73 1.365 0.848 0.627 1.365 0.73c0.517 0.103 1.053 0.050 1.541-0.152s0.904-0.544 1.197-0.982 0.449-0.954 0.449-1.481c0-0.707-0.281-1.385-0.781-1.886s-1.178-0.781-1.886-0.781z"></path>
<path fill="#f87a11" style="fill: var(--color2, #f87a11)" d="M22.84 7.52c-0.114-0.621-0.444-1.182-0.932-1.582s-1.103-0.615-1.734-0.604h-1.507c-0.354 0-0.693 0.14-0.943 0.391s-0.391 0.589-0.391 0.943c0 0.354 0.141 0.693 0.391 0.943s0.589 0.391 0.943 0.391h1.56l0.4 2.24-4.52 4.8-0.72-3.56c-0.12-0.605-0.446-1.149-0.923-1.541s-1.074-0.606-1.691-0.606h-2.107c-0.354 0-0.693 0.14-0.943 0.391s-0.391 0.589-0.391 0.943c0 0.354 0.14 0.693 0.391 0.943s0.589 0.391 0.943 0.391h2.107l1.080 5.413-2.427 2.587h-3.427c-0.354 0-0.693 0.141-0.943 0.391s-0.391 0.589-0.391 0.943 0.14 0.693 0.391 0.943c0.25 0.25 0.589 0.391 0.943 0.391h4c0.182 0.001 0.362-0.035 0.529-0.106s0.318-0.176 0.444-0.307l8.253-8.747 1.467 8c0.042 0.318 0.197 0.611 0.437 0.824s0.549 0.332 0.87 0.336c0.079 0.013 0.161 0.013 0.24 0 0.346-0.065 0.652-0.264 0.852-0.553s0.277-0.647 0.215-0.993l-2.467-13.6z"></path>
</symbol>
<symbol id="icon-caution" viewBox="0 0 33 32">
<path fill="#f87a11" style="fill: var(--color2, #f87a11)" d="M21.306 3.547c-0.249-0.276-0.554-0.497-0.894-0.649s-0.708-0.23-1.080-0.231h-5.333c-0.374-0.002-0.744 0.075-1.086 0.225s-0.649 0.371-0.9 0.648c-0.251 0.277-0.442 0.603-0.559 0.958s-0.158 0.731-0.121 1.103l1.067 10.667c0.066 0.66 0.376 1.272 0.869 1.715s1.134 0.688 1.797 0.685h3.2c0.663 0.003 1.304-0.241 1.797-0.685s0.803-1.055 0.869-1.715l1.067-10.667c0.035-0.372-0.009-0.747-0.129-1.1s-0.312-0.678-0.565-0.953z"></path>
<path fill="#f87a11" style="fill: var(--color2, #f87a11)" d="M16.667 29.333c2.209 0 4-1.791 4-4s-1.791-4-4-4c-2.209 0-4 1.791-4 4s1.791 4 4 4z"></path>
</symbol>
<symbol id="icon-user" viewBox="0 0 33 32">
<path fill="#f87a11" style="fill: var(--color2, #f87a11)" d="M28.667 26.667c0 0.707-0.281 1.385-0.781 1.886s-1.178 0.781-1.886 0.781h-18.667c-0.707 0-1.386-0.281-1.886-0.781s-0.781-1.178-0.781-1.886c0-2.122 0.843-4.157 2.343-5.657s3.535-2.343 5.657-2.343h8c2.122 0 4.157 0.843 5.657 2.343s2.343 3.535 2.343 5.657zM16.667 16c1.319 0 2.607-0.391 3.704-1.124s1.951-1.774 2.455-2.992 0.637-2.559 0.379-3.852c-0.257-1.293-0.892-2.481-1.825-3.413s-2.12-1.567-3.413-1.825c-1.293-0.257-2.634-0.125-3.852 0.379s-2.259 1.359-2.992 2.455-1.124 2.385-1.124 3.704c0 1.768 0.702 3.464 1.953 4.714s2.946 1.953 4.714 1.953z"></path>
</symbol>
<symbol id="icon-untitled" viewBox="0 0 44 32">
<path fill="#f87a11" style="fill: var(--color1, #f87a11)" opacity="0.1" d="M0.256 31.659l2.901-14.677c1.963-9.643 9.557-15.701 19.371-16.64l-1.877 9.301c-4.181 0.256-7.168 2.901-7.936 6.656h7.253l-3.072 15.36h-16.64zM21.333 31.659l2.901-14.677c1.963-9.643 9.557-15.701 19.371-16.64l-1.877 9.301c-4.181 0.256-7.168 2.901-7.936 6.656h7.253l-3.072 15.36h-16.64z"></path>
</symbol>
<symbol id="icon-fizkylt" viewBox="0 0 95 32">
<path fill="#ff7500" style="fill: var(--color4, #ff7500)" d="M22.951 24h-3.653l2.767-15.925h3.642l-2.756 15.925zM25.826 24l0.394-2.188 7.848-10.773h-6.12l0.525-2.964h10.412l-0.372 2.144-7.803 10.828h5.933l-0.514 2.953h-10.303zM41.39 8.075h3.653l-1.131 6.51 1.109-1.61 3.106-4.9h4.692l-5.536 7.112 2.539 8.813h-4.189l-1.222-5.563-1.435 1.533-0.7 4.029h-3.631l2.745-15.925zM58.965 1.557l-1.664-1.482-3.806 0.011-0.416 0.522-0.26-0.533h-4.692l-2.109 1.16-0.976-1.16h-3.653l-1.465 1.234-1.039-1.234h-10.412l-1.622 1.36-1.145-1.36h-3.642l-1.504 1.266-1.065-1.266h-8.837l-7.884 6.641-2.745 15.925 7.884 9.359h3.631l4.541-3.82 3.213 3.82h3.653l1.688-1.421 1.188 1.421h10.303l1.472-1.238 1.043 1.238h3.631l1.641-1.38 1.717 1.38h4.189l2.329-3.095 2.603 3.095h3.73l3.553-3 2.527 3h8.859l1.921-1.616 1.359 1.616h3.664l7.882-6.63 1.611-9.276 4.382-3.688 0.514-2.964-7.882-9.367h-11.047l-2.854 2.393-2.013-2.393h-3.653l-1.321 1.113-0.647-1.113h-4.058l-2.319 1.482zM53.518 8.086l3.806-0.011 0.777 6.88 3.183-6.88h4.058l-5.917 10.391-0.941 5.534h-3.73l1.028-5.906-2.264-10.008zM64.564 24l2.745-15.925h3.653l-2.254 12.972h5.229l-0.514 2.953h-8.859zM76.704 24l2.252-12.961h-3.652l0.525-2.964h11.047l-0.514 2.964h-3.742l-2.252 12.961h-3.664zM18.981 11.039h-5.185l-0.637 3.664h4.75l-0.514 2.953h-4.749l-1.102 6.344h-3.631l2.745-15.925h8.837l-0.514 2.964z"></path>
</symbol>
<symbol id="icon-Group_43" viewBox="0 0 211 32">
<path fill="#ff7400" style="fill: var(--color6, #ff7400)" d="M16 0l3.592 11.056h11.625l-9.405 6.833 3.592 11.056-9.405-6.833-9.405 6.833 3.592-11.056-9.405-6.833h11.625l3.592-11.056z"></path>
<path fill="#ff7400" style="fill: var(--color6, #ff7400)" d="M60.8 0l3.592 11.056h11.625l-9.404 6.833 3.592 11.056-9.404-6.833-9.404 6.833 3.592-11.056-9.404-6.833h11.625l3.592-11.056z"></path>
<path fill="#ff7400" style="fill: var(--color6, #ff7400)" d="M105.6 0l3.592 11.056h11.625l-9.404 6.833 3.592 11.056-9.404-6.833-9.404 6.833 3.592-11.056-9.404-6.833h11.625l3.592-11.056z"></path>
<path fill="#ff7400" style="fill: var(--color6, #ff7400)" d="M150.4 0l3.592 11.056h11.625l-9.404 6.833 3.592 11.056-9.404-6.833-9.404 6.833 3.592-11.056-9.404-6.833h11.625l3.592-11.056z"></path>
<path fill="#ff7400" style="fill: var(--color6, #ff7400)" d="M195.2 0l3.592 11.056h11.625l-9.404 6.833 3.592 11.056-9.404-6.833-9.404 6.833 3.592-11.056-9.404-6.833h11.625l3.592-11.056z"></path>
</symbol>
<symbol id="icon-Vector" viewBox="0 0 42 32"><path fill="#fff" stroke="#fff" stroke-width=".64" d="m6.263 15.205-.22-.21-3.307 3.132 11.651 11.114L38.864 5.89l-3.285-3.134-21.192 20.197-8.124-7.75z" style=""/></symbol>
<symbol id="icon-slider-min-down" viewBox="0 0 32 32"><path fill="#fff" d="M16 32C7.163 32 0 24.837 0 16S7.163 0 16 0s16 7.163 16 16-7.163 16-16 16z" style="fill:var(--color1, #fff)"/><path fill="#4f2ee8" d="M15.453 17.081a.768.768 0 0 0 1.094 0l3.537-3.544a.768.768 0 0 1 1.094 0 .768.768 0 0 1 0 1.088l-3.543 3.543c-.419.418-.997.677-1.636.677s-1.217-.259-1.636-.677l-3.544-3.543a.773.773 0 0 1 1.097-1.089l3.535 3.543z" style="fill:var(--color2, #4f2ee8)"/></symbol>
<symbol id="icon-slider-min-up" viewBox="0 0 32 32"><path fill="#fff" d="M16 0c8.837 0 16 7.163 16 16s-7.163 16-16 16S0 24.837 0 16 7.163 0 16 0z" style="fill:var(--color1, #fff)"/><path fill="#4f2ee8" d="M16.547 14.919a.768.768 0 0 0-1.094 0l-3.537 3.544a.768.768 0 0 1-1.094 0 .77.77 0 0 1 0-1.088l3.543-3.543c.419-.418.997-.677 1.636-.677s1.217.259 1.636.677l3.544 3.543a.773.773 0 0 1-1.097 1.089l-3.535-3.543z" style="fill:var(--color2, #4f2ee8)"/></symbol>
<symbol id="icon-barbell" viewBox="0 0 32 32">
<path fill="none" stroke="#ff7400" style="stroke: var(--color1, #ff7400)" stroke-linejoin="round" stroke-linecap="round" stroke-miterlimit="4" stroke-width="2" d="M11 7h-3c-0.552 0-1 0.448-1 1v16c0 0.552 0.448 1 1 1h3c0.552 0 1-0.448 1-1v-16c0-0.552-0.448-1-1-1z"></path>
<path fill="none" stroke="#ff7400" style="stroke: var(--color1, #ff7400)" stroke-linejoin="round" stroke-linecap="round" stroke-miterlimit="4" stroke-width="2" d="M24 7h-3c-0.552 0-1 0.448-1 1v16c0 0.552 0.448 1 1 1h3c0.552 0 1-0.448 1-1v-16c0-0.552-0.448-1-1-1z"></path>
<path fill="none" stroke="#ff7400" style="stroke: var(--color1, #ff7400)" stroke-linejoin="round" stroke-linecap="round" stroke-miterlimit="4" stroke-width="2" d="M25 10h3c0.265 0 0.52 0.105 0.707 0.293s0.293 0.442 0.293 0.707v10c0 0.265-0.105 0.52-0.293 0.707s-0.442 0.293-0.707 0.293h-3"></path>
<path fill="none" stroke="#ff7400" style="stroke: var(--color1, #ff7400)" stroke-linejoin="round" stroke-linecap="round" stroke-miterlimit="4" stroke-width="2" d="M7 22h-3c-0.265 0-0.52-0.105-0.707-0.293s-0.293-0.442-0.293-0.707v-10c0-0.265 0.105-0.52 0.293-0.707s0.442-0.293 0.707-0.293h3"></path>
<path fill="none" stroke="#ff7400" style="stroke: var(--color1, #ff7400)" stroke-linejoin="round" stroke-linecap="round" stroke-miterlimit="4" stroke-width="2" d="M12 16h8"></path>
<path fill="none" stroke="#ff7400" style="stroke: var(--color1, #ff7400)" stroke-linejoin="round" stroke-linecap="round" stroke-miterlimit="4" stroke-width="2" d="M29 16h2"></path>
<path fill="none" stroke="#ff7400" style="stroke: var(--color1, #ff7400)" stroke-linejoin="round" stroke-linecap="round" stroke-miterlimit="4" stroke-width="2" d="M1 16h2"></path>
</symbol>
<symbol id="icon-cross-circle" viewBox="0 0 32 32">
<path fill="#272727" style="fill: var(--color1, #272727)" d="M16 29.333c7.364 0 13.333-5.97 13.333-13.333s-5.97-13.333-13.333-13.333c-7.364 0-13.333 5.97-13.333 13.333s5.97 13.333 13.333 13.333z"></path>
<path fill="#ff1414" style="fill: var(--color2, #ff1414)" d="M17.88 16l3.067-3.053c0.251-0.251 0.392-0.592 0.392-0.947s-0.141-0.696-0.392-0.947c-0.251-0.251-0.592-0.392-0.947-0.392s-0.696 0.141-0.947 0.392l-3.053 3.067-3.053-3.067c-0.251-0.251-0.592-0.392-0.947-0.392s-0.696 0.141-0.947 0.392c-0.251 0.251-0.392 0.592-0.392 0.947s0.141 0.696 0.392 0.947l3.067 3.053-3.067 3.053c-0.125 0.124-0.224 0.271-0.292 0.434s-0.103 0.337-0.103 0.513c0 0.176 0.035 0.35 0.103 0.513s0.167 0.31 0.292 0.434c0.124 0.125 0.271 0.224 0.434 0.292s0.337 0.103 0.513 0.103 0.35-0.035 0.513-0.103c0.162-0.068 0.31-0.167 0.434-0.292l3.053-3.067 3.053 3.067c0.124 0.125 0.271 0.224 0.434 0.292s0.337 0.103 0.513 0.103c0.176 0 0.35-0.035 0.513-0.103s0.31-0.167 0.434-0.292c0.125-0.124 0.224-0.271 0.292-0.434s0.103-0.337 0.103-0.513-0.035-0.35-0.103-0.513c-0.068-0.163-0.167-0.31-0.292-0.434l-3.067-3.053z"></path>
</symbol>
<symbol id="icon-check-mark" viewBox="0 0 32 32">
<path fill="#272727" style="fill: var(--color1, #272727)" d="M16 29.333c7.364 0 13.333-5.97 13.333-13.333s-5.97-13.333-13.333-13.333c-7.364 0-13.333 5.97-13.333 13.333s5.97 13.333 13.333 13.333z"></path>
<path fill="#2cdf28" style="fill: var(--color3, #2cdf28)" d="M14.667 20.667c-0.175 0.001-0.349-0.033-0.512-0.099s-0.31-0.164-0.435-0.288l-4-4c-0.124-0.124-0.223-0.272-0.29-0.434s-0.102-0.337-0.102-0.512c0-0.355 0.141-0.696 0.392-0.947s0.592-0.392 0.947-0.392c0.355 0 0.696 0.141 0.947 0.392l3.053 3.067 5.72-5.733c0.251-0.251 0.592-0.392 0.947-0.392s0.696 0.141 0.947 0.392c0.251 0.251 0.392 0.592 0.392 0.947s-0.141 0.696-0.392 0.947l-6.667 6.667c-0.125 0.124-0.272 0.221-0.435 0.288s-0.336 0.1-0.512 0.099z"></path>
</symbol>
<symbol id="icon--5-" viewBox="0 0 38 32">
<path d="M10.832 7.189c0.399-0.983 1.053-2.769 1.964-5.359l3.622 1.274-2.633 7.486-1.66-0.584 2.088-5.937-0.453-0.159c-0.708 2.012-1.243 3.449-1.606 4.309-0.25 0.583-0.534 0.95-0.851 1.103-0.311 0.155-0.754 0.13-1.331-0.073l-0.312-0.11 0.563-1.6 0.081 0.028c0.134 0.047 0.238 0.042 0.311-0.015 0.075-0.064 0.148-0.185 0.219-0.364zM18.497 3.836l-1.317 3.743 2.122-3.46 1.55 0.545-2.633 7.486-1.55-0.545 1.309-3.723-2.114 3.44-1.55-0.545 2.633-7.486 1.55 0.545zM18.741 12.334l2.633-7.486 1.66 0.584-2.078 5.907 0.433 0.152 2.078-5.907 1.66 0.584-2.078 5.907 0.433 0.152 2.078-5.907 1.67 0.588-2.633 7.486-5.856-2.060zM27.777 7.1l3.109 1.094-0.545 1.55-1.469-0.517-0.45 1.278 1.177 0.414-0.559 1.59-1.177-0.414-0.524 1.489 1.529 0.538-0.556 1.58-3.17-1.115 2.633-7.486zM4.753 15.708l-1.57-0.552 1.469-4.176 3.502 1.232-0.52 1.479-1.972-0.694-0.446 1.268c0.487-0.334 0.915-0.436 1.284-0.306l0.101 0.035c0.315 0.111 0.518 0.306 0.608 0.587s0.082 0.571-0.024 0.873l-0.995 2.828c-0.158 0.449-0.441 0.772-0.849 0.968-0.401 0.198-0.864 0.205-1.387 0.021l-0.402-0.142c-0.577-0.203-0.948-0.488-1.113-0.855-0.156-0.371-0.163-0.758-0.021-1.161l0.499-1.419 1.6 0.563-0.393 1.117c-0.066 0.188-0.025 0.308 0.122 0.36 0.134 0.047 0.234-0.023 0.3-0.211l0.743-2.113c0.066-0.188 0.035-0.304-0.092-0.349s-0.224 0.027-0.29 0.214l-0.152 0.433zM7.501 20.395l2.633-7.486 1.982 0.697-0.819 3.647 1.664-3.35 1.872 0.658-2.633 7.486-1.429-0.503 1.437-4.085-2.071 3.862-0.594-0.209 0.803-4.308-1.437 4.085-1.409-0.495zM17.027 15.332l-2.633 7.486-1.66-0.584 2.633-7.486 1.66 0.584zM17.787 22.022l0.527-1.499 1.64 0.577-0.545 1.55c-0.184 0.523-0.483 0.912-0.896 1.166-0.404 0.25-0.912 0.267-1.522 0.053l-0.292-0.103c-1.228-0.432-1.609-1.308-1.144-2.63l1.338-3.804c0.205-0.584 0.514-0.999 0.925-1.246 0.418-0.245 0.945-0.255 1.583-0.031l0.302 0.106c1.181 0.415 1.566 1.207 1.155 2.374l-0.432 1.228-1.64-0.577 0.407-1.157c0.087-0.248 0.040-0.404-0.141-0.468-0.101-0.035-0.18-0.033-0.24 0.006s-0.113 0.13-0.163 0.271l-1.405 3.995c-0.092 0.262-0.044 0.425 0.144 0.492 0.174 0.061 0.308-0.039 0.4-0.3zM21.683 26.57l0.372-1.057-2.787-0.98 2.633-7.486 1.66 0.584-2.088 5.937 0.513 0.181 2.088-5.937 1.66 0.584-2.078 5.907 0.372 0.131-0.927 2.636-1.419-0.499zM27.24 21.91l0.795 0.28c0.429 0.151 0.714 0.402 0.855 0.753 0.147 0.353 0.133 0.778-0.041 1.275l-0.623 1.771c-0.179 0.51-0.427 0.849-0.742 1.017-0.309 0.17-0.708 0.169-1.198-0.003l-2.395-0.842 2.633-7.486 1.65 0.58-0.934 2.657zM26.001 25.431l0.201 0.071c0.114 0.040 0.202 0.037 0.263-0.009s0.115-0.133 0.159-0.261l0.495-1.409c0.045-0.127 0.057-0.225 0.035-0.293-0.019-0.075-0.086-0.132-0.2-0.172l-0.201-0.071-0.754 2.143zM30.239 26.572l-0.57 1.62-1.419-0.499 0.57-1.62 1.419 0.499zM30.713 20.146l1.771 0.623-2.468 5.441-0.795-0.28 1.492-5.785z"></path>
</symbol>
<symbol id="icon-Group-298" viewBox="0 0 32 32">
<path  d="M32 16c0 8.836-7.164 16-16 16s-16-7.164-16-16c0-8.837 7.163-16 16-16s16 7.163 16 16z"></path>
<path fill="#000" style="fill: var(--color1, #000)" d="M27.426 21.271c-0.134 0.132-0.323 0.172-0.506 0.097-0.279-0.114-0.376-0.441-0.236-0.784 0.125-0.305 0.383-0.462 0.656-0.403l-0.055 0.133c-0.19-0.026-0.372 0.097-0.465 0.325-0.107 0.261-0.038 0.507 0.167 0.59 0.178 0.073 0.385-0.012 0.47-0.219l0.111-0.272 0.121 0.050-0.111 0.273c-0.079 0.192-0.011 0.372 0.149 0.438 0.186 0.076 0.39-0.041 0.487-0.278 0.085-0.207 0.042-0.408-0.1-0.515l0.054-0.133c0.221 0.135 0.288 0.419 0.172 0.703-0.127 0.311-0.405 0.467-0.657 0.364-0.163-0.067-0.255-0.205-0.257-0.368z"></path>
<path fill="#000" style="fill: var(--color1, #000)" d="M25.698 22.863l-0.125 0.209-0.536-0.32 0.074-0.124 0.409 0.244 0.81-1.358-0.41-0.244 0.074-0.124 0.536 0.32-0.098 0.165c0.043 0.208 0.197 0.337 1.213 1.052l-0.59 0.989-1.357-0.81zM27.451 22.735c-0.855-0.596-1.044-0.761-1.107-0.955l-0.567 0.951 1.237 0.738 0.438-0.734z"></path>


<path fill="#000" style="fill: var(--color1, #000)" d="M24.75 23.783c0.336-0.39 0.882-0.435 1.272-0.099s0.424 0.881 0.087 1.271c-0.339 0.393-0.882 0.435-1.27 0.1-0.39-0.336-0.428-0.88-0.090-1.273zM24.864 23.881c-0.28 0.325-0.247 0.772 0.080 1.054 0.325 0.28 0.771 0.247 1.052-0.078s0.247-0.771-0.080-1.054c-0.325-0.28-0.774-0.244-1.052 0.078z"></path>
<path fill="#000" style="fill: var(--color1, #000)" d="M24.171 26.823c-0.403 0.322-0.927 0.249-1.247-0.151s-0.276-0.93 0.126-1.252c0.247-0.198 0.553-0.246 0.825-0.151l-0.609-0.762 0.122-0.098 1.462 1.83-0.087 0.070-0.263-0.273c0.036 0.291-0.077 0.586-0.329 0.787zM23.152 25.532c-0.33 0.264-0.375 0.705-0.105 1.043 0.268 0.335 0.708 0.389 1.038 0.125 0.327-0.262 0.375-0.709 0.11-1.042s-0.715-0.387-1.043-0.126z"></path>
<path fill="#000" style="fill: var(--color1, #000)" d="M21.399 26.508c0.454-0.243 0.98-0.089 1.223 0.365s0.079 0.974-0.375 1.218c-0.457 0.245-0.98 0.089-1.221-0.362-0.243-0.454-0.083-0.976 0.374-1.22zM21.471 26.641c-0.378 0.202-0.508 0.631-0.304 1.012 0.202 0.378 0.631 0.508 1.009 0.305s0.508-0.631 0.304-1.012c-0.202-0.378-0.634-0.506-1.009-0.305z"></path>
<path fill="#000" style="fill: var(--color1, #000)" d="M19.412 28.357c-0.203 0.008-0.38-0.105-0.446-0.302-0.088-0.261 0.060-0.523 0.339-0.617l0.779-0.262 0.551 1.638-0.773 0.26c-0.264 0.089-0.498-0.015-0.578-0.255-0.059-0.176-0.007-0.352 0.128-0.462zM19.424 28.744c0.059 0.176 0.221 0.246 0.409 0.183l0.61-0.205-0.193-0.573-0.61 0.205c-0.188 0.063-0.274 0.22-0.216 0.39zM19.372 27.574c-0.206 0.070-0.309 0.256-0.247 0.441 0.063 0.188 0.258 0.275 0.467 0.204l0.613-0.206-0.217-0.646-0.616 0.207z"></path>
<path fill="#000" style="fill: var(--color1, #000)" d="M16.976 28.827c-0.003-0.019-0.004-0.041-0.007-0.060l1.546-0.26c-0.089-0.394-0.43-0.625-0.818-0.56-0.281 0.047-0.482 0.224-0.567 0.485l-0.164 0.028c0.1-0.367 0.349-0.604 0.706-0.664 0.489-0.082 0.923 0.237 1.007 0.742 0.084 0.502-0.221 0.946-0.71 1.028-0.499 0.084-0.91-0.243-0.994-0.738zM17.945 29.42c0.379-0.064 0.618-0.38 0.594-0.768l-1.395 0.235c0.101 0.386 0.431 0.596 0.8 0.534z"></path>


<path fill="#000" style="fill: var(--color1, #000)" d="M14.055 29.635l0.009-0.144 0.69 0.045 0.104-1.581 0.153 0.010-0.104 1.581 0.687 0.045-0.009 0.144-1.53-0.101z"></path>
<path fill="#000" style="fill: var(--color1, #000)" d="M13.51 29.891l-0.037 0.218-0.196-0.033 0.037-0.218 0.196 0.033zM13.838 27.834l-0.29 1.703-0.155-0.026 0.29-1.703 0.155 0.026z"></path>
<path fill="#000" style="fill: var(--color1, #000)" d="M12.311 29.278l-1.023-0.299 0.484-1.659 0.15 0.044-0.445 1.524 0.746 0.218 0.391-0.953c0.161-0.39 0.347-0.492 0.666-0.399l0.028 0.008-0.041 0.141-0.034-0.010c-0.224-0.066-0.355 0.016-0.47 0.296l-0.454 1.088z"></path>
<path fill="#000" style="fill: var(--color1, #000)" d="M10.556 26.751c0.461 0.229 0.64 0.747 0.411 1.208s-0.748 0.628-1.21 0.399c-0.464-0.231-0.64-0.747-0.412-1.205 0.229-0.461 0.747-0.633 1.211-0.402zM10.489 26.886c-0.384-0.191-0.809-0.048-1.001 0.339-0.191 0.384-0.048 0.809 0.336 0.999s0.809 0.048 1.001-0.339c0.191-0.384 0.045-0.81-0.336-1z"></path>
<path fill="#000" style="fill: var(--color1, #000)" d="M7.833 25.918c0.092 0.074 0.106 0.2 0.032 0.292s-0.198 0.103-0.29 0.029c-0.092-0.074-0.105-0.196-0.031-0.288s0.198-0.108 0.29-0.034z"></path>
<path fill="#000" style="fill: var(--color1, #000)" d="M5.782 24.116c-0.055-0.18-0.003-0.366 0.149-0.494 0.23-0.194 0.565-0.129 0.804 0.155 0.212 0.252 0.232 0.554 0.052 0.768l-0.093-0.11c0.111-0.156 0.087-0.374-0.072-0.563-0.181-0.215-0.431-0.269-0.6-0.127-0.147 0.124-0.168 0.347-0.024 0.518l0.19 0.225-0.1 0.084-0.19-0.225c-0.134-0.159-0.325-0.182-0.457-0.071-0.154 0.13-0.145 0.365 0.020 0.56 0.144 0.171 0.342 0.227 0.503 0.15l0.093 0.11c-0.223 0.133-0.505 0.061-0.703-0.174-0.216-0.257-0.225-0.576-0.017-0.751 0.135-0.113 0.3-0.131 0.445-0.057z"></path>


<path fill="#000" style="fill: var(--color1, #000)" d="M5.176 21.843l-0.127-0.207 0.532-0.326 0.075 0.123-0.407 0.249 0.826 1.348 0.407-0.249 0.075 0.123-0.532 0.326-0.1-0.164c-0.205-0.058-0.391 0.018-1.495 0.586l-0.602-0.982 1.348-0.826zM4.475 23.455c0.925-0.481 1.159-0.572 1.36-0.537l-0.579-0.944-1.228 0.753 0.447 0.729z"></path>
<path fill="#000" style="fill: var(--color1, #000)" d="M4.795 20.559c0.189 0.479-0.025 0.983-0.505 1.172s-0.977-0.035-1.166-0.514c-0.19-0.482 0.025-0.983 0.502-1.171 0.479-0.189 0.979 0.030 1.169 0.513zM4.655 20.614c-0.157-0.399-0.568-0.578-0.97-0.419-0.399 0.157-0.578 0.568-0.42 0.967s0.568 0.578 0.97 0.419c0.399-0.157 0.576-0.571 0.42-0.967z"></path>
<path fill="#000" style="fill: var(--color1, #000)" d="M2.374 18.65c-0.099-0.506 0.209-0.937 0.711-1.035s0.952 0.186 1.051 0.692c0.061 0.311-0.039 0.604-0.248 0.801l0.958-0.187 0.030 0.154-2.299 0.448-0.021-0.11 0.364-0.107c-0.274-0.103-0.483-0.339-0.545-0.657zM3.99 18.345c-0.081-0.415-0.451-0.659-0.875-0.576-0.421 0.082-0.672 0.447-0.592 0.862 0.080 0.411 0.455 0.661 0.873 0.58s0.674-0.454 0.594-0.866z"></path>
<path fill="#000" style="fill: var(--color1, #000)" d="M3.937 16.36c0.005 0.515-0.375 0.909-0.89 0.915s-0.9-0.381-0.905-0.897c-0.005-0.518 0.375-0.909 0.887-0.914 0.515-0.005 0.903 0.378 0.908 0.897zM3.787 16.361c-0.004-0.429-0.324-0.742-0.756-0.738-0.429 0.004-0.742 0.324-0.738 0.753s0.324 0.742 0.756 0.738c0.429-0.004 0.742-0.327 0.738-0.753z"></path>
<path fill="#000" style="fill: var(--color1, #000)" d="M3.218 13.762c0.087-0.184 0.269-0.288 0.475-0.255 0.272 0.043 0.436 0.296 0.39 0.587l-0.129 0.812-1.707-0.271 0.128-0.806c0.044-0.275 0.244-0.434 0.493-0.395 0.183 0.029 0.315 0.157 0.35 0.328zM2.869 13.594c-0.183-0.029-0.321 0.082-0.352 0.278l-0.101 0.635 0.597 0.095 0.101-0.635c0.031-0.196-0.069-0.345-0.245-0.373zM3.931 14.089c0.034-0.215-0.084-0.392-0.276-0.423-0.196-0.031-0.363 0.101-0.397 0.319l-0.101 0.638 0.673 0.107 0.102-0.642z"></path>
<path fill="#000" style="fill: var(--color1, #000)" d="M3.93 11.386c0.018 0.006 0.039 0.016 0.057 0.022l-0.486 1.491c0.39 0.104 0.753-0.091 0.875-0.465 0.088-0.271 0.025-0.53-0.167-0.727l0.052-0.158c0.279 0.259 0.373 0.589 0.261 0.933-0.154 0.472-0.638 0.708-1.125 0.549-0.484-0.158-0.736-0.634-0.582-1.105 0.157-0.481 0.637-0.694 1.115-0.539zM2.956 11.97c-0.119 0.365 0.050 0.723 0.406 0.883l0.438-1.345c-0.388-0.089-0.728 0.106-0.844 0.462z"></path>


<path fill="#000" style="fill: var(--color1, #000)" d="M4.604 8.357l0.123 0.076-0.363 0.588 1.348 0.832-0.081 0.131-1.348-0.832-0.361 0.585-0.123-0.076 0.805-1.304z"></path>
<path fill="#000" style="fill: var(--color1, #000)" d="M4.601 7.791l-0.176-0.134 0.12-0.158 0.176 0.134-0.12 0.158zM6.271 9.037l-1.374-1.048 0.095-0.125 1.374 1.048-0.095 0.125z"></path>
<path fill="#000" style="fill: var(--color1, #000)" d="M5.725 6.983l0.743-0.764 1.239 1.204-0.109 0.112-1.138-1.106-0.542 0.558 0.658 0.792c0.269 0.324 0.272 0.537 0.040 0.776l-0.020 0.021-0.106-0.103 0.025-0.025c0.163-0.168 0.152-0.321-0.042-0.554l-0.748-0.91z"></path>
<path fill="#000" style="fill: var(--color1, #000)" d="M8.705 6.667c-0.417 0.302-0.959 0.22-1.261-0.197s-0.209-0.955 0.208-1.257c0.42-0.304 0.959-0.22 1.259 0.195 0.302 0.417 0.214 0.955-0.206 1.259zM8.617 6.545c0.347-0.251 0.418-0.694 0.165-1.044-0.251-0.347-0.694-0.418-1.041-0.167s-0.418 0.694-0.165 1.044c0.251 0.347 0.696 0.416 1.041 0.167z"></path>
<path fill="#000" style="fill: var(--color1, #000)" d="M10.755 4.609c-0.109 0.047-0.226 0-0.273-0.108s0.001-0.224 0.11-0.271c0.109-0.047 0.222-0.002 0.269 0.107s0.003 0.225-0.105 0.272z"></path>
<path fill="#000" style="fill: var(--color1, #000)" d="M14.362 3.462c0.181 0.050 0.31 0.194 0.336 0.391 0.040 0.298-0.195 0.546-0.563 0.595-0.327 0.044-0.592-0.101-0.676-0.368l0.143-0.019c0.072 0.178 0.269 0.274 0.513 0.241 0.279-0.037 0.458-0.22 0.429-0.438-0.025-0.19-0.202-0.328-0.424-0.298l-0.292 0.039-0.017-0.13 0.292-0.039c0.206-0.028 0.328-0.176 0.305-0.348-0.027-0.2-0.23-0.318-0.484-0.284-0.222 0.030-0.375 0.167-0.396 0.344l-0.143 0.019c0.007-0.259 0.219-0.459 0.524-0.5 0.333-0.045 0.607 0.119 0.643 0.388 0.023 0.174-0.050 0.323-0.191 0.407z"></path>


<path fill="#000" style="fill: var(--color1, #000)" d="M16.575 4.167l0.243 0.004-0.010 0.624-0.144-0.002 0.008-0.477-1.581-0.026-0.008 0.477-0.144-0.002 0.010-0.624 0.192 0.003c0.159-0.141 0.194-0.339 0.308-1.576l1.152 0.019-0.026 1.581zM15.591 2.711c-0.091 1.039-0.14 1.284-0.276 1.436l1.107 0.018 0.024-1.44-0.854-0.014z"></path>
<path fill="#000" style="fill: var(--color1, #000)" d="M17.845 4.527c-0.506-0.098-0.816-0.55-0.718-1.055s0.554-0.805 1.060-0.707c0.509 0.099 0.816 0.55 0.718 1.052-0.098 0.506-0.551 0.809-1.060 0.71zM17.874 4.379c0.421 0.082 0.792-0.169 0.875-0.593 0.082-0.421-0.169-0.792-0.59-0.874s-0.792 0.169-0.875 0.593c-0.082 0.421 0.172 0.793 0.59 0.874z"></path>
<path fill="#000" style="fill: var(--color1, #000)" d="M20.805 3.522c0.479 0.19 0.677 0.681 0.489 1.157s-0.67 0.702-1.149 0.512c-0.295-0.117-0.488-0.358-0.541-0.641l-0.359 0.908-0.146-0.058 0.862-2.178 0.104 0.041-0.106 0.364c0.235-0.176 0.546-0.224 0.847-0.105zM20.191 5.048c0.393 0.155 0.798-0.025 0.957-0.427 0.158-0.399-0.014-0.808-0.407-0.963-0.39-0.154-0.802 0.027-0.959 0.423s0.019 0.813 0.409 0.967z"></path>
<path fill="#000" style="fill: var(--color1, #000)" d="M21.924 6.084c-0.436-0.274-0.563-0.807-0.289-1.243s0.807-0.551 1.243-0.277c0.439 0.276 0.563 0.807 0.291 1.24-0.274 0.436-0.806 0.556-1.245 0.28zM22.004 5.957c0.363 0.228 0.8 0.128 1.030-0.238 0.228-0.363 0.128-0.8-0.235-1.028s-0.8-0.128-1.030 0.238c-0.228 0.363-0.126 0.802 0.235 1.028z"></path>
<path fill="#000" style="fill: var(--color1, #000)" d="M24.475 6.853c0.108 0.173 0.097 0.382-0.041 0.537-0.183 0.206-0.484 0.208-0.704 0.012l-0.615-0.546 1.148-1.292 0.61 0.542c0.208 0.185 0.234 0.44 0.067 0.628-0.123 0.139-0.302 0.181-0.464 0.118zM24.805 6.65c0.123-0.139 0.104-0.314-0.044-0.446l-0.481-0.427-0.402 0.452 0.481 0.427c0.148 0.132 0.327 0.128 0.446-0.006zM23.815 7.277c0.163 0.145 0.375 0.141 0.505-0.005 0.132-0.148 0.11-0.36-0.055-0.507l-0.483-0.429-0.453 0.509 0.486 0.432z"></path>
<path fill="#000" style="fill: var(--color1, #000)" d="M26.104 8.739c-0.015 0.012-0.034 0.024-0.049 0.036l-0.992-1.214c-0.298 0.272-0.33 0.683-0.081 0.988 0.18 0.221 0.433 0.307 0.703 0.253l0.105 0.129c-0.369 0.095-0.698-0.004-0.927-0.284-0.314-0.384-0.251-0.919 0.145-1.243 0.394-0.322 0.931-0.277 1.245 0.107 0.32 0.391 0.24 0.911-0.149 1.229zM26.139 7.603c-0.243-0.297-0.636-0.348-0.962-0.135l0.895 1.095c0.285-0.278 0.304-0.67 0.067-0.96z"></path>


<path fill="#000" style="fill: var(--color1, #000)" d="M28.277 10.895l-0.13 0.063-0.302-0.622-1.425 0.692-0.067-0.138 1.425-0.692-0.3-0.619 0.13-0.063 0.669 1.379z"></path>
<path fill="#000" style="fill: var(--color1, #000)" d="M28.764 11.21l0.207-0.076 0.069 0.186-0.207 0.076-0.069-0.186zM26.817 11.953l1.621-0.598 0.054 0.147-1.621 0.598-0.054-0.147z"></path>
<path fill="#000" style="fill: var(--color1, #000)" d="M28.841 12.571l0.25 1.036-1.68 0.405-0.037-0.152 1.543-0.372-0.182-0.756-1.021 0.134c-0.418 0.055-0.599-0.056-0.677-0.38l-0.007-0.028 0.143-0.034 0.008 0.034c0.055 0.227 0.191 0.3 0.491 0.26l1.169-0.147z"></path>
<path fill="#000" style="fill: var(--color1, #000)" d="M27.525 15.345c-0.030-0.514 0.33-0.927 0.845-0.957s0.917 0.337 0.948 0.851c0.030 0.518-0.33 0.927-0.841 0.957-0.514 0.030-0.92-0.334-0.951-0.851zM27.676 15.337c0.025 0.428 0.36 0.726 0.791 0.7 0.428-0.025 0.726-0.36 0.701-0.788s-0.36-0.726-0.791-0.7c-0.428 0.025-0.726 0.363-0.701 0.788z"></path>


<path fill="#000" style="fill: var(--color1, #000)" d="M28.164 18.094c0.019-0.117 0.121-0.191 0.238-0.173s0.188 0.121 0.17 0.238c-0.018 0.117-0.117 0.189-0.234 0.17s-0.192-0.118-0.173-0.235z"></path>
<path fill="#272727" style="fill: var(--color2, #272727)" d="M10.034 13.947c-1.084-0.362-1.626-1.468-1.262-2.557 0.366-1.094 1.464-1.651 2.548-1.288 0.894 0.299 1.411 1.133 1.287 2.062l-0.794-0.266c-0.008-0.482-0.285-0.879-0.748-1.034-0.626-0.209-1.261 0.134-1.483 0.797s0.081 1.314 0.707 1.523c0.484 0.162 0.956-0.008 1.242-0.427l0.805 0.269c-0.473 0.854-1.392 1.225-2.302 0.92z"></path>
<path fill="#272727" style="fill: var(--color2, #272727)" d="M15.979 11.747l-0.248 0.742-1.026-0.343-0.983 2.941-0.794-0.266 0.983-2.941-1.026-0.343 0.248-0.742 2.846 0.952z"></path>
<path fill="#272727" style="fill: var(--color2, #272727)" d="M17.213 16.254l-0.026-0.781-1.462-0.489-0.485 0.61-0.847-0.283 2.678-3.198 0.752 0.252 0.257 4.18-0.868-0.29zM17.13 13.214l-0.925 1.159 0.968 0.324-0.042-1.482z"></path>
<path fill="#272727" style="fill: var(--color2, #272727)" d="M21.036 13.438c0.736 0.246 1.118 0.976 0.875 1.702s-0.981 1.081-1.723 0.833l-0.621-0.208-0.384 1.147-0.794-0.266 1.231-3.682 1.415 0.473zM20.398 15.225c0.316 0.106 0.607-0.049 0.709-0.354s-0.040-0.598-0.355-0.704l-0.584-0.195-0.354 1.057 0.584 0.195z"></path>
<path fill="#272727" style="fill: var(--color2, #272727)" d="M25.271 14.854l-0.248 0.742-1.026-0.343-0.983 2.941-0.794-0.266 0.983-2.941-1.026-0.343 0.248-0.742 2.846 0.952z"></path>
<path fill="#272727" style="fill: var(--color2, #272727)" d="M9.636 15.977l1.294 0.397-1.083 3.526-0.748-0.23 0.878-2.858-0.546-0.168 0.205-0.668z"></path>
<path fill="#272727" style="fill: var(--color2, #272727)" d="M11.514 16.554l2.524 0.775-0.033 0.106-2.397 3.006-0.785-0.241 2.004-2.5-1.522-0.467 0.208-0.679z"></path>
<path fill="#272727" style="fill: var(--color2, #272727)" d="M12.967 20.859l0.254-0.827 0.822 0.252-0.254 0.827-0.822-0.252z"></path>
<path fill="#272727" style="fill: var(--color2, #272727)" d="M15.672 21.759c-0.875-0.269-1.21-1.143-0.864-2.267s1.106-1.656 1.987-1.386c0.885 0.272 1.217 1.14 0.871 2.264s-1.113 1.66-1.993 1.39zM15.889 21.054c0.435 0.134 0.789-0.187 1.012-0.914 0.221-0.721 0.107-1.197-0.323-1.329s-0.785 0.194-1.006 0.915c-0.223 0.726-0.112 1.196 0.318 1.328z"></path>
<path fill="#272727" style="fill: var(--color2, #272727)" d="M18.556 18.717l2.524 0.775-0.033 0.106-2.397 3.006-0.785-0.241 2.004-2.5-1.522-0.467 0.208-0.679z"></path>
</symbol>
<symbol id="icon-list" viewBox="0 0 32 32" width="24" height="24">
<path d="M19.71 4.29002L17.71 2.29002C17.6166 2.19734 17.5057 2.12401 17.3839 2.07425C17.2621 2.02448 17.1316 1.99926 17 2.00002H6C5.46957 2.00002 4.96086 2.21073 4.58579 2.5858C4.21071 2.96088 4 3.46958 4 4.00002V20C4 20.5305 4.21071 21.0392 4.58579 21.4142C4.96086 21.7893 5.46957 22 6 22H18C18.5304 22 19.0391 21.7893 19.4142 21.4142C19.7893 21.0392 20 20.5305 20 20V5.00002C20.0008 4.86841 19.9755 4.73795 19.9258 4.61611C19.876 4.49427 19.8027 4.38346 19.71 4.29002Z" fill="#FF7400"/>
<path d="M16 18H8C7.73478 18 7.48043 17.8947 7.29289 17.7071C7.10536 17.5196 7 17.2652 7 17C7 16.7348 7.10536 16.4804 7.29289 16.2929C7.48043 16.1054 7.73478 16 8 16H16C16.2652 16 16.5196 16.1054 16.7071 16.2929C16.8946 16.4804 17 16.7348 17 17C17 17.2652 16.8946 17.5196 16.7071 17.7071C16.5196 17.8947 16.2652 18 16 18ZM16 14H8C7.73478 14 7.48043 13.8947 7.29289 13.7071C7.10536 13.5196 7 13.2652 7 13C7 12.7348 7.10536 12.4804 7.29289 12.2929C7.48043 12.1054 7.73478 12 8 12H16C16.2652 12 16.5196 12.1054 16.7071 12.2929C16.8946 12.4804 17 12.7348 17 13C17 13.2652 16.8946 13.5196 16.7071 13.7071C16.5196 13.8947 16.2652 14 16 14ZM16 10H8C7.73478 10 7.48043 9.89466 7.29289 9.70712C7.10536 9.51959 7 9.26523 7 9.00002C7 8.7348 7.10536 8.48045 7.29289 8.29291C7.48043 8.10537 7.73478 8.00002 8 8.00002H16C16.2652 8.00002 16.5196 8.10537 16.7071 8.29291C16.8946 8.48045 17 8.7348 17 9.00002C17 9.26523 16.8946 9.51959 16.7071 9.70712C16.5196 9.89466 16.2652 10 16 10ZM19.71 4.29002L17.71 2.29002C17.6166 2.19734 17.5057 2.12401 17.3839 2.07425C17.2621 2.02448 17.1316 1.99926 17 2.00002V4.00002C17 4.26523 17.1054 4.51959 17.2929 4.70712C17.4804 4.89466 17.7348 5.00002 18 5.00002H20C20.0008 4.86841 19.9755 4.73795 19.9258 4.61611C19.876 4.49427 19.8027 4.38346 19.71 4.29002Z" fill="black"/>
</symbol>
</defs>
</svg>
