<svg aria-hidden="true" style="position: absolute; width: 0; height: 0; overflow: hidden;" version="1.1" xmlns="http://www.w3.org/2000/svg" xmlns:xlink="http://www.w3.org/1999/xlink">
<defs>
<symbol id="icon-apple" viewBox="0 0 32 32">
<path fill="#ff7400" style="fill: var(--color1, #ff7400)" d="M16 10.667c-0.354 0-0.693-0.14-0.943-0.39s-0.391-0.589-0.391-0.943c0.009-1.253 0.308-2.487 0.875-3.604s1.385-2.088 2.391-2.836c0.293-0.157 0.634-0.199 0.956-0.118s0.602 0.28 0.786 0.556 0.257 0.612 0.206 0.941c-0.051 0.328-0.222 0.626-0.481 0.834-0.636 0.508-1.151 1.15-1.509 1.881s-0.548 1.532-0.558 2.346c0 0.354-0.14 0.693-0.391 0.943s-0.589 0.39-0.943 0.39z"></path>
<path fill="#ff7400" style="fill: var(--color1, #ff7400)" d="M23.84 7.2c-0.976-0.397-2.027-0.577-3.079-0.526s-2.081 0.33-3.014 0.82c-0.549 0.268-1.14 0.439-1.747 0.507-0.611-0.068-1.206-0.24-1.76-0.507-0.933-0.49-1.962-0.77-3.014-0.821s-2.104 0.129-3.079 0.528c-3.213 1.333-4.573 4.533-4 9.453 0.64 6.147 3.547 12.68 7.6 12.68 0.947-0.016 1.871-0.298 2.667-0.813 0.464-0.329 1.017-0.51 1.587-0.52 0.555 0.011 1.093 0.188 1.547 0.507 0.796 0.512 1.72 0.794 2.667 0.813 4 0 6.96-6.533 7.627-12.68s-1.787-8.507-4-9.44z"></path>
</symbol>
<symbol id="icon-column" viewBox="0 0 33 32">
<path fill="#ff7400" style="fill: var(--color1, #ff7400)" d="M30 9.013l-1.333-5.333c-0.073-0.296-0.245-0.558-0.488-0.742s-0.541-0.28-0.846-0.271h-5.333c-0.354 0-0.693 0.14-0.943 0.391s-0.391 0.589-0.391 0.943c0 0.354 0.141 0.693 0.391 0.943s0.589 0.391 0.943 0.391h2.827c-5.773 7.587-16.293 9.333-20.16 9.333-0.354 0-0.693 0.14-0.943 0.391s-0.391 0.589-0.391 0.943c0 0.354 0.14 0.693 0.391 0.943s0.589 0.391 0.943 0.391c4.213 0 15.613-1.933 22.080-10.173l0.587 2.493c0.042 0.175 0.118 0.34 0.224 0.486s0.239 0.269 0.393 0.363 0.324 0.157 0.502 0.185c0.178 0.028 0.36 0.021 0.535-0.021s0.34-0.118 0.486-0.224c0.146-0.106 0.269-0.239 0.363-0.393s0.157-0.324 0.185-0.502c0.028-0.178 0.021-0.36-0.021-0.535z"></path>
<path fill="#ff7400" style="fill: var(--color1, #ff7400)" d="M31.333 14.667v13.333c0 0.354-0.141 0.693-0.391 0.943s-0.589 0.391-0.943 0.391h-4c-0.354 0-0.693-0.141-0.943-0.391s-0.391-0.589-0.391-0.943v-13.333c0-0.354 0.141-0.693 0.391-0.943s0.589-0.391 0.943-0.391h4c0.354 0 0.693 0.141 0.943 0.391s0.391 0.589 0.391 0.943zM19.333 18.667h-4c-0.354 0-0.693 0.141-0.943 0.391s-0.391 0.589-0.391 0.943v8c0 0.354 0.141 0.693 0.391 0.943s0.589 0.391 0.943 0.391h4c0.354 0 0.693-0.141 0.943-0.391s0.391-0.589 0.391-0.943v-8c0-0.354-0.141-0.693-0.391-0.943s-0.589-0.391-0.943-0.391zM8.667 21.333h-4c-0.354 0-0.693 0.141-0.943 0.391s-0.391 0.589-0.391 0.943v5.333c0 0.354 0.14 0.693 0.391 0.943s0.589 0.391 0.943 0.391h4c0.354 0 0.693-0.141 0.943-0.391s0.391-0.589 0.391-0.943v-5.333c0-0.354-0.14-0.693-0.391-0.943s-0.589-0.391-0.943-0.391z"></path>
</symbol>
<symbol id="icon-cross" viewBox="0 0 33 32">
<path fill="#ff7400" style="fill: var(--color1, #ff7400)" d="M27.333 2.667h-21.333c-1.473 0-2.667 1.194-2.667 2.667v21.333c0 1.473 1.194 2.667 2.667 2.667h21.333c1.473 0 2.667-1.194 2.667-2.667v-21.333c0-1.473-1.194-2.667-2.667-2.667z"></path>
<path fill="#000" style="fill: var(--color2, #000)" d="M18.547 16l3.067-3.053c0.251-0.251 0.392-0.592 0.392-0.947s-0.141-0.696-0.392-0.947c-0.251-0.251-0.592-0.392-0.947-0.392s-0.696 0.141-0.947 0.392l-3.053 3.067-3.053-3.067c-0.251-0.251-0.592-0.392-0.947-0.392s-0.696 0.141-0.947 0.392c-0.251 0.251-0.392 0.592-0.392 0.947s0.141 0.696 0.392 0.947l3.067 3.053-3.067 3.053c-0.125 0.124-0.224 0.271-0.292 0.434s-0.103 0.337-0.103 0.513c0 0.176 0.035 0.35 0.103 0.513s0.167 0.31 0.292 0.434c0.124 0.125 0.271 0.224 0.434 0.292s0.337 0.103 0.513 0.103 0.35-0.035 0.513-0.103c0.162-0.068 0.31-0.167 0.434-0.292l3.053-3.067 3.053 3.067c0.124 0.125 0.271 0.224 0.434 0.292s0.337 0.103 0.513 0.103c0.176 0 0.35-0.035 0.513-0.103s0.31-0.167 0.434-0.292c0.125-0.124 0.224-0.271 0.292-0.434s0.103-0.337 0.103-0.513c0-0.176-0.035-0.35-0.103-0.513s-0.167-0.31-0.292-0.434l-3.067-3.053z"></path>
</symbol>
<symbol id="icon-list" viewBox="0 0 32 32">
<path fill="#ff7400" style="fill: var(--color1, #ff7400)" d="M26.28 5.72l-2.667-2.667c-0.125-0.124-0.272-0.221-0.435-0.288s-0.336-0.1-0.512-0.099h-14.667c-0.707 0-1.386 0.281-1.886 0.781s-0.781 1.178-0.781 1.886v21.333c0 0.707 0.281 1.386 0.781 1.886s1.178 0.781 1.886 0.781h16c0.707 0 1.385-0.281 1.886-0.781s0.781-1.178 0.781-1.886v-20c0.001-0.175-0.033-0.349-0.099-0.512s-0.164-0.31-0.288-0.435z"></path>
<path fill="#000" style="fill: var(--color2, #000)" d="M21.333 24h-10.667c-0.354 0-0.693-0.14-0.943-0.391s-0.391-0.589-0.391-0.943 0.14-0.693 0.391-0.943c0.25-0.25 0.589-0.391 0.943-0.391h10.667c0.354 0 0.693 0.141 0.943 0.391s0.391 0.589 0.391 0.943c0 0.354-0.141 0.693-0.391 0.943s-0.589 0.391-0.943 0.391zM21.333 18.667h-10.667c-0.354 0-0.693-0.14-0.943-0.391s-0.391-0.589-0.391-0.943 0.14-0.693 0.391-0.943c0.25-0.25 0.589-0.391 0.943-0.391h10.667c0.354 0 0.693 0.141 0.943 0.391s0.391 0.589 0.391 0.943c0 0.354-0.141 0.693-0.391 0.943s-0.589 0.391-0.943 0.391zM21.333 13.333h-10.667c-0.354 0-0.693-0.14-0.943-0.39s-0.391-0.589-0.391-0.943c0-0.354 0.14-0.693 0.391-0.943s0.589-0.391 0.943-0.391h10.667c0.354 0 0.693 0.14 0.943 0.391s0.391 0.589 0.391 0.943c0 0.354-0.141 0.693-0.391 0.943s-0.589 0.39-0.943 0.39zM26.28 5.72l-2.667-2.667c-0.125-0.124-0.272-0.221-0.435-0.288s-0.336-0.1-0.512-0.099v2.667c0 0.354 0.141 0.693 0.391 0.943s0.589 0.391 0.943 0.391h2.667c0.001-0.175-0.033-0.349-0.099-0.512s-0.164-0.31-0.288-0.435z"></path>
</symbol>
</defs>
</svg>
