<svg aria-hidden="true" style="position: absolute; width: 0; height: 0; overflow: hidden;" version="1.1" xmlns="http://www.w3.org/2000/svg" xmlns:xlink="http://www.w3.org/1999/xlink">
<defs>
<symbol id="icon-menu" viewBox="0 0 32 32">
<path d="M6.4 11.733v-2.133h19.2v2.133h-19.2zM6.4 17.067h19.2v-2.133h-19.2v2.133zM6.4 22.4h19.2v-2.133h-19.2v2.133z"></path>
</symbol>
<symbol id="icon-close" viewBox="0 0 32 32">
<path d="M23.733 10.304l-1.504-1.504-5.963 5.963-5.963-5.963-1.504 1.504 5.963 5.963-5.963 5.963 1.504 1.504 5.963-5.963 5.963 5.963 1.504-1.504-5.963-5.963 5.963-5.963z"></path>
</symbol>
<symbol id="icon-email" viewBox="0 0 32 32">
<path d="M26.667 5.333h-21.333c-1.467 0-2.653 1.2-2.653 2.667l-0.013 16c0 1.467 1.2 2.667 2.667 2.667h21.333c1.467 0 2.667-1.2 2.667-2.667v-16c0-1.467-1.2-2.667-2.667-2.667zM26.133 11l-9.427 5.893c-0.427 0.267-0.987 0.267-1.413 0l-9.427-5.893c-0.333-0.213-0.533-0.573-0.533-0.96 0-0.893 0.973-1.427 1.733-0.96l8.933 5.587 8.933-5.587c0.76-0.467 1.733 0.067 1.733 0.96 0 0.387-0.2 0.747-0.533 0.96z"></path>
</symbol>
<symbol id="icon-phone" viewBox="0 0 32 32">
<path d="M24.881 19.774l-3.268-0.373c-0.785-0.090-1.557 0.18-2.11 0.733l-2.367 2.367c-3.641-1.853-6.626-4.825-8.478-8.478l2.38-2.38c0.553-0.553 0.823-1.325 0.733-2.11l-0.373-3.242c-0.154-1.299-1.248-2.277-2.56-2.277h-2.226c-1.454 0-2.663 1.209-2.573 2.663 0.682 10.987 9.469 19.761 20.443 20.443 1.454 0.090 2.663-1.119 2.663-2.573v-2.226c0.013-1.299-0.965-2.393-2.264-2.547z"></path>
</symbol>
<symbol id="icon-person" viewBox="0 0 32 32">
<path d="M16 16c2.947 0 5.333-2.387 5.333-5.333s-2.387-5.333-5.333-5.333c-2.947 0-5.333 2.387-5.333 5.333s2.387 5.333 5.333 5.333zM16 18.667c-3.56 0-10.667 1.787-10.667 5.333v1.333c0 0.733 0.6 1.333 1.333 1.333h18.667c0.733 0 1.333-0.6 1.333-1.333v-1.333c0-3.547-7.107-5.333-10.667-5.333z"></path>
</symbol>
<symbol id="icon-mark" viewBox="0 0 32 32">
<path  d="M0 0h32v32h-32v-32z"></path>
</symbol>
<symbol id="icon-instagram" viewBox="0 0 32 32">
<path fill="#000" style="fill: var(--color1, #000)" d="M31.904 9.408c-0.077-1.702-0.352-2.867-0.742-3.885-0.41-1.050-0.954-1.946-1.843-2.829s-1.779-1.44-2.829-1.843c-1.018-0.397-2.182-0.666-3.885-0.742-1.709-0.077-2.253-0.096-6.592-0.096-4.346 0-4.89 0.019-6.592 0.096s-2.867 0.352-3.885 0.742c-1.056 0.41-1.952 0.954-2.835 1.843s-1.44 1.779-1.843 2.829c-0.39 1.018-0.666 2.182-0.742 3.885-0.077 1.709-0.096 2.253-0.096 6.592 0 4.346 0.019 4.89 0.096 6.592s0.352 2.867 0.742 3.885c0.41 1.050 0.954 1.946 1.843 2.829 0.883 0.89 1.779 1.44 2.829 1.843 1.018 0.397 2.182 0.666 3.885 0.742 1.709 0.077 2.253 0.096 6.592 0.096 4.346 0 4.89-0.019 6.592-0.096s2.867-0.352 3.885-0.742c1.050-0.41 1.946-0.954 2.829-1.843s1.44-1.779 1.843-2.829c0.397-1.018 0.666-2.182 0.742-3.885 0.077-1.709 0.096-2.253 0.096-6.592s-0.013-4.89-0.090-6.592zM29.030 22.464c-0.070 1.562-0.333 2.413-0.55 2.97-0.288 0.742-0.64 1.28-1.203 1.843s-1.094 0.902-1.843 1.203c-0.563 0.218-1.414 0.48-2.97 0.55-1.683 0.077-2.189 0.096-6.464 0.096s-4.781-0.019-6.464-0.096c-1.562-0.070-2.413-0.333-2.97-0.55-0.742-0.288-1.28-0.64-1.843-1.203s-0.902-1.094-1.203-1.843c-0.218-0.563-0.48-1.414-0.55-2.97-0.077-1.683-0.096-2.189-0.096-6.464s0.019-4.781 0.096-6.464c0.070-1.562 0.333-2.413 0.55-2.97 0.288-0.742 0.64-1.28 1.203-1.843s1.094-0.902 1.843-1.203c0.563-0.218 1.414-0.48 2.97-0.55 1.683-0.077 2.189-0.096 6.464-0.096s4.781 0.019 6.464 0.096c1.562 0.070 2.413 0.333 2.97 0.55 0.742 0.288 1.28 0.64 1.843 1.203s0.902 1.094 1.203 1.843c0.218 0.563 0.48 1.414 0.55 2.97 0.077 1.683 0.096 2.189 0.096 6.464s-0.026 4.781-0.096 6.464z"></path>
<path fill="#000" style="fill: var(--color1, #000)" d="M16 7.782c-4.544 0-8.218 3.68-8.218 8.218 0 4.544 3.68 8.218 8.218 8.218s8.218-3.686 8.218-8.218c0-4.544-3.674-8.218-8.218-8.218zM16 21.331c-2.944 0-5.331-2.387-5.331-5.331s2.387-5.331 5.331-5.331 5.331 2.387 5.331 5.331-2.387 5.331-5.331 5.331z"></path>
<path fill="#bc30a0" style="fill: var(--color2, #bc30a0)" d="M26.458 7.462c0 1.060-0.86 1.92-1.92 1.92s-1.92-0.86-1.92-1.92c0-1.060 0.86-1.92 1.92-1.92s1.92 0.86 1.92 1.92z"></path>
<path fill="#000" style="fill: var(--color1, #000)" d="M0 16c0 4.346 0.019 4.89 0.096 6.592s0.352 2.867 0.742 3.885c0.41 1.050 0.954 1.946 1.843 2.829 0.883 0.883 1.779 1.44 2.829 1.843 1.018 0.397 2.182 0.666 3.885 0.742 1.709 0.077 2.253 0.096 6.592 0.096 4.346 0 4.89-0.019 6.592-0.096s2.867-0.352 3.885-0.742c1.050-0.41 1.946-0.954 2.829-1.843 0.883-0.883 1.44-1.779 1.843-2.829 0.397-1.018 0.666-2.182 0.742-3.885 0.077-1.709 0.096-2.253 0.096-6.592 0-4.346-0.019-4.89-0.096-6.592s-0.352-2.867-0.742-3.885c-0.41-1.050-0.954-1.946-1.843-2.829-0.877-0.89-1.773-1.44-2.822-1.843-1.018-0.397-2.182-0.666-3.885-0.742-1.709-0.077-2.253-0.096-6.592-0.096-4.346 0-4.89 0.019-6.592 0.096s-2.867 0.352-3.885 0.742c-1.050 0.41-1.946 0.954-2.829 1.843s-1.44 1.779-1.843 2.829c-0.397 1.018-0.672 2.182-0.749 3.885s-0.096 2.246-0.096 6.592zM2.886 16c0-4.269 0.019-4.781 0.096-6.464 0.070-1.562 0.333-2.413 0.55-2.97 0.288-0.742 0.64-1.28 1.203-1.843s1.094-0.902 1.843-1.203c0.563-0.218 1.414-0.48 2.97-0.55 1.683-0.077 2.189-0.096 6.464-0.096s4.781 0.019 6.464 0.096c1.562 0.070 2.413 0.333 2.97 0.55 0.742 0.288 1.28 0.64 1.843 1.203s0.902 1.094 1.203 1.843c0.218 0.563 0.48 1.414 0.55 2.97 0.077 1.683 0.096 2.189 0.096 6.464s-0.019 4.781-0.096 6.464c-0.070 1.562-0.333 2.413-0.55 2.97-0.288 0.742-0.64 1.28-1.203 1.843s-1.094 0.902-1.843 1.203c-0.563 0.218-1.414 0.48-2.97 0.55-1.683 0.077-2.189 0.096-6.464 0.096s-4.781-0.019-6.464-0.096c-1.562-0.070-2.413-0.333-2.97-0.55-0.742-0.288-1.28-0.64-1.843-1.203s-0.902-1.094-1.203-1.843c-0.218-0.563-0.48-1.414-0.55-2.97-0.083-1.683-0.096-2.195-0.096-6.464z"></path>
</symbol>
<symbol id="icon-scroll_up" viewBox="0 0 32 32"><path d="M4.5 19.6 15.7 8.367c.133-.133.278-.228.433-.283s.322-.084.5-.084.345.028.5.084.3.149.433.283L28.799 19.6c.311.311.467.7.467 1.167s-.167.867-.5 1.2c-.333.333-.722.5-1.167.5s-.833-.167-1.167-.5l-9.8-9.8-9.8 9.8c-.311.311-.694.467-1.149.467s-.851-.167-1.184-.5-.5-.722-.5-1.167c0-.444.167-.833.5-1.167z"/></symbol>
<symbol id="icon-Vector" viewBox="0 0 42 32"><path fill="#fff" stroke="#fff" stroke-width=".64" d="m6.263 15.205-.22-.21-3.307 3.132 11.651 11.114L38.864 5.89l-3.285-3.134-21.192 20.197-8.124-7.75z" style=""/></symbol>
</defs>
</svg>
