<svg aria-hidden="true" style="position: absolute; width: 0; height: 0; overflow: hidden;" version="1.1" xmlns="http://www.w3.org/2000/svg" xmlns:xlink="http://www.w3.org/1999/xlink">
<defs>
<symbol id="icon-apple" viewBox="0 0 32 32">
<path fill="#ff7400" style="fill: var(--color1, #ff7400)" d="M16 10.667c-0.354 0-0.693-0.14-0.943-0.39s-0.391-0.589-0.391-0.943c0.009-1.253 0.308-2.487 0.875-3.604s1.385-2.088 2.391-2.836c0.293-0.157 0.634-0.199 0.956-0.118s0.602 0.28 0.786 0.556 0.257 0.612 0.206 0.941c-0.051 0.328-0.222 0.626-0.481 0.834-0.636 0.508-1.151 1.15-1.509 1.881s-0.548 1.532-0.558 2.346c0 0.354-0.14 0.693-0.391 0.943s-0.589 0.39-0.943 0.39z"></path>
<path fill="#ff7400" style="fill: var(--color1, #ff7400)" d="M23.84 7.2c-0.976-0.397-2.027-0.577-3.079-0.526s-2.081 0.33-3.014 0.82c-0.549 0.268-1.14 0.439-1.747 0.507-0.611-0.068-1.206-0.24-1.76-0.507-0.933-0.49-1.962-0.77-3.014-0.821s-2.104 0.129-3.079 0.528c-3.213 1.333-4.573 4.533-4 9.453 0.64 6.147 3.547 12.68 7.6 12.68 0.947-0.016 1.871-0.298 2.667-0.813 0.464-0.329 1.017-0.51 1.587-0.52 0.555 0.011 1.093 0.188 1.547 0.507 0.796 0.512 1.72 0.794 2.667 0.813 4 0 6.96-6.533 7.627-12.68s-1.787-8.507-4-9.44z"></path>
</symbol>
<symbol id="icon-column" viewBox="0 0 33 32">
<path fill="#ff7400" style="fill: var(--color1, #ff7400)" d="M30 9.013l-1.333-5.333c-0.073-0.296-0.245-0.558-0.488-0.742s-0.541-0.28-0.846-0.271h-5.333c-0.354 0-0.693 0.14-0.943 0.391s-0.391 0.589-0.391 0.943c0 0.354 0.141 0.693 0.391 0.943s0.589 0.391 0.943 0.391h2.827c-5.773 7.587-16.293 9.333-20.16 9.333-0.354 0-0.693 0.14-0.943 0.391s-0.391 0.589-0.391 0.943c0 0.354 0.14 0.693 0.391 0.943s0.589 0.391 0.943 0.391c4.213 0 15.613-1.933 22.080-10.173l0.587 2.493c0.042 0.175 0.118 0.34 0.224 0.486s0.239 0.269 0.393 0.363 0.324 0.157 0.502 0.185c0.178 0.028 0.36 0.021 0.535-0.021s0.34-0.118 0.486-0.224c0.146-0.106 0.269-0.239 0.363-0.393s0.157-0.324 0.185-0.502c0.028-0.178 0.021-0.36-0.021-0.535z"></path>
<path fill="#ff7400" style="fill: var(--color1, #ff7400)" d="M31.333 14.667v13.333c0 0.354-0.141 0.693-0.391 0.943s-0.589 0.391-0.943 0.391h-4c-0.354 0-0.693-0.141-0.943-0.391s-0.391-0.589-0.391-0.943v-13.333c0-0.354 0.141-0.693 0.391-0.943s0.589-0.391 0.943-0.391h4c0.354 0 0.693 0.141 0.943 0.391s0.391 0.589 0.391 0.943zM19.333 18.667h-4c-0.354 0-0.693 0.141-0.943 0.391s-0.391 0.589-0.391 0.943v8c0 0.354 0.141 0.693 0.391 0.943s0.589 0.391 0.943 0.391h4c0.354 0 0.693-0.141 0.943-0.391s0.391-0.589 0.391-0.943v-8c0-0.354-0.141-0.693-0.391-0.943s-0.589-0.391-0.943-0.391zM8.667 21.333h-4c-0.354 0-0.693 0.141-0.943 0.391s-0.391 0.589-0.391 0.943v5.333c0 0.354 0.14 0.693 0.391 0.943s0.589 0.391 0.943 0.391h4c0.354 0 0.693-0.141 0.943-0.391s0.391-0.589 0.391-0.943v-5.333c0-0.354-0.14-0.693-0.391-0.943s-0.589-0.391-0.943-0.391z"></path>
</symbol>
<symbol id="icon-cross" viewBox="0 0 33 32">
<path fill="#ff7400" style="fill: var(--color1, #ff7400)" d="M27.333 2.667h-21.333c-1.473 0-2.667 1.194-2.667 2.667v21.333c0 1.473 1.194 2.667 2.667 2.667h21.333c1.473 0 2.667-1.194 2.667-2.667v-21.333c0-1.473-1.194-2.667-2.667-2.667z"></path>
<path fill="#000" style="fill: var(--color2, #000)" d="M18.547 16l3.067-3.053c0.251-0.251 0.392-0.592 0.392-0.947s-0.141-0.696-0.392-0.947c-0.251-0.251-0.592-0.392-0.947-0.392s-0.696 0.141-0.947 0.392l-3.053 3.067-3.053-3.067c-0.251-0.251-0.592-0.392-0.947-0.392s-0.696 0.141-0.947 0.392c-0.251 0.251-0.392 0.592-0.392 0.947s0.141 0.696 0.392 0.947l3.067 3.053-3.067 3.053c-0.125 0.124-0.224 0.271-0.292 0.434s-0.103 0.337-0.103 0.513c0 0.176 0.035 0.35 0.103 0.513s0.167 0.31 0.292 0.434c0.124 0.125 0.271 0.224 0.434 0.292s0.337 0.103 0.513 0.103 0.35-0.035 0.513-0.103c0.162-0.068 0.31-0.167 0.434-0.292l3.053-3.067 3.053 3.067c0.124 0.125 0.271 0.224 0.434 0.292s0.337 0.103 0.513 0.103c0.176 0 0.35-0.035 0.513-0.103s0.31-0.167 0.434-0.292c0.125-0.124 0.224-0.271 0.292-0.434s0.103-0.337 0.103-0.513c0-0.176-0.035-0.35-0.103-0.513s-0.167-0.31-0.292-0.434l-3.067-3.053z"></path>
</symbol>
<symbol id="icon-list" viewBox="0 0 32 32">
<path fill="#ff7400" style="fill: var(--color1, #ff7400)" d="M26.28 5.72l-2.667-2.667c-0.125-0.124-0.272-0.221-0.435-0.288s-0.336-0.1-0.512-0.099h-14.667c-0.707 0-1.386 0.281-1.886 0.781s-0.781 1.178-0.781 1.886v21.333c0 0.707 0.281 1.386 0.781 1.886s1.178 0.781 1.886 0.781h16c0.707 0 1.385-0.281 1.886-0.781s0.781-1.178 0.781-1.886v-20c0.001-0.175-0.033-0.349-0.099-0.512s-0.164-0.31-0.288-0.435z"></path>
<path fill="#000" style="fill: var(--color2, #000)" d="M21.333 24h-10.667c-0.354 0-0.693-0.14-0.943-0.391s-0.391-0.589-0.391-0.943 0.14-0.693 0.391-0.943c0.25-0.25 0.589-0.391 0.943-0.391h10.667c0.354 0 0.693 0.141 0.943 0.391s0.391 0.589 0.391 0.943c0 0.354-0.141 0.693-0.391 0.943s-0.589 0.391-0.943 0.391zM21.333 18.667h-10.667c-0.354 0-0.693-0.14-0.943-0.391s-0.391-0.589-0.391-0.943 0.14-0.693 0.391-0.943c0.25-0.25 0.589-0.391 0.943-0.391h10.667c0.354 0 0.693 0.141 0.943 0.391s0.391 0.589 0.391 0.943c0 0.354-0.141 0.693-0.391 0.943s-0.589 0.391-0.943 0.391zM21.333 13.333h-10.667c-0.354 0-0.693-0.14-0.943-0.39s-0.391-0.589-0.391-0.943c0-0.354 0.14-0.693 0.391-0.943s0.589-0.391 0.943-0.391h10.667c0.354 0 0.693 0.14 0.943 0.391s0.391 0.589 0.391 0.943c0 0.354-0.141 0.693-0.391 0.943s-0.589 0.39-0.943 0.39zM26.28 5.72l-2.667-2.667c-0.125-0.124-0.272-0.221-0.435-0.288s-0.336-0.1-0.512-0.099v2.667c0 0.354 0.141 0.693 0.391 0.943s0.589 0.391 0.943 0.391h2.667c0.001-0.175-0.033-0.349-0.099-0.512s-0.164-0.31-0.288-0.435z"></path>
</symbol>
<symbol id="icon-body-title" viewBox="0 0 141 32">
<path fill="#ff7400" style="fill: var(--color1, #ff7400)" d="M133.698 6.8c-0.398 0-0.692 0.126-0.88 0.377-0.168 0.231-0.294 0.618-0.377 1.163l-2.043 12.89c-0.126 0.88 0.199 1.32 0.975 1.32 0.671 0 1.080-0.44 1.226-1.32l2.043-12.89c0.147-1.027-0.168-1.54-0.943-1.54zM133.352 2.713h0.849c1.823 0 3.123 0.534 3.898 1.603s1.027 2.515 0.755 4.339l-1.949 12.324c-0.65 3.835-2.369 5.753-5.156 5.753h-0.849c-1.761 0-3.060-0.524-3.898-1.572-0.817-1.048-1.080-2.494-0.786-4.339l1.918-12.135c0.314-1.991 0.859-3.479 1.635-4.464 0.797-1.006 1.991-1.509 3.584-1.509z"></path>
<path fill="#ff7400" style="fill: var(--color1, #ff7400)" d="M118.896 26.386l3.050-19.272h-1.603c-1.195 7.713-2.086 12.764-2.672 15.153-0.356 1.467-0.87 2.526-1.54 3.175-0.671 0.629-1.74 0.943-3.207 0.943h-1.037l0.66-4.244h0.251c0.398 0 0.692-0.115 0.88-0.346s0.346-0.639 0.472-1.226c0.943-4.8 1.949-10.658 3.018-17.574h9.494l-3.71 23.39h-4.056z"></path>
<path fill="#ff7400" style="fill: var(--color1, #ff7400)" d="M113.425 2.996l-3.71 23.39h-4.056l3.71-23.39h4.056z"></path>
<path fill="#ff7400" style="fill: var(--color1, #ff7400)" d="M97.45 2.996h9.872l-0.66 4.118h-2.861l-3.050 19.272h-4.056l3.050-19.272h-2.955l0.66-4.118z"></path>
<path fill="#ff7400" style="fill: var(--color1, #ff7400)" d="M82.387 2.996h8.646l-0.66 4.118h-4.559l-0.817 5.093h3.647l-0.692 4.213h-3.647l-0.912 5.753h4.842l-0.692 4.213h-8.866l3.71-23.39z"></path>
<path fill="#ff7400" style="fill: var(--color1, #ff7400)" d="M65.998 26.386l3.71-23.39h5.816c1.425 0 2.442 0.335 3.050 1.006 0.629 0.65 0.817 1.708 0.566 3.175l-0.472 2.987c-0.293 1.865-1.121 2.997-2.484 3.395 1.425 0.524 2.002 1.75 1.729 3.678l-0.597 3.898c-0.314 1.865-0.786 3.207-1.415 4.024-0.607 0.817-1.519 1.226-2.735 1.226h-7.168zM72.663 15.917h-0.943l-1.1 6.759h1.163c0.377 0 0.66-0.084 0.849-0.252s0.336-0.566 0.44-1.195l0.597-3.773c0.084-0.524 0.053-0.912-0.094-1.163s-0.45-0.377-0.912-0.377zM74.109 6.58h-0.912l-0.88 5.565h1.006c0.336 0 0.587-0.084 0.755-0.252 0.189-0.168 0.336-0.493 0.44-0.975l0.503-3.112c0.126-0.817-0.178-1.226-0.912-1.226z"></path>
<path fill="#ff7400" style="fill: var(--color1, #ff7400)" d="M61.311 6.8c-0.398 0-0.692 0.126-0.88 0.377-0.167 0.231-0.293 0.618-0.377 1.163l-2.044 12.89c-0.126 0.88 0.199 1.32 0.975 1.32 0.671 0 1.080-0.44 1.226-1.32l2.044-12.89c0.147-1.027-0.167-1.54-0.943-1.54zM60.966 2.713h0.849c1.823 0 3.123 0.534 3.898 1.603s1.027 2.515 0.755 4.339l-1.949 12.324c-0.65 3.835-2.368 5.753-5.156 5.753h-0.849c-1.761 0-3.060-0.524-3.898-1.572-0.817-1.048-1.079-2.494-0.786-4.339l1.918-12.135c0.314-1.991 0.859-3.479 1.635-4.464 0.797-1.006 1.991-1.509 3.584-1.509z"></path>
<path fill="#ff7400" style="fill: var(--color1, #ff7400)" d="M48.778 17.017h-2.358l-1.478 9.369h-4.056l3.71-23.39h5.376c1.656 0 2.777 0.398 3.364 1.195 0.608 0.775 0.775 1.918 0.503 3.427l-0.755 4.684c-0.231 1.53-0.671 2.704-1.32 3.521-0.65 0.796-1.645 1.195-2.987 1.195zM48.086 6.611l-1.037 6.602h0.849c0.398 0 0.671-0.094 0.817-0.283s0.252-0.514 0.314-0.975l0.629-3.961c0.147-0.922-0.136-1.383-0.849-1.383h-0.723z"></path>
<path fill="#ff7400" style="fill: var(--color1, #ff7400)" d="M36.2 6.8c-0.398 0-0.692 0.126-0.88 0.377-0.168 0.231-0.293 0.618-0.377 1.163l-2.044 12.89c-0.126 0.88 0.199 1.32 0.975 1.32 0.671 0 1.079-0.44 1.226-1.32l2.044-12.89c0.147-1.027-0.168-1.54-0.943-1.54zM35.854 2.713h0.849c1.823 0 3.123 0.534 3.898 1.603s1.027 2.515 0.755 4.339l-1.949 12.324c-0.65 3.835-2.368 5.753-5.156 5.753h-0.849c-1.761 0-3.060-0.524-3.898-1.572-0.817-1.048-1.079-2.494-0.786-4.339l1.918-12.135c0.314-1.991 0.859-3.479 1.635-4.464 0.796-1.006 1.991-1.509 3.584-1.509z"></path>
<path fill="#ff7400" style="fill: var(--color1, #ff7400)" d="M14.459 22.173h0.786c0.042-0.126 0.126-0.398 0.252-0.817 0.231-0.755 0.43-1.572 0.597-2.452 0.775-3.94 1.666-9.243 2.672-15.908h9.715l-3.050 19.178h1.1l-1.163 7.514h-3.741l0.503-3.301h-4.59l-0.503 3.301h-3.741l1.163-7.514zM19.081 22.173h2.326l2.389-15.059h-1.823c-0.88 5.533-1.582 9.589-2.106 12.167-0.272 1.153-0.451 1.855-0.534 2.106-0.021 0.063-0.063 0.189-0.126 0.377-0.042 0.189-0.084 0.325-0.126 0.409z"></path>
<path fill="#ff7400" style="fill: var(--color1, #ff7400)" d="M4.594 10.195l0.472-3.018c0.21-1.509 0.66-2.63 1.352-3.364 0.713-0.734 1.792-1.1 3.238-1.1h0.723c1.698 0 2.882 0.43 3.553 1.289 0.692 0.838 0.933 1.991 0.723 3.458l-0.44 2.892c-0.293 1.761-0.964 2.84-2.012 3.238 1.132 0.398 1.562 1.551 1.289 3.458l-0.755 4.842c-0.272 1.719-0.796 2.955-1.572 3.71-0.755 0.755-1.865 1.132-3.332 1.132h-0.88c-3.312 0-4.726-1.614-4.244-4.842l0.629-4.087h4.056l-0.566 3.71c-0.126 0.734 0.105 1.1 0.692 1.1 0.566 0 0.912-0.367 1.037-1.1l0.692-4.401c0.063-0.398 0.042-0.681-0.063-0.849-0.084-0.168-0.304-0.252-0.66-0.252h-2.043l0.66-4.181h1.949c0.356 0 0.597-0.073 0.723-0.22 0.147-0.147 0.252-0.419 0.314-0.817l0.472-2.924c0.126-0.713-0.094-1.069-0.66-1.069-0.272 0-0.482 0.073-0.629 0.22s-0.252 0.43-0.314 0.849l-0.377 2.326h-4.024z"></path>
<path fill="#272727" style="fill: var(--color4, #272727)" d="M136.904 20.979l1.949-12.324c0.273-1.823 0.021-3.27-0.755-4.339s-2.075-1.603-3.898-1.603h-0.849c-1.593 0-2.787 0.503-3.584 1.509-0.775 0.985-1.32 2.473-1.635 4.464l-1.918 12.135c-0.293 1.844-0.031 3.291 0.786 4.339 0.839 1.048 2.138 1.572 3.898 1.572h0.849c2.788 0 4.506-1.918 5.156-5.753zM125.915 8.335c0 0 0-0 0 0 0.342-2.163 0.973-4.086 2.088-5.503l0.004-0.005c1.324-1.672 3.248-2.361 5.345-2.361h0.849c2.248 0 4.371 0.676 5.716 2.53 1.238 1.707 1.482 3.817 1.158 5.989l-0.001 0.009-1.953 12.346-0.002 0.012c-0.362 2.137-1.066 4.041-2.318 5.439-1.323 1.477-3.079 2.185-5.052 2.185h-0.849c-2.213 0-4.262-0.678-5.652-2.415l-0.009-0.011-0.008-0.011c-1.334-1.711-1.583-3.867-1.233-6.070zM125.915 8.335v0zM130.397 21.23c-0.126 0.88 0.199 1.32 0.975 1.32 0.579 0 0.963-0.328 1.151-0.983 0.003-0.011 0.006-0.021 0.009-0.032 0.017-0.063 0.033-0.13 0.047-0.199 0.007-0.035 0.013-0.070 0.019-0.106l2.043-12.89c0.147-1.027-0.167-1.54-0.943-1.54-0.398 0-0.692 0.126-0.88 0.377-0.13 0.179-0.236 0.454-0.315 0.824-0.002 0.011-0.005 0.022-0.007 0.033-0.005 0.024-0.010 0.049-0.015 0.074-0.015 0.074-0.028 0.151-0.040 0.232l-2.043 12.89z"></path>
<path fill="#272727" style="fill: var(--color4, #272727)" d="M116.954 24.288c0.285-0.554 0.523-1.228 0.716-2.021 0.587-2.389 1.478-7.44 2.672-15.153h1.603l-3.050 19.272h4.056l3.71-23.39h-9.494c-1.069 6.916-2.075 12.775-3.018 17.574-0.126 0.587-0.283 0.996-0.472 1.226s-0.482 0.346-0.88 0.346h-0.251l-0.66 4.244h1.037c0.454 0 0.871-0.030 1.249-0.091 0.842-0.134 1.494-0.419 1.958-0.853 0.308-0.299 0.583-0.683 0.825-1.155zM111.993 19.896c0.922-4.715 1.907-10.461 2.955-17.243l0.294-1.903h14.050l-4.422 27.882h-8.602l0.107-0.675c-1.054 0.504-2.262 0.675-3.451 0.675h-3.66l0.349-2.246h0.103l1.029-6.49h1.248z"></path>
<path fill="#272727" style="fill: var(--color4, #272727)" d="M116.055 0.75l-3.393 21.392h-0.117l-0.66 4.244h0.104l-0.356 2.246h-8.603l3.413-21.517h0.219l0.66-4.118h-0.226l0.356-2.246h8.603zM113.425 2.996h-4.056l-3.71 23.39h4.056l3.71-23.39z"></path>
<path fill="#272727" style="fill: var(--color4, #272727)" d="M95.536 0.75h14.42l-0.36 2.246h-0.226l-1.009 6.364h-2.642l-3.050 19.272h-8.602l3.050-19.272h-2.961l1.38-8.61zM99.745 7.114l-3.050 19.272h4.056l3.050-19.272h2.861l0.66-4.118h-9.872l-0.66 4.118h2.955z"></path>
<path fill="#272727" style="fill: var(--color4, #272727)" d="M80.469 0.75h13.197l-1.38 8.61h-4.559l-0.097 0.602h3.656l-1.429 8.704h-3.636l-0.2 1.262h4.856l-1.429 8.704h-13.403l0.947-5.971c0.121-0.462 0.229-0.97 0.322-1.525l0.597-3.898c0.039-0.275 0.061-0.536 0.065-0.782l2.49-15.705zM83.393 22.173l0.912-5.753h3.647l0.692-4.213h-3.647l0.817-5.093h4.559l0.66-4.118h-8.646l-3.71 23.39h8.866l0.692-4.213h-4.842z"></path>
<path fill="#272727" style="fill: var(--color4, #272727)" d="M63.368 28.632l4.422-27.882h7.733c1.69 0 3.464 0.386 4.689 1.717 1.35 1.418 1.432 3.372 1.143 5.074l-0.469 2.972c-0.189 1.198-0.588 2.32-1.253 3.233 0.029 0.056 0.057 0.113 0.084 0.171 0.409 0.87 0.538 1.813 0.501 2.749l-1.024 6.456c-0.336 1.316-0.811 2.489-1.502 3.393-1.116 1.49-2.761 2.117-4.526 2.117h-9.798zM75.901 25.16c0.629-0.817 1.1-2.159 1.415-4.024l0.597-3.898c0.107-0.752 0.084-1.398-0.069-1.937-0.238-0.842-0.792-1.422-1.661-1.742 0.83-0.242 1.461-0.757 1.894-1.543 0.278-0.505 0.475-1.123 0.589-1.852l0.472-2.987c0.251-1.467 0.063-2.526-0.566-3.175-0.608-0.671-1.624-1.006-3.050-1.006h-5.816l-3.71 23.39h7.168c1.216 0 2.127-0.409 2.735-1.226zM74.851 6.841c-0.156-0.174-0.403-0.261-0.742-0.261h-0.912l-0.88 5.565h1.006c0.335 0 0.587-0.084 0.755-0.252 0.026-0.024 0.052-0.050 0.077-0.080 0.152-0.182 0.273-0.48 0.363-0.894l0.503-3.112c0.068-0.44 0.011-0.761-0.17-0.965zM73.515 16.209c-0.162-0.195-0.446-0.292-0.852-0.292h-0.943l-1.1 6.759h1.163c0.377 0 0.66-0.084 0.849-0.252s0.335-0.566 0.44-1.195l0.597-3.773c0.084-0.524 0.052-0.912-0.094-1.163-0.017-0.030-0.037-0.058-0.059-0.085z"></path>
<path fill="#272727" style="fill: var(--color4, #272727)" d="M64.518 20.979l1.949-12.324c0.273-1.823 0.021-3.27-0.755-4.339s-2.075-1.603-3.898-1.603h-0.849c-1.593 0-2.787 0.503-3.584 1.509-0.775 0.985-1.32 2.473-1.635 4.464l-1.918 12.135c-0.293 1.844-0.031 3.291 0.786 4.339 0.838 1.048 2.138 1.572 3.898 1.572h0.849c2.788 0 4.506-1.918 5.156-5.753zM53.719 8.366l0.121-0.748c0.086-0.478 0.129-0.92 0.126-1.324 0.371-1.328 0.902-2.508 1.652-3.46l0.004-0.005c1.324-1.672 3.248-2.361 5.345-2.361h0.849c2.248 0 4.371 0.676 5.716 2.53 1.238 1.707 1.482 3.817 1.158 5.989l-0.001 0.009-1.953 12.346-0.002 0.012c-0.362 2.137-1.066 4.041-2.318 5.439-1.323 1.477-3.079 2.185-5.052 2.185h-0.849c-2.213 0-4.262-0.678-5.652-2.415l-0.009-0.011-0.009-0.011c-1.334-1.711-1.584-3.867-1.233-6.070-0 0 0-0 0 0s0-0.002 0-0.002l0.97-6.139c0.22-0.587 0.388-1.263 0.503-2.028l0.634-3.936zM58.010 21.23c-0.126 0.88 0.199 1.32 0.975 1.32 0.579 0 0.963-0.328 1.151-0.983 0.003-0.011 0.006-0.021 0.009-0.032 0.017-0.063 0.033-0.13 0.047-0.199 0.007-0.035 0.013-0.070 0.019-0.106l2.044-12.89c0.147-1.027-0.167-1.54-0.943-1.54-0.398 0-0.692 0.126-0.88 0.377-0.13 0.179-0.235 0.454-0.315 0.824-0.003 0.011-0.005 0.022-0.007 0.033-0.005 0.024-0.010 0.049-0.015 0.074-0.015 0.074-0.028 0.151-0.040 0.232l-2.044 12.89z"></path>
<path fill="#272727" style="fill: var(--color4, #272727)" d="M49.451 6.826c0.227 0.22 0.296 0.61 0.207 1.169l-0.629 3.961c-0.063 0.461-0.168 0.786-0.314 0.975s-0.419 0.283-0.817 0.283h-0.849l1.037-6.602h0.723c0.281 0 0.495 0.072 0.642 0.215zM51.764 15.823c0.65-0.817 1.090-1.991 1.32-3.521l0.755-4.684c0.273-1.509 0.105-2.651-0.503-3.427-0.587-0.796-1.708-1.195-3.364-1.195h-5.376l-3.71 23.39h4.056l1.478-9.369h2.358c1.341 0 2.337-0.398 2.987-1.195zM54.767 14.89c-0.299 0.862-0.704 1.65-1.244 2.33l-0.009 0.011-0.009 0.011c-1.199 1.47-2.932 2.021-4.727 2.021h-0.439l-1.478 9.369h-8.605l4.422-27.882h7.294c1.882 0 3.919 0.434 5.152 2.081 0.863 1.117 1.133 2.458 1.080 3.806-0.123 0.405-0.231 0.841-0.325 1.309-0.003 0.013-0.005 0.026-0.008 0.038-0.045 0.227-0.086 0.461-0.125 0.702l-0.98 6.204z"></path>
<path fill="#272727" style="fill: var(--color4, #272727)" d="M39.407 20.979l1.949-12.324c0.273-1.823 0.021-3.27-0.755-4.339s-2.075-1.603-3.898-1.603h-0.849c-1.593 0-2.788 0.503-3.584 1.509-0.775 0.985-1.32 2.473-1.635 4.464l-1.918 12.135c-0.293 1.844-0.031 3.291 0.786 4.339 0.838 1.048 2.138 1.572 3.898 1.572h0.849c2.788 0 4.506-1.918 5.156-5.753zM32.899 21.23c-0.126 0.88 0.199 1.32 0.975 1.32 0.579 0 0.963-0.328 1.151-0.983 0.003-0.011 0.006-0.021 0.009-0.032 0.017-0.063 0.033-0.13 0.047-0.199 0.007-0.035 0.013-0.070 0.019-0.106l2.044-12.89c0.147-1.027-0.168-1.54-0.943-1.54-0.398 0-0.692 0.126-0.88 0.377-0.13 0.179-0.236 0.454-0.315 0.824-0.002 0.011-0.005 0.022-0.007 0.033-0.005 0.024-0.010 0.049-0.015 0.074-0.014 0.074-0.028 0.151-0.040 0.232l-2.044 12.89zM43.576 8.996l-1.955 12.358c-0.362 2.137-1.066 4.041-2.318 5.439-1.323 1.477-3.079 2.185-5.052 2.185h-0.849c-2.213 0-4.262-0.678-5.652-2.415l-0.009-0.011-0.009-0.011c-0.805-1.032-1.215-2.225-1.337-3.494l0.135-0.874h-0.175c0.001-0.56 0.052-1.129 0.143-1.702-0 0 0-0 0 0s0-0.002 0-0.002l1.917-12.133c0 0 0-0 0 0 0.342-2.163 0.973-4.086 2.088-5.503l0.004-0.005c1.324-1.672 3.248-2.361 5.345-2.361h0.849c2.248 0 4.371 0.676 5.716 2.53 1.238 1.707 1.482 3.817 1.158 5.989l-0.001 0.009z"></path>
<path fill="#272727" style="fill: var(--color4, #272727)" d="M13.566 19.928c0.117-0.453 0.225-0.934 0.322-1.444l0.001-0.007 0.001-0.007c0.766-3.893 1.651-9.159 2.655-15.809l0.288-1.91h14.277l-3.050 19.178h0.797l-0.141 0.894c-0.095 0.6-0.132 1.158-0.11 1.673 0.009 0.205 0.027 0.404 0.054 0.596l-1.369 8.842h-8.28l0.503-3.301h-0.047l-0.503 3.301h-8.291l1.101-7.113c0.444-0.731 0.763-1.702 0.957-2.914 0.001-0.005 0.002-0.011 0.003-0.016l0.306-1.963h0.524zM17.54 26.386h4.59l-0.503 3.301h3.741l1.163-7.514h-1.1l3.050-19.178h-9.715c-1.006 6.665-1.897 11.968-2.672 15.908-0.168 0.88-0.367 1.698-0.597 2.452-0.126 0.419-0.21 0.692-0.252 0.817h-0.786l-1.163 7.514h3.741l0.503-3.301zM19.867 19.281c-0.055 0.234-0.107 0.45-0.154 0.647-0.187 0.773-0.313 1.259-0.38 1.46l-0.126 0.377c-0.004 0.020-0.009 0.039-0.013 0.057-0.038 0.159-0.075 0.276-0.113 0.351h2.326l2.389-15.059h-1.823c-0.88 5.533-1.582 9.589-2.106 12.167z"></path>
<path fill="#272727" style="fill: var(--color4, #272727)" d="M1.97 12.441l0.874-5.592c0.244-1.741 0.807-3.374 1.939-4.576l0.011-0.012 0.012-0.012c1.285-1.323 3.051-1.781 4.849-1.781h0.723c1.989 0 4.013 0.496 5.304 2.129 1.208 1.48 1.459 3.335 1.195 5.182l-0.001 0.010-0.444 2.918-0.003 0.016c-0.174 1.044-0.497 2.097-1.057 2.989 0.038 0.085 0.073 0.171 0.106 0.259 0.4 1.072 0.399 2.262 0.237 3.397l-0.002 0.014-0.747 4.793h-0.506l-0.525 3.389c-0.317 0.61-0.709 1.163-1.193 1.636-1.312 1.305-3.080 1.779-4.91 1.779h-0.88c-1.952 0-3.913-0.47-5.233-1.976-1.328-1.515-1.519-3.52-1.232-5.443l0.001-0.005 0.922-5.996h2.869l0.492-3.117h-2.8zM8.618 10.195l0.377-2.326c0.013-0.090 0.029-0.174 0.046-0.251 0.002-0.008 0.003-0.015 0.005-0.023 0.063-0.271 0.151-0.463 0.263-0.575 0.147-0.147 0.356-0.22 0.629-0.22 0.566 0 0.786 0.356 0.66 1.069l-0.472 2.924c-0.063 0.398-0.168 0.671-0.314 0.817-0.126 0.147-0.367 0.22-0.723 0.22h-1.949l-0.66 4.181h2.044c0.083 0 0.159 0.005 0.228 0.014 0.224 0.030 0.368 0.109 0.432 0.238 0.105 0.168 0.126 0.451 0.063 0.849l-0.692 4.401c-0.016 0.091-0.034 0.176-0.057 0.255-0.003 0.010-0.006 0.020-0.009 0.030-0.161 0.543-0.485 0.815-0.972 0.815-0.587 0-0.817-0.367-0.692-1.1l0.566-3.71h-4.056l-0.629 4.087c-0.482 3.228 0.933 4.842 4.244 4.842h0.88c1.467 0 2.578-0.377 3.333-1.132 0.775-0.755 1.299-1.991 1.572-3.71l0.755-4.842c0.087-0.611 0.102-1.145 0.046-1.601-0.121-0.967-0.566-1.586-1.335-1.857 0.7-0.266 1.232-0.837 1.595-1.711 0.18-0.434 0.319-0.943 0.417-1.527l0.44-2.892c0.21-1.467-0.031-2.62-0.723-3.458-0.671-0.859-1.855-1.289-3.553-1.289h-0.723c-1.446 0-2.526 0.367-3.238 1.1-0.692 0.734-1.142 1.855-1.352 3.364l-0.472 3.018h4.024z"></path>
</symbol>
<symbol id="icon-fitness-title" viewBox="0 0 52 32">
<path fill="#ff7400" style="fill: var(--color1, #ff7400)" d="M33.509 28.003l0.409-2.547h2.028l-0.409 2.578c-0.115 0.838-0.367 1.504-0.755 1.996s-0.996 0.739-1.823 0.739h-0.409c-0.912 0-1.535-0.257-1.871-0.77-0.335-0.524-0.445-1.179-0.33-1.965l1.053-6.634c0.147-0.838 0.409-1.488 0.786-1.949 0.377-0.472 0.98-0.707 1.808-0.707h0.424c1.729 0 2.452 0.859 2.169 2.578l-0.314 1.996h-2.028l0.314-1.918c0.063-0.451-0.089-0.676-0.456-0.676-0.189 0-0.325 0.052-0.409 0.157-0.073 0.105-0.131 0.278-0.173 0.519l-1.053 6.634c-0.031 0.199-0.010 0.362 0.063 0.487 0.084 0.126 0.22 0.189 0.409 0.189 0.178 0 0.304-0.058 0.377-0.173 0.084-0.115 0.147-0.293 0.189-0.534z"></path>
<path fill="#ff7400" style="fill: var(--color1, #ff7400)" d="M26.643 18.901h4.323l-0.33 2.059h-2.279l-0.409 2.547h1.823l-0.346 2.106h-1.823l-0.456 2.877h2.421l-0.346 2.106h-4.433l1.855-11.695z"></path>
<path fill="#ff7400" style="fill: var(--color1, #ff7400)" d="M21.405 25.661l-0.786 4.936h-2.028l1.855-11.695h2.028l-0.707 4.464h1.085l0.707-4.464h2.028l-1.855 11.695h-2.028l0.786-4.936h-1.085z"></path>
<path fill="#ff7400" style="fill: var(--color1, #ff7400)" d="M14.643 18.901h4.936l-0.33 2.059h-1.43l-1.525 9.636h-2.028l1.525-9.636h-1.478l0.33-2.059z"></path>
<path fill="#ff7400" style="fill: var(--color1, #ff7400)" d="M13.778 18.901l-1.855 11.695h-2.028l1.855-11.695h2.028z"></path>
<path fill="#ff7400" style="fill: var(--color1, #ff7400)" d="M5.632 19.703l0.157-0.959h2.028l-0.157 0.959h0.11c1.918 0 2.719 1.027 2.405 3.081l-0.566 3.6c-0.178 1.027-0.529 1.808-1.053 2.342-0.524 0.524-1.305 0.786-2.342 0.786h-0.11l-0.204 1.242h-2.028l0.204-1.242h-0.11c-1.928 0-2.73-1.027-2.405-3.081l0.566-3.6c0.314-2.085 1.446-3.128 3.395-3.128h0.11zM5.302 21.794h-0.016c-0.314 0-0.55 0.063-0.707 0.189-0.147 0.126-0.246 0.356-0.299 0.692l-0.613 3.82c-0.052 0.325-0.031 0.561 0.063 0.707 0.105 0.147 0.32 0.22 0.644 0.22h0.031l0.896-5.628zM7.33 21.794l-0.896 5.628c0.314 0 0.55-0.063 0.707-0.189 0.157-0.136 0.262-0.367 0.314-0.692l0.597-3.82c0.052-0.325 0.026-0.561-0.079-0.707-0.094-0.147-0.304-0.22-0.629-0.22h-0.016z"></path>
<path fill="#ff7400" style="fill: var(--color1, #ff7400)" d="M46.636 14.877l0.99-6.209-2.342 6.209h-1.996l1.855-11.695h1.996l-0.99 6.256 2.342-6.256h1.996l-1.855 11.695h-1.996zM48.019 2.821h-0.063c-0.524 0-0.922-0.147-1.195-0.44-0.273-0.304-0.377-0.723-0.314-1.258h1.273c-0.021 0.136-0.005 0.252 0.047 0.346 0.063 0.084 0.157 0.126 0.283 0.126h0.016c0.273 0 0.409-0.157 0.409-0.472h1.305c-0.021 0.534-0.194 0.954-0.519 1.258-0.314 0.293-0.728 0.44-1.242 0.44z"></path>
<path fill="#ff7400" style="fill: var(--color1, #ff7400)" d="M40.239 14.877l0.99-6.209-2.342 6.209h-1.996l1.855-11.695h1.996l-0.99 6.256 2.342-6.256h1.996l-1.855 11.695h-1.996z"></path>
<path fill="#ff7400" style="fill: var(--color1, #ff7400)" d="M29.435 14.877l1.855-11.695h2.405l-0.157 5.942 1.698-5.942h2.484l-1.855 11.695h-1.839l1.116-6.995-2.106 6.995h-0.786l0.079-6.995-1.116 6.995h-1.776z"></path>
<path fill="#ff7400" style="fill: var(--color1, #ff7400)" d="M27.249 5.084c-0.199 0-0.346 0.063-0.44 0.189-0.084 0.115-0.147 0.309-0.189 0.582l-1.022 6.445c-0.063 0.44 0.1 0.66 0.487 0.66 0.335 0 0.54-0.22 0.613-0.66l1.022-6.445c0.073-0.513-0.084-0.77-0.472-0.77zM27.076 3.041h0.424c0.912 0 1.561 0.267 1.949 0.802s0.514 1.258 0.377 2.169l-0.975 6.162c-0.325 1.918-1.184 2.877-2.578 2.877h-0.424c-0.88 0-1.53-0.262-1.949-0.786-0.409-0.524-0.54-1.247-0.393-2.169l0.959-6.068c0.157-0.996 0.43-1.74 0.817-2.232 0.398-0.503 0.996-0.755 1.792-0.755z"></path>
<path fill="#ff7400" style="fill: var(--color1, #ff7400)" d="M16.536 12.771h0.393c0.021-0.063 0.063-0.199 0.126-0.409 0.115-0.377 0.215-0.786 0.299-1.226 0.388-1.97 0.833-4.621 1.336-7.954h4.857l-1.525 9.589h0.55l-0.582 3.757h-1.871l0.252-1.651h-2.295l-0.252 1.651h-1.871l0.582-3.757zM18.847 12.771h1.163l1.195-7.53h-0.912c-0.44 2.767-0.791 4.794-1.053 6.083-0.136 0.576-0.225 0.927-0.267 1.053-0.010 0.031-0.031 0.094-0.063 0.189-0.021 0.094-0.042 0.162-0.063 0.204z"></path>
<path fill="#ff7400" style="fill: var(--color1, #ff7400)" d="M17.243 3.182l-1.855 11.695h-2.028l1.855-11.695h2.028z"></path>
<path fill="#ff7400" style="fill: var(--color1, #ff7400)" d="M7.178 14.877l1.855-11.695h2.908c0.713 0 1.221 0.168 1.525 0.503 0.314 0.325 0.409 0.854 0.283 1.588l-0.236 1.493c-0.147 0.933-0.561 1.499-1.242 1.698 0.713 0.262 1.001 0.875 0.865 1.839l-0.299 1.949c-0.157 0.933-0.393 1.603-0.707 2.012-0.304 0.409-0.76 0.613-1.368 0.613h-3.584zM10.511 9.643h-0.472l-0.55 3.38h0.582c0.189 0 0.33-0.042 0.424-0.126s0.168-0.283 0.22-0.597l0.299-1.886c0.042-0.262 0.026-0.456-0.047-0.582s-0.225-0.189-0.456-0.189zM11.234 4.974h-0.456l-0.44 2.782h0.503c0.168 0 0.293-0.042 0.377-0.126 0.094-0.084 0.168-0.246 0.22-0.487l0.252-1.556c0.063-0.409-0.089-0.613-0.456-0.613z"></path>
<path fill="#ff7400" style="fill: var(--color1, #ff7400)" d="M4.579 12.284l0.409-2.547h2.028l-0.409 2.578c-0.115 0.838-0.367 1.504-0.755 1.996s-0.996 0.739-1.823 0.739h-0.409c-0.912 0-1.535-0.257-1.871-0.77-0.335-0.524-0.445-1.179-0.33-1.965l1.053-6.634c0.147-0.838 0.409-1.488 0.786-1.949 0.377-0.472 0.98-0.707 1.808-0.707h0.424c1.729 0 2.452 0.859 2.169 2.578l-0.314 1.996h-2.028l0.314-1.918c0.063-0.451-0.089-0.676-0.456-0.676-0.189 0-0.325 0.052-0.409 0.157-0.073 0.105-0.131 0.278-0.173 0.519l-1.053 6.634c-0.031 0.199-0.010 0.362 0.063 0.487 0.084 0.126 0.22 0.189 0.409 0.189 0.178 0 0.304-0.058 0.377-0.173 0.084-0.115 0.147-0.293 0.189-0.534z"></path>
<path fill="#272727" style="fill: var(--color2, #272727)" d="M29.354 29.788l0.213-1.297h-0.383c0.005-0.204 0.024-0.411 0.054-0.619l1.057-6.655 0.002-0.009c0.015-0.083 0.030-0.165 0.047-0.247h0.292l0.251-1.567c0.124-0.232 0.266-0.449 0.429-0.649 0.662-0.824 1.648-1.124 2.68-1.124h0.424c1.016 0 2.030 0.25 2.698 1.044 0.665 0.791 0.744 1.831 0.579 2.834 0 0.001-0 0.003-0.001 0.004l-0.445 2.829h0.008l-0.613 3.866c-0.134 0.965-0.438 1.834-0.983 2.526-0.665 0.845-1.653 1.167-2.706 1.167h-0.409c-1.094 0-2.18-0.313-2.811-1.279l-0.003-0.004-0.003-0.005c-0.166-0.259-0.291-0.533-0.38-0.817zM36.59 21.322c0.283-1.719-0.44-2.578-2.169-2.578h-0.424c-0.828 0-1.43 0.236-1.808 0.707-0.377 0.461-0.639 1.111-0.786 1.949l-1.053 6.634c-0.115 0.786-0.005 1.441 0.33 1.965 0.335 0.513 0.959 0.77 1.871 0.77h0.409c0.828 0 1.436-0.246 1.823-0.739s0.639-1.158 0.755-1.996l0.409-2.578h-2.028l-0.409 2.547c-0.012 0.068-0.025 0.131-0.040 0.189 0 0-0 0.001-0 0.001-0.038 0.147-0.088 0.262-0.148 0.345-0.073 0.115-0.199 0.173-0.377 0.173-0.189 0-0.325-0.063-0.409-0.189-0.073-0.126-0.094-0.288-0.063-0.487l1.053-6.634c0.009-0.050 0.018-0.097 0.028-0.141 0.002-0.008 0.004-0.016 0.006-0.024 0.037-0.157 0.084-0.275 0.139-0.354 0.084-0.105 0.22-0.157 0.409-0.157 0.367 0 0.519 0.225 0.456 0.676l-0.314 1.918h2.028l0.314-1.996z"></path>
<path fill="#272727" style="fill: var(--color2, #272727)" d="M23.651 30.596h0.080l1.855-11.695h-0.080l0.178-1.123h6.599l-0.319 1.993c-0.217 0.358-0.384 0.799-0.5 1.322-0.022 0.099-0.042 0.202-0.061 0.307l-0.108 0.683h-1.981l-0.048 0.301h1.828l-0.715 4.352h-1.818l-0.1 0.631h1.994l-0.106 0.667c-0.029 0.201-0.044 0.393-0.044 0.577-0 0.395 0.068 0.751 0.204 1.067l-0.335 2.040h-6.701l0.178-1.123zM28.357 20.961h2.279l0.33-2.059h-4.323l-1.855 11.695h4.433l0.346-2.106h-2.421l0.456-2.877h1.823l0.346-2.106h-1.823l0.409-2.547z"></path>
<path fill="#272727" style="fill: var(--color2, #272727)" d="M18.982 20.961h0.266l0.33-2.059h-0.27l0.178-1.123h7.414l-0.178 1.123h-0.080l-1.855 11.695h0.080l-0.178 1.123h-7.414l1.706-10.759zM20.446 18.901l-1.855 11.695h2.028l0.786-4.936h1.085l-0.786 4.936h2.028l1.855-11.695h-2.028l-0.707 4.464h-1.085l0.707-4.464h-2.028z"></path>
<path fill="#272727" style="fill: var(--color2, #272727)" d="M13.778 18.901h-0.272l0.18-1.123h7.21l-0.18 1.123h-0.27l-0.505 3.182h-1.164l-1.525 9.636h-4.301l1.525-9.636h-1.203l0.505-3.182zM15.79 20.961l-1.525 9.636h2.028l1.525-9.636h1.43l0.33-2.059h-4.936l-0.33 2.059h1.478z"></path>
<path fill="#272727" style="fill: var(--color2, #272727)" d="M9.212 27.741c0.176-0.391 0.308-0.843 0.397-1.357l0.566-3.6c0.076-0.499 0.087-0.938 0.031-1.315l0.585-3.69h4.301l-0.178 1.123h-0.272l-0.33 2.059h0.276l-1.706 10.759h-4.301l0.631-3.979zM13.778 18.901h-2.028l-1.855 11.695h2.028l1.855-11.695z"></path>
<path fill="#272727" style="fill: var(--color2, #272727)" d="M5.789 18.744l-0.157 0.959h-0.11c-1.949 0-3.081 1.043-3.395 3.128l-0.566 3.6c-0.261 1.649 0.205 2.637 1.397 2.961 0.292 0.080 0.628 0.12 1.008 0.12h0.11l-0.204 1.242h2.028l0.204-1.242h0.11c1.037 0 1.818-0.262 2.342-0.786 0.524-0.534 0.875-1.315 1.053-2.342l0.566-3.6c0.252-1.647-0.214-2.634-1.397-2.96-0.28-0.077-0.6-0.117-0.961-0.121-0.016-0-0.031-0-0.047-0h-0.11l0.157-0.959h-2.028zM7.794 21.868c-0.111-0.049-0.26-0.074-0.449-0.074h-0.016l-0.896 5.628c0.314 0 0.55-0.063 0.707-0.189 0.157-0.136 0.262-0.367 0.314-0.692l0.597-3.82c0.052-0.325 0.026-0.561-0.079-0.707-0.040-0.062-0.1-0.11-0.18-0.146zM3.909 27.342c0.116 0.053 0.271 0.079 0.466 0.079h0.031l0.896-5.628h-0.016c-0.314 0-0.55 0.063-0.707 0.189-0.147 0.126-0.246 0.356-0.299 0.692l-0.613 3.82c-0.052 0.325-0.031 0.561 0.063 0.707 0.042 0.059 0.102 0.106 0.179 0.141zM8.96 18.712c0.678 0.164 1.286 0.496 1.734 1.070 0.387 0.495 0.582 1.081 0.645 1.707l-1.041 6.566c-0.23 0.553-0.538 1.045-0.941 1.456l-0.004 0.004-0.004 0.004c-0.614 0.614-1.406 0.939-2.284 1.059l-0.213 1.297h-4.304l0.226-1.373c-0.681-0.164-1.292-0.496-1.741-1.071-0.681-0.872-0.764-2.021-0.582-3.177 0 0 0-0 0 0l0.565-3.592c0-0.001 0-0.002 0.001-0.004 0.182-1.201 0.621-2.253 1.434-3.001 0.62-0.571 1.378-0.894 2.218-1.018l0.167-1.020h4.303l-0.179 1.091z"></path>
<path fill="#272727" style="fill: var(--color2, #272727)" d="M45.284 14.877l2.342-6.209-0.99 6.209h1.996l1.855-11.695h-1.996l-2.342 6.256 0.99-6.256h-1.996l-1.855 11.695h1.996zM41.973 16l0.178-1.123h0.084l1.855-11.695h-0.084l0.178-1.123h1.194c-0.079-0.349-0.087-0.712-0.045-1.068l0.117-0.992h5.499l-0.046 1.167c-0.012 0.307-0.061 0.608-0.154 0.892h1.054l-2.211 13.941h-7.618zM46.447 1.123c-0.024 0.2-0.024 0.385 0 0.553 0.019 0.139 0.055 0.267 0.107 0.384 0.029 0.066 0.063 0.128 0.103 0.186 0.031 0.047 0.067 0.092 0.105 0.135 0.106 0.115 0.232 0.207 0.377 0.277 0.095 0.046 0.198 0.082 0.309 0.108 0.154 0.037 0.323 0.055 0.509 0.055h0.063c0.11 0 0.216-0.007 0.317-0.020 0.053-0.007 0.104-0.016 0.155-0.027 0.302-0.065 0.559-0.196 0.77-0.393 0.045-0.043 0.088-0.088 0.128-0.135 0.049-0.059 0.094-0.121 0.134-0.186 0.157-0.258 0.243-0.57 0.257-0.936h-1.305c0 0.041-0.002 0.079-0.007 0.115-0.031 0.238-0.165 0.357-0.402 0.357h-0.016c-0.126 0-0.22-0.042-0.283-0.126-0.022-0.040-0.038-0.085-0.047-0.133-0.012-0.064-0.012-0.135 0-0.213h-1.273z"></path>
<path fill="#272727" style="fill: var(--color2, #272727)" d="M35.754 14.877l-0.178 1.123h7.618l0.178-1.123h-0.084l1.855-11.695h0.084l0.178-1.123h-7.618l-0.178 1.123h0.111l-1.855 11.695h-0.111zM40.742 3.182l-0.99 6.256 2.342-6.256h1.996l-1.855 11.695h-1.996l0.99-6.209-2.342 6.209h-1.996l1.855-11.695h1.996z"></path>
<path fill="#272727" style="fill: var(--color2, #272727)" d="M28.54 13.354c0.133-0.342 0.237-0.735 0.312-1.18l0.975-6.162c0.055-0.367 0.067-0.703 0.037-1.008l0.467-2.944h8.703l-0.178 1.123h-0.11l-1.855 11.695h0.11l-0.178 1.123h-8.703l0.42-2.646zM33.695 3.182h-2.405l-1.855 11.695h1.776l1.116-6.995-0.079 6.995h0.786l2.106-6.995-1.116 6.995h1.839l1.855-11.695h-2.484l-1.698 5.942 0.157-5.942z"></path>
<path fill="#272727" style="fill: var(--color2, #272727)" d="M22.428 13.705l0.145-0.934h-0.245c0.001-0.28 0.026-0.565 0.072-0.851 0-0-0 0 0 0s0-0.001 0-0.001l0.959-6.066c0-0-0 0 0 0 0.171-1.082 0.486-2.043 1.044-2.751l0.002-0.002c0.662-0.836 1.624-1.18 2.672-1.18h0.424c1.124 0 2.185 0.338 2.858 1.265 0.401 0.553 0.594 1.191 0.635 1.866l-1.363 8.592c-0.198 0.547-0.469 1.035-0.831 1.439-0.662 0.738-1.539 1.093-2.526 1.093h-0.424c-1.107 0-2.131-0.339-2.826-1.207l-0.004-0.005-0.004-0.005c-0.295-0.379-0.484-0.801-0.588-1.25zM24.467 6.027l-0.959 6.068c-0.147 0.922-0.016 1.645 0.393 2.169 0.419 0.524 1.069 0.786 1.949 0.786h0.424c1.394 0 2.253-0.959 2.578-2.877l0.975-6.162c0.136-0.912 0.011-1.635-0.377-2.169s-1.037-0.802-1.949-0.802h-0.424c-0.796 0-1.394 0.252-1.792 0.755-0.388 0.493-0.66 1.237-0.817 2.232zM25.599 12.299c-0.063 0.44 0.1 0.66 0.487 0.66 0.289 0 0.481-0.164 0.576-0.492 0.002-0.005 0.003-0.011 0.005-0.016 0.009-0.032 0.016-0.065 0.023-0.099 0.003-0.017 0.007-0.035 0.010-0.053l1.022-6.445c0.073-0.513-0.084-0.77-0.472-0.77-0.199 0-0.346 0.063-0.44 0.189-0.065 0.090-0.118 0.227-0.158 0.412-0.001 0.005-0.002 0.011-0.003 0.016-0.003 0.012-0.005 0.025-0.007 0.037-0.007 0.037-0.014 0.076-0.020 0.116l-1.022 6.445z"></path>
<path fill="#272727" style="fill: var(--color2, #272727)" d="M15.074 14.877h0.315l0.512-3.229h0.189c0.059-0.226 0.112-0.467 0.161-0.722l0.001-0.003 0.001-0.003c0.383-1.947 0.826-4.579 1.328-7.905l0.144-0.955h7.139l-1.525 9.589h0.241l-0.071 0.447c-0.046 0.29-0.065 0.561-0.056 0.812 0.009 0.267 0.050 0.511 0.122 0.733l-0.621 4.010h-4.14l0.252-1.651h-0.023l-0.252 1.651h-4.145l0.429-2.773zM16.929 12.771h-0.393l-0.582 3.757h1.871l0.252-1.651h2.295l-0.251 1.651h1.871l0.582-3.757h-0.55l1.525-9.589h-4.857c-0.503 3.332-0.948 5.984-1.336 7.954-0.084 0.44-0.183 0.849-0.299 1.226-0.063 0.21-0.105 0.346-0.126 0.409zM21.205 5.241l-1.195 7.53h-1.163c0.019-0.038 0.038-0.096 0.056-0.176 0.002-0.009 0.004-0.019 0.007-0.029l0.063-0.189c0.033-0.1 0.097-0.344 0.19-0.73 0.024-0.098 0.050-0.206 0.077-0.323 0.262-1.289 0.613-3.317 1.053-6.083h0.912z"></path>
<path fill="#272727" style="fill: var(--color2, #272727)" d="M12.39 13.83c0.188-0.397 0.337-0.922 0.448-1.578l0.299-1.949c0.053-0.375 0.042-0.697-0.034-0.966l0.382-2.41c0.010-0.052 0.020-0.106 0.029-0.161l0.236-1.493c0.011-0.067 0.021-0.132 0.029-0.196l0.479-3.018h4.301l-1.699 10.712h-0.323l-0.5 3.229h-3.991l0.344-2.17zM17.243 3.182h-2.028l-1.855 11.695h2.028l1.855-11.695z"></path>
<path fill="#272727" style="fill: var(--color2, #272727)" d="M7.196 7.599h0.15l0.314-1.996c0.069-0.419 0.078-0.786 0.028-1.103l0.387-2.44h3.867c0.845 0 1.732 0.193 2.345 0.858 0.618 0.65 0.705 1.524 0.603 2.321l-0.298 1.881c-0.104 0.532-0.296 1.027-0.595 1.438 0.015 0.028 0.029 0.056 0.042 0.085 0.1 0.213 0.167 0.435 0.206 0.661l-0.769 4.849c-0.125 0.292-0.274 0.558-0.45 0.789-0.558 0.745-1.381 1.059-2.263 1.059h-4.899l0.367-2.316c0.179-0.389 0.304-0.845 0.376-1.37l0.409-2.578h-0.159l0.339-2.138zM13.466 3.685c-0.304-0.335-0.812-0.503-1.525-0.503h-2.908l-1.855 11.695h3.584c0.608 0 1.064-0.204 1.368-0.613 0.314-0.409 0.55-1.079 0.707-2.012l0.299-1.949c0.053-0.376 0.042-0.699-0.034-0.968-0.119-0.421-0.396-0.711-0.83-0.871 0.415-0.121 0.73-0.378 0.947-0.772 0.139-0.253 0.237-0.561 0.295-0.926l0.236-1.493c0.126-0.734 0.031-1.263-0.283-1.588zM11.605 5.105c-0.078-0.087-0.201-0.131-0.371-0.131h-0.456l-0.44 2.782h0.503c0.168 0 0.293-0.042 0.377-0.126 0.013-0.012 0.026-0.025 0.039-0.040 0.076-0.091 0.136-0.24 0.181-0.447l0.252-1.556c0.034-0.22 0.005-0.381-0.085-0.482zM10.937 9.789c-0.081-0.097-0.223-0.146-0.426-0.146h-0.472l-0.55 3.38h0.582c0.189 0 0.33-0.042 0.424-0.126s0.168-0.283 0.22-0.597l0.299-1.886c0.042-0.262 0.026-0.456-0.047-0.582-0.009-0.015-0.019-0.029-0.030-0.043z"></path>
<path fill="#272727" style="fill: var(--color2, #272727)" d="M4.579 12.284c-0.012 0.068-0.025 0.131-0.040 0.189-0 0-0 0.001-0 0.001-0.039 0.147-0.088 0.262-0.148 0.345-0.073 0.115-0.199 0.173-0.377 0.173-0.189 0-0.325-0.063-0.409-0.189-0.073-0.126-0.094-0.288-0.063-0.487l1.053-6.634c0.009-0.050 0.018-0.097 0.028-0.141 0.002-0.008 0.004-0.016 0.006-0.024 0.037-0.157 0.084-0.275 0.139-0.354 0.084-0.105 0.22-0.157 0.409-0.157 0.367 0 0.519 0.225 0.456 0.676l-0.314 1.918h2.028l0.314-1.996c0.283-1.719-0.44-2.578-2.169-2.578h-0.424c-0.828 0-1.43 0.236-1.808 0.707-0.377 0.461-0.639 1.111-0.786 1.949l-1.053 6.634c-0.115 0.786-0.005 1.441 0.33 1.965 0.335 0.514 0.959 0.77 1.871 0.77h0.409c0.828 0 1.436-0.246 1.823-0.739s0.639-1.158 0.755-1.996l0.409-2.578h-2.028l-0.409 2.547zM7.317 14.002c-0.152 0.364-0.344 0.701-0.583 1.003-0.665 0.844-1.653 1.167-2.706 1.167h-0.409c-1.094 0-2.18-0.313-2.811-1.279l-0.003-0.004-0.003-0.004c-0.518-0.809-0.639-1.756-0.495-2.733l0.001-0.007 1.057-6.658c0.166-0.949 0.481-1.802 1.019-2.462 0.662-0.824 1.648-1.124 2.68-1.124h0.424c1.016 0 2.030 0.25 2.698 1.044 0.386 0.458 0.574 1.001 0.633 1.571l-1.504 9.485z"></path>
</symbol>
<symbol id="icon-buttocks-title" viewBox="0 0 82 32">
<path fill="#ff7400" style="fill: var(--color1, #ff7400)" d="M79.28 2.996l-3.71 23.39h-4.056l3.71-23.39h4.056z"></path>
<path fill="#ff7400" style="fill: var(--color1, #ff7400)" d="M65.512 29.687l0.534-3.301h-7.388l3.71-23.39h4.056l-3.050 19.272h1.886l3.050-19.272h4.056l-3.050 19.178h1.132l-1.195 7.514h-3.741z"></path>
<path fill="#ff7400" style="fill: var(--color1, #ff7400)" d="M52.56 26.386l1.981-12.418-4.684 12.418h-3.993l3.71-23.39h3.993l-1.981 12.513 4.684-12.513h3.993l-3.71 23.39h-3.993z"></path>
<path fill="#ff7400" style="fill: var(--color1, #ff7400)" d="M39.159 16.514l-1.572 9.872h-4.056l3.71-23.39h4.056l-1.415 8.929h2.169l1.415-8.929h4.056l-3.71 23.39h-4.056l1.572-9.872h-2.169z"></path>
<path fill="#ff7400" style="fill: var(--color1, #ff7400)" d="M20.374 22.173h0.786c0.042-0.126 0.126-0.398 0.252-0.817 0.231-0.755 0.43-1.572 0.597-2.452 0.775-3.94 1.666-9.243 2.672-15.908h9.715l-3.050 19.178h1.1l-1.163 7.514h-3.741l0.503-3.301h-4.59l-0.503 3.301h-3.741l1.163-7.514zM24.995 22.173h2.326l2.389-15.059h-1.823c-0.88 5.533-1.582 9.589-2.106 12.167-0.272 1.153-0.451 1.855-0.534 2.106-0.021 0.063-0.063 0.189-0.126 0.377-0.042 0.189-0.084 0.325-0.126 0.409z"></path>
<path fill="#ff7400" style="fill: var(--color1, #ff7400)" d="M21.788 2.996l-3.71 23.39h-4.056l3.71-23.39h4.056z"></path>
<path fill="#ff7400" style="fill: var(--color1, #ff7400)" d="M8.824 21.199l0.817-5.093h4.056l-0.817 5.156c-0.23 1.677-0.734 3.008-1.509 3.993s-1.991 1.478-3.647 1.478h-0.817c-1.823 0-3.070-0.514-3.741-1.541-0.671-1.048-0.891-2.358-0.66-3.93l2.106-13.267c0.293-1.677 0.817-2.976 1.572-3.898 0.755-0.943 1.96-1.415 3.615-1.415h0.849c3.458 0 4.904 1.719 4.339 5.156l-0.629 3.993h-4.056l0.629-3.835c0.126-0.901-0.178-1.352-0.912-1.352-0.377 0-0.65 0.105-0.817 0.314-0.147 0.21-0.262 0.555-0.346 1.037l-2.106 13.267c-0.063 0.398-0.021 0.723 0.126 0.975 0.168 0.252 0.44 0.377 0.817 0.377 0.356 0 0.608-0.115 0.755-0.346 0.168-0.231 0.293-0.587 0.377-1.069z"></path>
<path fill="#272727" style="fill: var(--color2, #272727)" d="M81.91 0.75l-4.422 27.882h-8.067l1.027-6.458h-0.538l3.398-21.423h8.603zM79.28 2.996h-4.056l-3.71 23.39h4.056l3.71-23.39z"></path>
<path fill="#272727" style="fill: var(--color2, #272727)" d="M62.873 31.933l0.534-3.301h-7.379l0.356-2.246h0.168l3.71-23.39h-0.168l0.356-2.246h14.546l-3.050 19.178h0.593l-1.025 6.458h0.537l-0.882 5.547h-8.296zM72.365 2.996h-4.056l-3.050 19.272h-1.886l3.050-19.272h-4.056l-3.71 23.39h7.388l-0.534 3.301h3.741l1.195-7.514h-1.132l3.050-19.178z"></path>
<path fill="#272727" style="fill: var(--color2, #272727)" d="M49.857 26.386l4.684-12.418-1.981 12.418h3.993l3.71-23.39h-3.993l-4.684 12.513 1.981-12.513h-3.993l-3.71 23.39h3.993zM43.234 28.632l0.356-2.246h0.222l3.71-23.39h-0.222l0.356-2.246h15.237l-0.356 2.246h-0.168l-3.71 23.39h0.168l-0.356 2.246h-15.237z"></path>
<path fill="#272727" style="fill: var(--color2, #272727)" d="M39.757 26.386l1.572-9.872h-2.169l-1.572 9.872h-4.056l3.71-23.39h4.056l-1.415 8.929h2.169l1.415-8.929h4.056l-3.71 23.39h-4.056zM35.324 0.75l-3.398 21.423h0.52l-1 6.458h14.283l0.356-2.246h-0.222l3.71-23.39h0.222l0.356-2.246h-14.828z"></path>
<path fill="#272727" style="fill: var(--color2, #272727)" d="M19.481 19.928c0.117-0.453 0.225-0.934 0.322-1.444l0.001-0.007 0.001-0.007c0.766-3.893 1.651-9.159 2.655-15.809l0.288-1.91h14.278l-3.050 19.178h0.579l-1.024 6.458h0.535l-0.859 5.547h-8.28l0.503-3.301h-0.047l-0.503 3.301h-8.291l0.859-5.547h0.629l1.024-6.458h0.378zM23.455 26.386h4.59l-0.503 3.301h3.741l1.163-7.514h-1.1l3.050-19.178h-9.715c-1.006 6.665-1.897 11.968-2.672 15.908-0.168 0.88-0.367 1.698-0.597 2.452-0.126 0.419-0.21 0.692-0.252 0.817h-0.786l-1.163 7.514h3.741l0.503-3.301zM25.781 19.281c-0.055 0.234-0.107 0.45-0.154 0.647-0.187 0.773-0.313 1.259-0.38 1.46l-0.126 0.377c-0.004 0.020-0.009 0.039-0.013 0.057-0.038 0.159-0.075 0.276-0.113 0.351h2.326l2.389-15.059h-1.823c-0.88 5.533-1.582 9.589-2.106 12.167z"></path>
<path fill="#272727" style="fill: var(--color2, #272727)" d="M24.418 0.75l-3.398 21.423h-0.646l-1 6.458h-7.981l0.734-4.631c0.357-0.778 0.608-1.691 0.752-2.739l0.817-5.156h-0.317l0.678-4.276h0.299l0.629-3.993c0.138-0.837 0.156-1.573 0.055-2.206l0.774-4.881h8.603zM21.788 2.996h-4.056l-3.71 23.39h4.056l3.71-23.39z"></path>
<path fill="#272727" style="fill: var(--color2, #272727)" d="M12.879 21.261l0.817-5.156h-4.056l-0.817 5.093c-0.024 0.136-0.051 0.262-0.081 0.378-0 0.001-0 0.001-0 0.002-0.077 0.294-0.176 0.524-0.296 0.69-0.147 0.231-0.398 0.346-0.755 0.346-0.377 0-0.65-0.126-0.817-0.377-0.147-0.252-0.189-0.576-0.126-0.975l2.106-13.267c0.017-0.1 0.036-0.194 0.056-0.282 0.004-0.016 0.007-0.032 0.011-0.047 0.075-0.314 0.168-0.55 0.279-0.708 0.168-0.21 0.44-0.314 0.817-0.314 0.734 0 1.037 0.451 0.912 1.352l-0.629 3.836h4.056l0.629-3.993c0.566-3.437-0.88-5.156-4.339-5.156h-0.849c-1.656 0-2.861 0.472-3.615 1.415-0.755 0.922-1.279 2.222-1.572 3.898l-2.106 13.267c-0.231 1.572-0.010 2.882 0.66 3.93 0.671 1.027 1.918 1.541 3.741 1.541h0.817c1.656 0 2.871-0.493 3.647-1.478s1.279-2.316 1.509-3.993zM14.3 24.636c-0.304 0.728-0.689 1.401-1.166 2.007-1.33 1.689-3.305 2.334-5.411 2.334h-0.817c-2.188 0-4.359-0.625-5.621-2.558l-0.006-0.009-0.006-0.009c-1.036-1.618-1.277-3.511-0.991-5.466l0.002-0.013 2.114-13.315c0.332-1.899 0.962-3.604 2.038-4.924 1.324-1.648 3.296-2.248 5.361-2.248h0.849c2.032 0 4.060 0.5 5.397 2.089 0.772 0.917 1.149 2.002 1.265 3.142l-3.009 18.97z"></path>
</symbol>
<symbol id="icon-stomache-title" viewBox="0 0 157 32">
<path fill="#ff7400" style="fill: var(--color1, #ff7400)" d="M144.364 6.254h9.702l-0.649 4.047h-2.812l-2.997 18.94h-3.986l2.997-18.94h-2.904l0.649-4.047z"></path>
<path fill="#ff7400" style="fill: var(--color1, #ff7400)" d="M142.664 6.254l-3.646 22.987h-3.986l3.646-22.987h3.986z"></path>
<path fill="#ff7400" style="fill: var(--color1, #ff7400)" d="M122.881 29.241l3.646-22.987h5.716c1.401 0 2.4 0.33 2.997 0.989 0.618 0.638 0.803 1.679 0.556 3.121l-0.463 2.935c-0.288 1.833-1.102 2.946-2.441 3.337 1.401 0.515 1.967 1.72 1.699 3.615l-0.587 3.831c-0.309 1.833-0.772 3.151-1.39 3.955-0.597 0.803-1.493 1.205-2.688 1.205h-7.044zM129.431 18.953h-0.927l-1.081 6.643h1.143c0.371 0 0.649-0.082 0.834-0.247s0.33-0.556 0.433-1.174l0.587-3.708c0.083-0.515 0.052-0.896-0.093-1.143s-0.442-0.371-0.896-0.371zM130.852 9.777h-0.896l-0.865 5.469h0.989c0.33 0 0.577-0.082 0.742-0.247 0.185-0.165 0.33-0.484 0.433-0.958l0.494-3.059c0.124-0.803-0.175-1.205-0.896-1.205z"></path>
<path fill="#ff7400" style="fill: var(--color1, #ff7400)" d="M116.827 29.241l1.946-12.204-4.604 12.204h-3.924l3.646-22.987h3.924l-1.946 12.297 4.604-12.297h3.924l-3.646 22.987h-3.924z"></path>
<path fill="#ff7400" style="fill: var(--color1, #ff7400)" d="M99.569 19.416l-4.109 9.825h-4.202l5.5-12.544-1.514-10.443h3.924l1.112 8.867 1.39-8.867h3.986l-1.421 8.867 3.924-8.867h3.924l-4.82 10.443 1.514 12.544h-4.202l-1.020-9.763-1.545 9.763h-3.986l1.545-9.825z"></path>
<path fill="#ff7400" style="fill: var(--color1, #ff7400)" d="M81.973 29.241l1.946-12.204-4.604 12.204h-3.924l3.646-22.987h3.924l-1.946 12.297 4.604-12.297h3.924l-3.646 22.987h-3.924zM84.692 5.544h-0.124c-1.030 0-1.812-0.288-2.348-0.865-0.535-0.597-0.742-1.421-0.618-2.472h2.503c-0.041 0.268-0.010 0.494 0.093 0.68 0.124 0.165 0.309 0.247 0.556 0.247h0.031c0.536 0 0.803-0.309 0.803-0.927h2.564c-0.041 1.050-0.381 1.874-1.020 2.472-0.618 0.577-1.431 0.865-2.441 0.865z"></path>
<path fill="#ff7400" style="fill: var(--color1, #ff7400)" d="M69.4 29.241l1.946-12.204-4.604 12.204h-3.924l3.646-22.987h3.924l-1.946 12.297 4.604-12.297h3.924l-3.646 22.987h-3.924z"></path>
<path fill="#ff7400" style="fill: var(--color1, #ff7400)" d="M57.341 29.241l-1.112-9.949-1.576 9.949h-3.986l3.646-22.987h3.986l-1.39 8.744 3.893-8.744h4.047l-4.727 10.598 1.421 12.39h-4.202z"></path>
<path fill="#ff7400" style="fill: var(--color1, #ff7400)" d="M45.62 24.143l0.803-5.005h3.986l-0.803 5.067c-0.227 1.648-0.721 2.956-1.483 3.924s-1.957 1.452-3.584 1.452h-0.803c-1.792 0-3.018-0.505-3.677-1.514-0.659-1.030-0.875-2.317-0.649-3.862l2.070-13.038c0.288-1.648 0.803-2.925 1.545-3.831 0.742-0.927 1.926-1.39 3.553-1.39h0.834c3.399 0 4.82 1.689 4.264 5.067l-0.618 3.924h-3.986l0.618-3.769c0.124-0.886-0.175-1.329-0.896-1.329-0.371 0-0.639 0.103-0.803 0.309-0.144 0.206-0.257 0.546-0.34 1.020l-2.070 13.038c-0.062 0.391-0.021 0.711 0.124 0.958 0.165 0.247 0.433 0.371 0.803 0.371 0.35 0 0.597-0.113 0.742-0.34 0.165-0.227 0.288-0.577 0.371-1.050z"></path>
<path fill="#ff7400" style="fill: var(--color1, #ff7400)" d="M33.812 29.241l0.185-3.862h-2.441l-0.958 3.862h-3.615l6.457-22.987h4.727l-0.525 22.987h-3.831zM32.576 21.425h1.607l0.34-7.755-1.946 7.755z"></path>
<path fill="#ff7400" style="fill: var(--color1, #ff7400)" d="M21.583 29.241l2.997-18.94h-1.576c-1.174 7.58-2.049 12.544-2.626 14.892-0.35 1.442-0.855 2.482-1.514 3.121-0.659 0.618-1.71 0.927-3.151 0.927h-1.020l0.649-4.171h0.247c0.391 0 0.68-0.113 0.865-0.34s0.34-0.628 0.463-1.205c0.927-4.717 1.916-10.474 2.966-17.271h9.331l-3.646 22.987h-3.986z"></path>
<path fill="#ff7400" style="fill: var(--color1, #ff7400)" d="M6.954 29.241h-3.986l3.646-22.987h9.825l-3.646 22.987h-3.986l2.997-18.94h-1.854l-2.997 18.94z"></path>
<path fill="#272727" style="fill: var(--color2, #272727)" d="M142.664 6.254h-0.535l0.354-2.207h14.172l-1.356 8.461h-2.808l-2.997 18.94h-8.455l2.997-18.94h-2.364l0.992-6.254zM146.619 10.302l-2.997 18.94h3.986l2.997-18.94h2.812l0.649-4.047h-9.702l-0.649 4.047h2.904z"></path>
<path fill="#272727" style="fill: var(--color2, #272727)" d="M133.124 27.182c0.37-0.78 0.663-1.813 0.879-3.101l0.587-3.831c0.104-0.737 0.082-1.37-0.066-1.898l0.751-4.737c0.021-0.103 0.040-0.208 0.056-0.316l0.463-2.935c0.023-0.132 0.042-0.26 0.057-0.385l0.941-5.932h8.455l-0.35 2.207h-0.535l-0.649 4.047h0.542l-3.354 21.146h-8.455l0.676-4.266zM142.664 6.254h-3.986l-3.646 22.987h3.986l3.646-22.987z"></path>
<path fill="#272727" style="fill: var(--color2, #272727)" d="M120.647 29.241h0.104l3.646-22.987h-0.104l0.35-2.207h7.601c1.66 0 3.404 0.379 4.608 1.687 1.215 1.277 1.385 2.996 1.186 4.562l-0.53 3.344v0.001l-0.056 0.351c-0.205 1.045-0.582 2.019-1.17 2.826 0.029 0.055 0.056 0.111 0.083 0.168 0.197 0.419 0.328 0.855 0.406 1.299l-1.512 9.531c-0.246 0.575-0.538 1.097-0.884 1.551-1.097 1.465-2.714 2.080-4.449 2.080h-9.629l0.35-2.207zM135.24 7.243c-0.597-0.659-1.596-0.989-2.996-0.989h-5.716l-3.646 22.987h7.044c1.195 0 2.091-0.402 2.689-1.205 0.617-0.803 1.081-2.122 1.39-3.955l0.587-3.831c0.104-0.739 0.082-1.374-0.068-1.903-0.234-0.827-0.777-1.398-1.631-1.712 0.815-0.238 1.436-0.744 1.861-1.517 0.274-0.496 0.467-1.103 0.579-1.82l0.463-2.935c0.248-1.442 0.062-2.482-0.556-3.121zM131.581 10.034c-0.153-0.171-0.396-0.257-0.728-0.257h-0.897l-0.865 5.469h0.988c0.33 0 0.577-0.082 0.742-0.247 0.026-0.023 0.051-0.050 0.076-0.079 0.15-0.179 0.268-0.472 0.356-0.879l0.494-3.059c0.067-0.432 0.011-0.748-0.167-0.948zM130.269 19.24c-0.16-0.192-0.439-0.287-0.838-0.287h-0.926l-1.082 6.643h1.144c0.371 0 0.648-0.082 0.834-0.247s0.33-0.556 0.433-1.174l0.588-3.708c0.082-0.515 0.051-0.896-0.093-1.143-0.018-0.030-0.037-0.057-0.058-0.084z"></path>
<path fill="#272727" style="fill: var(--color2, #272727)" d="M108.012 29.241l-0.35 2.207h14.974l0.35-2.207h-0.104l3.646-22.987h0.104l0.35-2.207h-14.974l-0.35 2.207h0.424l-0.647 1.4-2.99 18.851 0.33 2.735h-0.764zM117.816 6.254l-1.946 12.297 4.604-12.297h3.924l-3.646 22.987h-3.924l1.946-12.204-4.604 12.204h-3.924l3.646-22.987h3.924z"></path>
<path fill="#272727" style="fill: var(--color2, #272727)" d="M99.569 19.416l-4.109 9.825h-4.202l5.5-12.544-1.514-10.443h3.924l1.112 8.867 1.39-8.867h3.986l-1.421 8.867 3.924-8.867h3.924l-4.82 10.443 1.514 12.544h-4.202l-1.020-9.763-1.545 9.763h-3.986l1.545-9.825zM94.482 16.389l-6.602 15.059h23.385l-0.266-2.207h-0.753l0.427-2.694-1.145-9.493 4.039-8.752 0.325-2.047h0.62l1.018-2.207h-22.838l1.789 12.342z"></path>
<path fill="#272727" style="fill: var(--color2, #272727)" d="M79.316 29.241l4.604-12.204-1.946 12.204h3.924l3.646-22.987h-3.924l-4.604 12.297 1.946-12.297h-3.924l-3.646 22.987h3.924zM72.808 31.448l0.35-2.207h0.166l3.646-22.987h-0.166l0.35-2.207h2.345c-0.156-0.686-0.17-1.399-0.088-2.098l0.229-1.949h10.808l-0.090 2.293c-0.024 0.604-0.12 1.195-0.301 1.754h2.071l-4.346 27.401h-14.974zM81.602 2.207c-0.046 0.394-0.046 0.756 0 1.086 0.039 0.273 0.109 0.525 0.21 0.754 0.057 0.129 0.125 0.251 0.202 0.366 0.062 0.093 0.131 0.181 0.206 0.265 0.21 0.226 0.457 0.407 0.742 0.544 0.186 0.090 0.389 0.161 0.607 0.213 0.302 0.072 0.635 0.108 0.999 0.108h0.124c0.217 0 0.424-0.013 0.623-0.040 0.104-0.014 0.205-0.031 0.304-0.053 0.594-0.127 1.098-0.384 1.514-0.773 0.090-0.084 0.173-0.172 0.251-0.265 0.097-0.115 0.185-0.237 0.263-0.366 0.309-0.507 0.477-1.121 0.505-1.841h-2.564c0 0.081-0.004 0.156-0.013 0.226-0.061 0.467-0.324 0.701-0.79 0.701h-0.031c-0.247 0-0.433-0.082-0.556-0.247-0.044-0.079-0.075-0.166-0.093-0.261-0.023-0.126-0.023-0.266 0-0.419h-2.503z"></path>
<path fill="#272727" style="fill: var(--color2, #272727)" d="M60.584 29.241l-0.35 2.207h14.974l0.35-2.207h-0.166l3.646-22.987h0.166l0.35-2.207h-14.974l-0.35 2.207h0.619l-0.961 2.154-2.748 17.324 0.403 3.509h-0.959zM70.388 6.254l-1.946 12.297 4.604-12.297h3.924l-3.646 22.987h-3.924l1.946-12.204-4.604 12.204h-3.924l3.646-22.987h3.924z"></path>
<path fill="#272727" style="fill: var(--color2, #272727)" d="M50.702 14.936l-0.666 4.202h0.373l-0.803 5.067c-0.154 1.118-0.431 2.080-0.831 2.885l-0.691 4.358h15.935l-0.253-2.207h-0.946l0.549-3.461-0.984-8.581 3.639-8.158 0.442-2.787h0.801l0.984-2.207h-15.821l-0.732 4.615c0.135 0.662 0.127 1.446-0.021 2.35l-0.618 3.924h-0.356zM58.299 6.254l-1.39 8.744 3.893-8.744h4.047l-4.727 10.598 1.421 12.39h-4.202l-1.112-9.949-1.576 9.949h-3.986l3.646-22.987h3.986z"></path>
<path fill="#272727" style="fill: var(--color2, #272727)" d="M37.666 28.238l0.19-8.323 1.447-9.111 0.003-0.017c0.327-1.866 0.945-3.542 2.003-4.839 1.301-1.619 3.239-2.209 5.268-2.209h0.834c1.997 0 3.99 0.491 5.303 2.053 0.708 0.841 1.078 1.826 1.217 2.865l-3.028 19.091c-0.282 0.629-0.629 1.215-1.048 1.747-1.307 1.66-3.248 2.294-5.318 2.294h-0.803c-2.15 0-4.284-0.614-5.524-2.514l-0.006-0.009-0.005-0.009c-0.21-0.329-0.387-0.669-0.534-1.019zM51.676 11.012c0.556-3.378-0.865-5.067-4.264-5.067h-0.834c-1.627 0-2.812 0.463-3.553 1.39-0.742 0.906-1.256 2.183-1.545 3.831l-2.070 13.038c-0.227 1.545-0.010 2.832 0.649 3.862 0.659 1.009 1.885 1.514 3.677 1.514h0.803c1.627 0 2.822-0.484 3.584-1.452s1.256-2.276 1.483-3.924l0.803-5.067h-3.986l-0.803 5.005c-0.023 0.134-0.050 0.257-0.080 0.371-0 0.001-0 0.001-0 0.002-0.076 0.289-0.173 0.515-0.291 0.678-0.144 0.227-0.391 0.34-0.742 0.34-0.371 0-0.639-0.124-0.803-0.371-0.144-0.247-0.185-0.566-0.124-0.958l2.070-13.038c0.017-0.098 0.035-0.19 0.055-0.277 0.004-0.016 0.007-0.031 0.011-0.047 0.074-0.308 0.165-0.54 0.274-0.696 0.165-0.206 0.433-0.309 0.803-0.309 0.721 0 1.020 0.443 0.896 1.329l-0.618 3.769h3.986l0.618-3.924z"></path>
<path fill="#272727" style="fill: var(--color2, #272727)" d="M24.692 29.241l-0.62 2.207h15.729l0.084-3.678c-0.522-0.977-0.68-2.165-0.475-3.565l0.65-4.092 0.367-16.066h-8.657l-5.063 18.025-1.137 7.169h-0.877zM33.812 29.241l0.185-3.862h-2.441l-0.958 3.862h-3.615l6.457-22.987h4.727l-0.525 22.987h-3.831zM32.576 21.425h1.607l0.34-7.755-1.946 7.755z"></path>
<path fill="#272727" style="fill: var(--color2, #272727)" d="M12.46 29.241h0.334l1.012-6.378h0.993c0.906-4.634 1.874-10.281 2.904-16.946l0.289-1.87h13.807l-2.934 18.498-1.881 6.696h0.819l-0.35 2.207h-8.454l0.105-0.663c-1.036 0.495-2.224 0.663-3.392 0.663h-3.596l0.343-2.207zM16.918 23.526c-0.124 0.577-0.278 0.978-0.463 1.205s-0.474 0.34-0.865 0.34h-0.247l-0.649 4.171h1.020c0.447 0 0.856-0.030 1.228-0.089 0.828-0.132 1.469-0.411 1.924-0.838 0.303-0.293 0.573-0.672 0.811-1.135 0.28-0.545 0.514-1.207 0.703-1.986 0.577-2.348 1.452-7.312 2.626-14.892h1.576l-2.997 18.94h3.986l3.646-22.987h-9.331c-1.050 6.797-2.039 12.554-2.966 17.271z"></path>
<path fill="#272727" style="fill: var(--color2, #272727)" d="M6.954 29.241l2.997-18.94h1.854l-2.997 18.94h3.986l3.646-22.987h-9.825l-3.646 22.987h3.986zM0.384 31.448l4.346-27.401h14.294l-3.334 21.020c-0.033 0.002-0.067 0.003-0.101 0.003h-0.247l-0.649 4.171h0.335l-0.35 2.207h-14.294z"></path>
</symbol>
<symbol id="icon-star" viewBox="0 0 34 32">
<path d="M16.842 0l3.781 11.638h12.236l-9.899 7.192 3.781 11.638-9.9-7.192-9.9 7.192 3.781-11.638-9.9-7.192h12.236l3.781-11.638z"></path>
</symbol>
<symbol id="icon-chat" viewBox="0 0 32 32">
<path fill="#ff7400" style="fill: var(--color1, #ff7400)" d="M5.333 2.667h21.333c0.707 0 1.386 0.281 1.886 0.781s0.781 1.178 0.781 1.886v17.333c0 0.707-0.281 1.386-0.781 1.886s-1.178 0.781-1.886 0.781h-8.96l-6.36 3.813c-0.206 0.122-0.441 0.187-0.68 0.187-0.229-0.001-0.454-0.060-0.653-0.173-0.206-0.116-0.377-0.284-0.497-0.488s-0.183-0.436-0.183-0.672v-2.667h-4c-0.707 0-1.386-0.281-1.886-0.781s-0.781-1.178-0.781-1.886v-17.333c0-0.707 0.281-1.386 0.781-1.886s1.178-0.781 1.886-0.781z"></path>
<path fill="#fff" style="fill: var(--color2, #fff)" d="M16 17.333c0.396 0 0.782 0.117 1.111 0.337s0.585 0.532 0.737 0.898c0.151 0.365 0.191 0.768 0.114 1.155s-0.268 0.744-0.547 1.024c-0.28 0.28-0.636 0.47-1.024 0.547s-0.79 0.038-1.155-0.114c-0.366-0.151-0.678-0.408-0.898-0.737s-0.337-0.716-0.337-1.111c0-0.53 0.211-1.039 0.586-1.414s0.884-0.586 1.414-0.586zM16 14.667c0.354 0 0.693-0.14 0.943-0.391s0.391-0.589 0.391-0.943v-4c0-0.354-0.14-0.693-0.391-0.943s-0.589-0.391-0.943-0.391c-0.354 0-0.693 0.14-0.943 0.391s-0.391 0.589-0.391 0.943v4c0 0.354 0.14 0.693 0.391 0.943s0.589 0.391 0.943 0.391z"></path>
</symbol>
<symbol id="icon-lift" viewBox="0 0 33 32">
<path fill="#ff7400" style="fill: var(--color1, #ff7400)" d="M25.714 24c-0.354 0-0.693-0.14-0.943-0.391s-0.391-0.589-0.391-0.943v-6.667h-4c-0.354 0-0.693-0.14-0.943-0.391s-0.391-0.589-0.391-0.943c0-0.354 0.14-0.693 0.391-0.943s0.589-0.391 0.943-0.391h4v-9.333c0-0.354 0.14-0.693 0.391-0.943s0.589-0.391 0.943-0.391 0.693 0.14 0.943 0.391c0.25 0.25 0.391 0.589 0.391 0.943v18.667c0 0.354-0.14 0.693-0.391 0.943s-0.589 0.391-0.943 0.391zM7.048 24c-0.354 0-0.693-0.14-0.943-0.391s-0.391-0.589-0.391-0.943v-18.667c0-0.354 0.14-0.693 0.391-0.943s0.589-0.391 0.943-0.391c0.354 0 0.693 0.14 0.943 0.391s0.391 0.589 0.391 0.943v9.333h4c0.354 0 0.693 0.14 0.943 0.391s0.391 0.589 0.391 0.943c0 0.354-0.14 0.693-0.391 0.943s-0.589 0.391-0.943 0.391h-4v6.667c0 0.354-0.14 0.693-0.391 0.943s-0.589 0.391-0.943 0.391z"></path>
<path fill="#ff7400" style="fill: var(--color1, #ff7400)" d="M27.048 22.667h-21.333c-0.707 0-1.386 0.281-1.886 0.781s-0.781 1.178-0.781 1.886v2.667c0 0.354 0.14 0.693 0.391 0.943s0.589 0.391 0.943 0.391h24c0.354 0 0.693-0.14 0.943-0.391s0.391-0.589 0.391-0.943v-2.667c0-0.707-0.281-1.386-0.781-1.886s-1.178-0.781-1.886-0.781z"></path>
</symbol>
<symbol id="icon-unicycle" viewBox="0 0 33 32">
<path fill="#ff7400" style="fill: var(--color1, #ff7400)" d="M16.381 29.333c-1.582 0-3.129-0.469-4.445-1.348s-2.341-2.128-2.946-3.59c-0.606-1.462-0.764-3.070-0.455-4.622s1.071-2.977 2.189-4.096c1.119-1.119 2.544-1.881 4.096-2.189s3.16-0.15 4.622 0.455c1.462 0.605 2.711 1.631 3.59 2.946s1.348 2.862 1.348 4.445c0 2.122-0.843 4.157-2.343 5.657s-3.535 2.343-5.657 2.343zM16.381 16c-1.055 0-2.086 0.313-2.963 0.899s-1.561 1.419-1.964 2.394c-0.404 0.975-0.509 2.047-0.303 3.081s0.714 1.985 1.46 2.731c0.746 0.746 1.696 1.254 2.731 1.46s2.107 0.1 3.081-0.303c0.975-0.404 1.807-1.087 2.394-1.964s0.899-1.908 0.899-2.963c0-1.414-0.562-2.771-1.562-3.771s-2.357-1.562-3.771-1.562z"></path>
<path fill="#ff7400" style="fill: var(--color1, #ff7400)" d="M20.381 5.333h-2.12c-0.422 0.002-0.84-0.082-1.229-0.244s-0.742-0.401-1.038-0.703c-1.104-1.101-2.6-1.72-4.16-1.72h-0.787c-0.354 0-0.693 0.14-0.943 0.391s-0.391 0.589-0.391 0.943c0 0.354 0.14 0.693 0.391 0.943s0.589 0.391 0.943 0.391h0.787c0.422-0.002 0.84 0.082 1.229 0.244s0.742 0.401 1.038 0.703c0.294 0.279 0.611 0.533 0.947 0.76v14.293c0 0.354 0.14 0.693 0.391 0.943s0.589 0.391 0.943 0.391 0.693-0.14 0.943-0.391c0.25-0.25 0.391-0.589 0.391-0.943v-13.333c0.187 0 0.36 0 0.547 0h2.12c0.354 0 0.693-0.141 0.943-0.391s0.391-0.589 0.391-0.943c0-0.354-0.14-0.693-0.391-0.943s-0.589-0.391-0.943-0.391z"></path>
<path fill="#ff7400" style="fill: var(--color1, #ff7400)" d="M17.088 29.333h-1.413c-4.129-0.004-8.2-0.967-11.893-2.813-0.288-0.174-0.501-0.45-0.594-0.773s-0.061-0.67 0.091-0.971c0.152-0.3 0.412-0.532 0.728-0.649s0.664-0.11 0.975 0.020c3.316 1.645 6.965 2.507 10.667 2.52h1.413c3.701-0.013 7.351-0.875 10.667-2.52 0.157-0.095 0.332-0.156 0.514-0.18s0.367-0.010 0.543 0.041c0.176 0.051 0.34 0.137 0.481 0.254s0.257 0.262 0.34 0.425c0.083 0.164 0.131 0.343 0.141 0.526s-0.017 0.366-0.081 0.538-0.162 0.329-0.289 0.461c-0.127 0.132-0.28 0.237-0.449 0.307-3.677 1.838-7.729 2.801-11.84 2.813z"></path>
</symbol>
<symbol id="icon-user" viewBox="0 0 33 32">
<path fill="#fff" style="fill: var(--color2, #fff)" d="M16.333 29.333c7.364 0 13.333-5.97 13.333-13.333s-5.97-13.333-13.333-13.333c-7.364 0-13.333 5.97-13.333 13.333s5.97 13.333 13.333 13.333z"></path>
<path fill="#ff7400" style="fill: var(--color1, #ff7400)" d="M26.16 23.84c-0.921-2.159-2.528-3.954-4.573-5.107 0.769-0.984 1.246-2.165 1.377-3.408s-0.091-2.497-0.638-3.619c-0.548-1.123-1.4-2.069-2.459-2.731s-2.284-1.013-3.533-1.013c-1.249 0-2.473 0.351-3.533 1.013s-1.912 1.608-2.459 2.731c-0.548 1.123-0.769 2.377-0.638 3.619s0.608 2.423 1.377 3.408c-2.045 1.153-3.652 2.948-4.573 5.107-0.113 0.247-0.147 0.522-0.1 0.788s0.175 0.513 0.366 0.705c1.232 1.267 2.703 2.276 4.328 2.969s3.371 1.056 5.138 1.069 3.518-0.326 5.152-0.997c1.635-0.67 3.12-1.659 4.369-2.908l0.12-0.12c0.196-0.192 0.328-0.439 0.378-0.709s0.016-0.548-0.098-0.798z"></path>
</symbol>
<symbol id="icon-user1" viewBox="0 0 33 32">
<path fill="#ff7400" style="fill: var(--color1, #ff7400)" d="M28.381 26.667c0 0.707-0.281 1.386-0.781 1.886s-1.178 0.781-1.886 0.781h-18.667c-0.707 0-1.386-0.281-1.886-0.781s-0.781-1.178-0.781-1.886c0-2.122 0.843-4.157 2.343-5.657s3.535-2.343 5.657-2.343h8c2.122 0 4.157 0.843 5.657 2.343s2.343 3.535 2.343 5.657zM16.381 16c1.319 0 2.607-0.391 3.704-1.123s1.951-1.774 2.455-2.992c0.505-1.218 0.637-2.559 0.379-3.852s-0.892-2.481-1.825-3.413-2.12-1.567-3.413-1.825c-1.293-0.257-2.634-0.125-3.852 0.379s-2.259 1.359-2.992 2.455c-0.732 1.096-1.123 2.385-1.123 3.704 0 1.768 0.702 3.464 1.953 4.714s2.946 1.953 4.714 1.953z"></path>
</symbol>
<symbol id="icon-user3" viewBox="0 0 32 32">
<path fill="#ff7400" style="fill: var(--color1, #ff7400)" d="M24 12c-0.004 1.772-0.513 3.506-1.467 5-1.16 1.213-7.080 7.267-7.080 7.267-0.501 0.498-0.784 1.174-0.787 1.88v3.187c-8.307 0-11.293-2.747-11.613-3.053-0.124-0.125-0.221-0.272-0.288-0.435s-0.1-0.336-0.099-0.512v-1.333c0.001-1.43 0.384-2.833 1.111-4.064s1.77-2.245 3.022-2.936c-0.78-1.222-1.265-2.61-1.416-4.052s0.037-2.9 0.547-4.257c0.511-1.357 1.33-2.577 2.395-3.562s2.343-1.709 3.736-2.114c1.392-0.405 2.86-0.48 4.287-0.218s2.772 0.851 3.931 1.723c1.159 0.872 2.098 2.002 2.744 3.3s0.98 2.729 0.977 4.18z"></path>
<path fill="#f6921e" style="fill: var(--color3, #f6921e)" d="M27.080 16.387l1.867 1.867c0.244 0.249 0.381 0.584 0.381 0.933s-0.137 0.684-0.381 0.933l-8.813 8.827c-0.256 0.244-0.594 0.382-0.947 0.387h-1.853c-0.354 0-0.693-0.14-0.943-0.391s-0.391-0.589-0.391-0.943v-1.853c0.005-0.353 0.143-0.691 0.387-0.947l8.827-8.813c0.249-0.244 0.584-0.381 0.933-0.381s0.684 0.137 0.933 0.381z"></path>
</symbol>
</defs>
</svg>
