<svg aria-hidden="true" style="position: absolute; width: 0; height: 0; overflow: hidden;" version="1.1" xmlns="http://www.w3.org/2000/svg" xmlns:xlink="http://www.w3.org/1999/xlink">
<defs>
<symbol id="icon-menu" viewBox="0 0 32 32">
<path d="M6.4 11.733v-2.133h19.2v2.133h-19.2zM6.4 17.067h19.2v-2.133h-19.2v2.133zM6.4 22.4h19.2v-2.133h-19.2v2.133z"></path>
</symbol>
<symbol id="icon-close" viewBox="0 0 32 32">
<path d="M23.733 10.304l-1.504-1.504-5.963 5.963-5.963-5.963-1.504 1.504 5.963 5.963-5.963 5.963 1.504 1.504 5.963-5.963 5.963 5.963 1.504-1.504-5.963-5.963 5.963-5.963z"></path>
</symbol>
<symbol id="icon-email" viewBox="0 0 32 32">
<path d="M26.667 5.333h-21.333c-1.467 0-2.653 1.2-2.653 2.667l-0.013 16c0 1.467 1.2 2.667 2.667 2.667h21.333c1.467 0 2.667-1.2 2.667-2.667v-16c0-1.467-1.2-2.667-2.667-2.667zM26.133 11l-9.427 5.893c-0.427 0.267-0.987 0.267-1.413 0l-9.427-5.893c-0.333-0.213-0.533-0.573-0.533-0.96 0-0.893 0.973-1.427 1.733-0.96l8.933 5.587 8.933-5.587c0.76-0.467 1.733 0.067 1.733 0.96 0 0.387-0.2 0.747-0.533 0.96z"></path>
</symbol>
<symbol id="icon-phone" viewBox="0 0 32 32">
<path d="M24.881 19.774l-3.268-0.373c-0.785-0.090-1.557 0.18-2.11 0.733l-2.367 2.367c-3.641-1.853-6.626-4.825-8.478-8.478l2.38-2.38c0.553-0.553 0.823-1.325 0.733-2.11l-0.373-3.242c-0.154-1.299-1.248-2.277-2.56-2.277h-2.226c-1.454 0-2.663 1.209-2.573 2.663 0.682 10.987 9.469 19.761 20.443 20.443 1.454 0.090 2.663-1.119 2.663-2.573v-2.226c0.013-1.299-0.965-2.393-2.264-2.547z"></path>
</symbol>
<symbol id="icon-person" viewBox="0 0 32 32">
<path d="M16 16c2.947 0 5.333-2.387 5.333-5.333s-2.387-5.333-5.333-5.333c-2.947 0-5.333 2.387-5.333 5.333s2.387 5.333 5.333 5.333zM16 18.667c-3.56 0-10.667 1.787-10.667 5.333v1.333c0 0.733 0.6 1.333 1.333 1.333h18.667c0.733 0 1.333-0.6 1.333-1.333v-1.333c0-3.547-7.107-5.333-10.667-5.333z"></path>
</symbol>
<symbol id="icon-mark" viewBox="0 0 32 32">
<path  d="M0 0h32v32h-32v-32z"></path>
</symbol>
<symbol id="icon-instagram" viewBox="0 0 32 32">
<path fill="#000" style="fill: var(--color1, #000)" d="M31.904 9.408c-0.077-1.702-0.352-2.867-0.742-3.885-0.41-1.050-0.954-1.946-1.843-2.829s-1.779-1.44-2.829-1.843c-1.018-0.397-2.182-0.666-3.885-0.742-1.709-0.077-2.253-0.096-6.592-0.096-4.346 0-4.89 0.019-6.592 0.096s-2.867 0.352-3.885 0.742c-1.056 0.41-1.952 0.954-2.835 1.843s-1.44 1.779-1.843 2.829c-0.39 1.018-0.666 2.182-0.742 3.885-0.077 1.709-0.096 2.253-0.096 6.592 0 4.346 0.019 4.89 0.096 6.592s0.352 2.867 0.742 3.885c0.41 1.050 0.954 1.946 1.843 2.829 0.883 0.89 1.779 1.44 2.829 1.843 1.018 0.397 2.182 0.666 3.885 0.742 1.709 0.077 2.253 0.096 6.592 0.096 4.346 0 4.89-0.019 6.592-0.096s2.867-0.352 3.885-0.742c1.050-0.41 1.946-0.954 2.829-1.843s1.44-1.779 1.843-2.829c0.397-1.018 0.666-2.182 0.742-3.885 0.077-1.709 0.096-2.253 0.096-6.592s-0.013-4.89-0.090-6.592zM29.030 22.464c-0.070 1.562-0.333 2.413-0.55 2.97-0.288 0.742-0.64 1.28-1.203 1.843s-1.094 0.902-1.843 1.203c-0.563 0.218-1.414 0.48-2.97 0.55-1.683 0.077-2.189 0.096-6.464 0.096s-4.781-0.019-6.464-0.096c-1.562-0.070-2.413-0.333-2.97-0.55-0.742-0.288-1.28-0.64-1.843-1.203s-0.902-1.094-1.203-1.843c-0.218-0.563-0.48-1.414-0.55-2.97-0.077-1.683-0.096-2.189-0.096-6.464s0.019-4.781 0.096-6.464c0.070-1.562 0.333-2.413 0.55-2.97 0.288-0.742 0.64-1.28 1.203-1.843s1.094-0.902 1.843-1.203c0.563-0.218 1.414-0.48 2.97-0.55 1.683-0.077 2.189-0.096 6.464-0.096s4.781 0.019 6.464 0.096c1.562 0.070 2.413 0.333 2.97 0.55 0.742 0.288 1.28 0.64 1.843 1.203s0.902 1.094 1.203 1.843c0.218 0.563 0.48 1.414 0.55 2.97 0.077 1.683 0.096 2.189 0.096 6.464s-0.026 4.781-0.096 6.464z"></path>
<path fill="#000" style="fill: var(--color1, #000)" d="M16 7.782c-4.544 0-8.218 3.68-8.218 8.218 0 4.544 3.68 8.218 8.218 8.218s8.218-3.686 8.218-8.218c0-4.544-3.674-8.218-8.218-8.218zM16 21.331c-2.944 0-5.331-2.387-5.331-5.331s2.387-5.331 5.331-5.331 5.331 2.387 5.331 5.331-2.387 5.331-5.331 5.331z"></path>
<path fill="#bc30a0" style="fill: var(--color2, #bc30a0)" d="M26.458 7.462c0 1.060-0.86 1.92-1.92 1.92s-1.92-0.86-1.92-1.92c0-1.060 0.86-1.92 1.92-1.92s1.92 0.86 1.92 1.92z"></path>
<path fill="#000" style="fill: var(--color1, #000)" d="M0 16c0 4.346 0.019 4.89 0.096 6.592s0.352 2.867 0.742 3.885c0.41 1.050 0.954 1.946 1.843 2.829 0.883 0.883 1.779 1.44 2.829 1.843 1.018 0.397 2.182 0.666 3.885 0.742 1.709 0.077 2.253 0.096 6.592 0.096 4.346 0 4.89-0.019 6.592-0.096s2.867-0.352 3.885-0.742c1.050-0.41 1.946-0.954 2.829-1.843 0.883-0.883 1.44-1.779 1.843-2.829 0.397-1.018 0.666-2.182 0.742-3.885 0.077-1.709 0.096-2.253 0.096-6.592 0-4.346-0.019-4.89-0.096-6.592s-0.352-2.867-0.742-3.885c-0.41-1.050-0.954-1.946-1.843-2.829-0.877-0.89-1.773-1.44-2.822-1.843-1.018-0.397-2.182-0.666-3.885-0.742-1.709-0.077-2.253-0.096-6.592-0.096-4.346 0-4.89 0.019-6.592 0.096s-2.867 0.352-3.885 0.742c-1.050 0.41-1.946 0.954-2.829 1.843s-1.44 1.779-1.843 2.829c-0.397 1.018-0.672 2.182-0.749 3.885s-0.096 2.246-0.096 6.592zM2.886 16c0-4.269 0.019-4.781 0.096-6.464 0.070-1.562 0.333-2.413 0.55-2.97 0.288-0.742 0.64-1.28 1.203-1.843s1.094-0.902 1.843-1.203c0.563-0.218 1.414-0.48 2.97-0.55 1.683-0.077 2.189-0.096 6.464-0.096s4.781 0.019 6.464 0.096c1.562 0.070 2.413 0.333 2.97 0.55 0.742 0.288 1.28 0.64 1.843 1.203s0.902 1.094 1.203 1.843c0.218 0.563 0.48 1.414 0.55 2.97 0.077 1.683 0.096 2.189 0.096 6.464s-0.019 4.781-0.096 6.464c-0.070 1.562-0.333 2.413-0.55 2.97-0.288 0.742-0.64 1.28-1.203 1.843s-1.094 0.902-1.843 1.203c-0.563 0.218-1.414 0.48-2.97 0.55-1.683 0.077-2.189 0.096-6.464 0.096s-4.781-0.019-6.464-0.096c-1.562-0.070-2.413-0.333-2.97-0.55-0.742-0.288-1.28-0.64-1.843-1.203s-0.902-1.094-1.203-1.843c-0.218-0.563-0.48-1.414-0.55-2.97-0.083-1.683-0.096-2.195-0.096-6.464z"></path>
</symbol>
<symbol id="icon-scroll_up" viewBox="0 0 32 32"><path d="M4.5 19.6 15.7 8.367c.133-.133.278-.228.433-.283s.322-.084.5-.084.345.028.5.084.3.149.433.283L28.799 19.6c.311.311.467.7.467 1.167s-.167.867-.5 1.2c-.333.333-.722.5-1.167.5s-.833-.167-1.167-.5l-9.8-9.8-9.8 9.8c-.311.311-.694.467-1.149.467s-.851-.167-1.184-.5-.5-.722-.5-1.167c0-.444.167-.833.5-1.167z"/></symbol>
<symbol id="icon-chevrons-right" viewBox="0 0 32 32">
<path fill="none" stroke="#f87a11" style="stroke: var(--color1, #f87a11)" stroke-linejoin="round" stroke-linecap="round" stroke-miterlimit="4" stroke-width="3.56" d="M17.333 22.667l6.667-6.667-6.667-6.667"></path>
<path fill="none" stroke="#f87a11" style="stroke: var(--color1, #f87a11)" stroke-linejoin="round" stroke-linecap="round" stroke-miterlimit="4" stroke-width="3.56" d="M8 22.667l6.667-6.667-6.667-6.667"></path>
</symbol>
<symbol id="icon-cd" viewBox="0 0 32 32">
<path fill="#272727" style="fill: var(--color1, #272727)" d="M16 29.333c7.364 0 13.333-5.97 13.333-13.333s-5.97-13.333-13.333-13.333c-7.364 0-13.333 5.97-13.333 13.333s5.97 13.333 13.333 13.333z"></path>
<path fill="#f87a11" style="fill: var(--color2, #f87a11)" d="M16 20c2.209 0 4-1.791 4-4s-1.791-4-4-4c-2.209 0-4 1.791-4 4s1.791 4 4 4z"></path>
</symbol>
<symbol id="icon-check-mark-square-2" viewBox="0 0 32 32">
<path fill="#272727" style="fill: var(--color1, #272727)" d="M29.333 12.32v14.347c0 0.707-0.281 1.386-0.781 1.886s-1.178 0.781-1.886 0.781h-21.333c-0.707 0-1.386-0.281-1.886-0.781s-0.781-1.178-0.781-1.886v-21.333c0-0.707 0.281-1.386 0.781-1.886s1.178-0.781 1.886-0.781h19.68c0.264 0.001 0.521 0.080 0.74 0.228s0.389 0.356 0.489 0.6 0.125 0.512 0.073 0.771c-0.052 0.258-0.18 0.495-0.368 0.681l-9.947 9.947-3.453-3.44c-0.373-0.371-0.847-0.623-1.363-0.725s-1.050-0.049-1.536 0.152c-0.486 0.201-0.902 0.541-1.195 0.977s-0.451 0.95-0.453 1.476c-0 0.352 0.069 0.7 0.204 1.025s0.333 0.62 0.583 0.868l5.333 5.333c0.248 0.248 0.542 0.445 0.866 0.579s0.671 0.203 1.021 0.203c0.35 0 0.697-0.069 1.021-0.203s0.618-0.331 0.866-0.579l9.173-9.173c0.186-0.183 0.422-0.307 0.678-0.357s0.521-0.024 0.763 0.076c0.241 0.099 0.448 0.267 0.595 0.483s0.227 0.47 0.231 0.731z"></path>
<path fill="#f87a11" style="fill: var(--color2, #f87a11)" d="M16 20c-0.176 0.001-0.35-0.033-0.512-0.099s-0.31-0.164-0.435-0.288l-5.333-5.333c-0.251-0.251-0.392-0.592-0.392-0.947s0.141-0.696 0.392-0.947c0.251-0.251 0.592-0.392 0.947-0.392s0.696 0.141 0.947 0.392l4.387 4.4 11.053-11.067c0.251-0.251 0.592-0.392 0.947-0.392s0.696 0.141 0.947 0.392 0.392 0.592 0.392 0.947c0 0.355-0.141 0.696-0.392 0.947l-12 12c-0.124 0.124-0.272 0.221-0.435 0.288s-0.336 0.1-0.512 0.099z"></path>
</symbol>
<symbol id="icon-infinite" viewBox="0 0 32 32">
<path fill="#f87a11" style="fill: var(--color2, #f87a11)" d="M22.307 8.973c0.003 0.828-0.16 1.649-0.478 2.413s-0.786 1.458-1.375 2.040l-2.573 2.573 2.573 2.573c0.587 0.585 1.053 1.28 1.371 2.045s0.482 1.586 0.482 2.415-0.164 1.649-0.482 2.415c-0.318 0.765-0.784 1.46-1.371 2.045-0.578 0.619-1.274 1.116-2.048 1.46s-1.609 0.529-2.456 0.544-1.688-0.142-2.473-0.46c-0.785-0.318-1.498-0.79-2.097-1.39s-1.070-1.313-1.387-2.099c-0.317-0.786-0.472-1.627-0.456-2.474s0.202-1.682 0.547-2.455c0.345-0.773 0.843-1.469 1.464-2.046l2.573-2.573-2.573-2.573c-1.114-1.195-1.722-2.775-1.694-4.409s0.688-3.193 1.843-4.349c1.154-1.156 2.712-1.819 4.346-1.849s3.215 0.575 4.412 1.687c0.589 0.585 1.056 1.281 1.374 2.048s0.481 1.589 0.479 2.419zM16 14.12l2.573-2.573c0.66-0.694 1.029-1.615 1.029-2.573s-0.368-1.879-1.029-2.573c-0.683-0.682-1.608-1.066-2.573-1.066s-1.891 0.383-2.573 1.066c-0.66 0.694-1.029 1.615-1.029 2.573s0.368 1.879 1.029 2.573l2.573 2.573zM12.36 23.027c0 0.72 0.214 1.423 0.614 2.022s0.968 1.065 1.633 1.34c0.665 0.275 1.397 0.347 2.103 0.207s1.355-0.487 1.864-0.996c0.66-0.694 1.029-1.615 1.029-2.573s-0.368-1.879-1.029-2.573l-2.573-2.573-2.573 2.573c-0.681 0.683-1.065 1.608-1.067 2.573z"></path>
</symbol>
<symbol id="icon-apple-fruit" viewBox="0 0 32 32">
<path fill="#f87a11" style="fill: var(--color2, #f87a11)" d="M16 10.667c-0.354 0-0.693-0.14-0.943-0.391s-0.391-0.589-0.391-0.943c0.009-1.253 0.308-2.487 0.875-3.604s1.386-2.088 2.391-2.836c0.293-0.157 0.634-0.199 0.956-0.118s0.602 0.28 0.786 0.556 0.257 0.612 0.206 0.941c-0.051 0.328-0.223 0.626-0.481 0.834-0.636 0.508-1.151 1.15-1.509 1.881s-0.548 1.532-0.558 2.346c0 0.354-0.14 0.693-0.391 0.943s-0.589 0.391-0.943 0.391z"></path>
<path fill="#f87a11" style="fill: var(--color2, #f87a11)" d="M23.84 7.2c-0.976-0.397-2.027-0.577-3.079-0.526s-2.081 0.33-3.014 0.82c-0.549 0.268-1.14 0.439-1.747 0.507-0.611-0.068-1.206-0.24-1.76-0.507-0.933-0.49-1.962-0.77-3.014-0.821s-2.104 0.129-3.079 0.528c-3.213 1.333-4.573 4.533-4 9.453 0.64 6.147 3.547 12.68 7.6 12.68 0.947-0.016 1.871-0.298 2.667-0.813 0.464-0.329 1.017-0.51 1.587-0.52 0.555 0.011 1.093 0.188 1.547 0.507 0.796 0.512 1.72 0.794 2.667 0.813 4 0 6.96-6.533 7.627-12.68s-1.787-8.507-4-9.44z"></path>
</symbol>
<symbol id="icon-battery-charge" viewBox="0 0 32 32">
<path fill="#fff" style="fill: var(--color3, #fff)" d="M18.667 2.667h-5.333c-0.736 0-1.333 0.597-1.333 1.333v2.667c0 0.736 0.597 1.333 1.333 1.333h5.333c0.736 0 1.333-0.597 1.333-1.333v-2.667c0-0.736-0.597-1.333-1.333-1.333z"></path>
<path fill="#f87a11" style="fill: var(--color2, #f87a11)" d="M21.333 5.333h-10.667c-1.473 0-2.667 1.194-2.667 2.667v18.667c0 1.473 1.194 2.667 2.667 2.667h10.667c1.473 0 2.667-1.194 2.667-2.667v-18.667c0-1.473-1.194-2.667-2.667-2.667z"></path>
<path fill="#fff" style="fill: var(--color3, #fff)" d="M16 21.333c-0.209 0.003-0.416-0.048-0.6-0.147-0.314-0.16-0.552-0.437-0.662-0.772s-0.083-0.699 0.075-1.014l0.36-0.733h-0.507c-0.227-0.001-0.451-0.059-0.649-0.171s-0.365-0.271-0.483-0.465c-0.119-0.194-0.186-0.415-0.196-0.642s0.039-0.453 0.141-0.656l1.333-2.667c0.174-0.289 0.45-0.501 0.773-0.594s0.67-0.061 0.971 0.091c0.3 0.152 0.532 0.412 0.649 0.728s0.11 0.664-0.020 0.975l-0.36 0.733h0.507c0.227 0.001 0.451 0.059 0.649 0.171s0.365 0.271 0.483 0.465c0.119 0.194 0.186 0.415 0.196 0.642s-0.039 0.453-0.141 0.656l-1.333 2.667c-0.111 0.22-0.28 0.405-0.49 0.534s-0.451 0.198-0.697 0.199z"></path>
</symbol>
<symbol id="icon-bike-2" viewBox="0 0 32 32">
<path fill="#fff" style="fill: var(--color3, #fff)" d="M24 26.667c-1.055 0-2.086-0.313-2.963-0.899s-1.561-1.419-1.964-2.394c-0.404-0.975-0.509-2.047-0.303-3.081s0.714-1.985 1.46-2.731 1.696-1.254 2.731-1.46c1.035-0.206 2.107-0.1 3.081 0.303s1.808 1.087 2.394 1.964 0.899 1.908 0.899 2.963c0 1.415-0.562 2.771-1.562 3.771s-2.357 1.562-3.771 1.562zM24 18.667c-0.527 0-1.043 0.156-1.481 0.449s-0.78 0.709-0.982 1.197c-0.202 0.487-0.255 1.023-0.152 1.541s0.357 0.992 0.73 1.365 0.848 0.627 1.365 0.73c0.517 0.103 1.053 0.050 1.541-0.152s0.904-0.544 1.197-0.982c0.293-0.439 0.449-0.954 0.449-1.481 0-0.707-0.281-1.385-0.781-1.886s-1.178-0.781-1.886-0.781zM8 26.667c-1.055 0-2.086-0.313-2.963-0.899s-1.561-1.419-1.964-2.394c-0.404-0.975-0.509-2.047-0.304-3.081s0.714-1.985 1.46-2.731 1.696-1.254 2.731-1.46c1.035-0.206 2.107-0.1 3.081 0.303s1.807 1.087 2.394 1.964 0.899 1.908 0.899 2.963c0 1.415-0.562 2.771-1.562 3.771s-2.357 1.562-3.771 1.562zM8 18.667c-0.527 0-1.043 0.156-1.482 0.449s-0.78 0.709-0.982 1.197c-0.202 0.487-0.255 1.023-0.152 1.541s0.357 0.992 0.73 1.365 0.848 0.627 1.365 0.73c0.517 0.103 1.053 0.050 1.541-0.152s0.904-0.544 1.197-0.982 0.449-0.954 0.449-1.481c0-0.707-0.281-1.385-0.781-1.886s-1.178-0.781-1.886-0.781z"></path>
<path fill="#f87a11" style="fill: var(--color2, #f87a11)" d="M22.84 7.52c-0.114-0.621-0.444-1.182-0.932-1.582s-1.103-0.615-1.734-0.604h-1.507c-0.354 0-0.693 0.14-0.943 0.391s-0.391 0.589-0.391 0.943c0 0.354 0.141 0.693 0.391 0.943s0.589 0.391 0.943 0.391h1.56l0.4 2.24-4.52 4.8-0.72-3.56c-0.12-0.605-0.446-1.149-0.923-1.541s-1.074-0.606-1.691-0.606h-2.107c-0.354 0-0.693 0.14-0.943 0.391s-0.391 0.589-0.391 0.943c0 0.354 0.14 0.693 0.391 0.943s0.589 0.391 0.943 0.391h2.107l1.080 5.413-2.427 2.587h-3.427c-0.354 0-0.693 0.141-0.943 0.391s-0.391 0.589-0.391 0.943 0.14 0.693 0.391 0.943c0.25 0.25 0.589 0.391 0.943 0.391h4c0.182 0.001 0.362-0.035 0.529-0.106s0.318-0.176 0.444-0.307l8.253-8.747 1.467 8c0.042 0.318 0.197 0.611 0.437 0.824s0.549 0.332 0.87 0.336c0.079 0.013 0.161 0.013 0.24 0 0.346-0.065 0.652-0.264 0.852-0.553s0.277-0.647 0.215-0.993l-2.467-13.6z"></path>
</symbol>
<symbol id="icon-caution" viewBox="0 0 33 32">
<path fill="#f87a11" style="fill: var(--color2, #f87a11)" d="M21.306 3.547c-0.249-0.276-0.554-0.497-0.894-0.649s-0.708-0.23-1.080-0.231h-5.333c-0.374-0.002-0.744 0.075-1.086 0.225s-0.649 0.371-0.9 0.648c-0.251 0.277-0.442 0.603-0.559 0.958s-0.158 0.731-0.121 1.103l1.067 10.667c0.066 0.66 0.376 1.272 0.869 1.715s1.134 0.688 1.797 0.685h3.2c0.663 0.003 1.304-0.241 1.797-0.685s0.803-1.055 0.869-1.715l1.067-10.667c0.035-0.372-0.009-0.747-0.129-1.1s-0.312-0.678-0.565-0.953z"></path>
<path fill="#f87a11" style="fill: var(--color2, #f87a11)" d="M16.667 29.333c2.209 0 4-1.791 4-4s-1.791-4-4-4c-2.209 0-4 1.791-4 4s1.791 4 4 4z"></path>
</symbol>
<symbol id="icon-user" viewBox="0 0 33 32">
<path fill="#f87a11" style="fill: var(--color2, #f87a11)" d="M28.667 26.667c0 0.707-0.281 1.385-0.781 1.886s-1.178 0.781-1.886 0.781h-18.667c-0.707 0-1.386-0.281-1.886-0.781s-0.781-1.178-0.781-1.886c0-2.122 0.843-4.157 2.343-5.657s3.535-2.343 5.657-2.343h8c2.122 0 4.157 0.843 5.657 2.343s2.343 3.535 2.343 5.657zM16.667 16c1.319 0 2.607-0.391 3.704-1.124s1.951-1.774 2.455-2.992 0.637-2.559 0.379-3.852c-0.257-1.293-0.892-2.481-1.825-3.413s-2.12-1.567-3.413-1.825c-1.293-0.257-2.634-0.125-3.852 0.379s-2.259 1.359-2.992 2.455-1.124 2.385-1.124 3.704c0 1.768 0.702 3.464 1.953 4.714s2.946 1.953 4.714 1.953z"></path>
</symbol>
<symbol id="icon-untitled" viewBox="0 0 44 32">
<path fill="#f87a11" style="fill: var(--color1, #f87a11)" opacity="0.1" d="M0.256 31.659l2.901-14.677c1.963-9.643 9.557-15.701 19.371-16.64l-1.877 9.301c-4.181 0.256-7.168 2.901-7.936 6.656h7.253l-3.072 15.36h-16.64zM21.333 31.659l2.901-14.677c1.963-9.643 9.557-15.701 19.371-16.64l-1.877 9.301c-4.181 0.256-7.168 2.901-7.936 6.656h7.253l-3.072 15.36h-16.64z"></path>
</symbol>
<symbol id="icon-fizkylt" viewBox="0 0 95 32">
<path fill="#ff7500" style="fill: var(--color4, #ff7500)" d="M22.951 24h-3.653l2.767-15.925h3.642l-2.756 15.925zM25.826 24l0.394-2.188 7.848-10.773h-6.12l0.525-2.964h10.412l-0.372 2.144-7.803 10.828h5.933l-0.514 2.953h-10.303zM41.39 8.075h3.653l-1.131 6.51 1.109-1.61 3.106-4.9h4.692l-5.536 7.112 2.539 8.813h-4.189l-1.222-5.563-1.435 1.533-0.7 4.029h-3.631l2.745-15.925zM58.965 1.557l-1.664-1.482-3.806 0.011-0.416 0.522-0.26-0.533h-4.692l-2.109 1.16-0.976-1.16h-3.653l-1.465 1.234-1.039-1.234h-10.412l-1.622 1.36-1.145-1.36h-3.642l-1.504 1.266-1.065-1.266h-8.837l-7.884 6.641-2.745 15.925 7.884 9.359h3.631l4.541-3.82 3.213 3.82h3.653l1.688-1.421 1.188 1.421h10.303l1.472-1.238 1.043 1.238h3.631l1.641-1.38 1.717 1.38h4.189l2.329-3.095 2.603 3.095h3.73l3.553-3 2.527 3h8.859l1.921-1.616 1.359 1.616h3.664l7.882-6.63 1.611-9.276 4.382-3.688 0.514-2.964-7.882-9.367h-11.047l-2.854 2.393-2.013-2.393h-3.653l-1.321 1.113-0.647-1.113h-4.058l-2.319 1.482zM53.518 8.086l3.806-0.011 0.777 6.88 3.183-6.88h4.058l-5.917 10.391-0.941 5.534h-3.73l1.028-5.906-2.264-10.008zM64.564 24l2.745-15.925h3.653l-2.254 12.972h5.229l-0.514 2.953h-8.859zM76.704 24l2.252-12.961h-3.652l0.525-2.964h11.047l-0.514 2.964h-3.742l-2.252 12.961h-3.664zM18.981 11.039h-5.185l-0.637 3.664h4.75l-0.514 2.953h-4.749l-1.102 6.344h-3.631l2.745-15.925h8.837l-0.514 2.964z"></path>
</symbol>
<symbol id="icon-Vector" viewBox="0 0 42 32"><path fill="#fff" stroke="#fff" stroke-width=".64" d="m6.263 15.205-.22-.21-3.307 3.132 11.651 11.114L38.864 5.89l-3.285-3.134-21.192 20.197-8.124-7.75z" style=""/></symbol>
</defs>
</svg>
