<svg width="236" height="43" viewBox="0 0 236 43" fill="none" xmlns="http://www.w3.org/2000/svg">
<mask id="path-1-outside-1_2299_2346" maskUnits="userSpaceOnUse" x="-4" y="-4" width="245" height="51" fill="black">
<rect fill="white" x="-4" y="-4" width="245" height="51"/>
<path d="M6.94688 42H0.754876L6.41888 6.288H21.6829L16.0189 42H9.82688L14.4829 12.576H11.6029L6.94688 42ZM29.6734 42L34.3294 12.576H31.8814C30.0574 24.352 28.6974 32.064 27.8014 35.712C27.2574 37.952 26.4734 39.568 25.4494 40.56C24.4254 41.52 22.7934 42 20.5534 42H18.9694L19.9774 35.52H20.3614C20.9694 35.52 21.4174 35.344 21.7054 34.992C21.9934 34.64 22.2334 34.016 22.4254 33.12C23.8654 25.792 25.4014 16.848 27.0334 6.288H41.5294L35.8654 42H29.6734ZM48.6724 42L48.9604 36H45.1684L43.6804 42H38.0644L48.0964 6.288H55.4404L54.6244 42H48.6724ZM46.7524 29.856H49.2484L49.7764 17.808L46.7524 29.856ZM67.0166 34.08L68.2646 26.304H74.4566L73.2086 34.176C72.8566 36.736 72.0886 38.768 70.9046 40.272C69.7206 41.776 67.8646 42.528 65.3366 42.528H64.0886C61.3046 42.528 59.4006 41.744 58.3766 40.176C57.3526 38.576 57.0166 36.576 57.3686 34.176L60.5846 13.92C61.0326 11.36 61.8326 9.376 62.9846 7.968C64.1366 6.528 65.9766 5.808 68.5046 5.808H69.8006C75.0806 5.808 77.2886 8.432 76.4246 13.68L75.4646 19.776H69.2726L70.2326 13.92C70.4246 12.544 69.9606 11.856 68.8406 11.856C68.2646 11.856 67.8486 12.016 67.5926 12.336C67.3686 12.656 67.1926 13.184 67.0646 13.92L63.8486 34.176C63.7526 34.784 63.8166 35.28 64.0406 35.664C64.2966 36.048 64.7126 36.24 65.2886 36.24C65.8326 36.24 66.2166 36.064 66.4406 35.712C66.6966 35.36 66.8886 34.816 67.0166 34.08ZM85.2266 42L83.4986 26.544L81.0506 42H74.8586L80.5226 6.288H86.7146L84.5546 19.872L90.6026 6.288H96.8906L89.5466 22.752L91.7546 42H85.2266ZM103.96 42L106.984 23.04L99.8321 42H93.7361L99.4001 6.288H105.496L102.472 25.392L109.624 6.288H115.72L110.056 42H103.96ZM123.494 42L126.518 23.04L119.366 42H113.27L118.934 6.288H125.03L122.006 25.392L129.158 6.288H135.254L129.59 42H123.494ZM127.718 5.184H127.526C125.926 5.184 124.71 4.736 123.878 3.84C123.046 2.912 122.726 1.632 122.918 -2.86102e-06H126.806C126.742 0.415998 126.79 0.767998 126.95 1.056C127.142 1.312 127.43 1.44 127.814 1.44H127.862C128.694 1.44 129.11 0.959998 129.11 -2.86102e-06H133.094C133.03 1.632 132.502 2.912 131.51 3.84C130.55 4.736 129.286 5.184 127.718 5.184ZM150.83 26.736L144.446 42H137.918L146.462 22.512L144.11 6.288H150.206L151.934 20.064L154.094 6.288H160.286L158.078 20.064L164.174 6.288H170.27L162.782 22.512L165.134 42H158.606L157.022 26.832L154.622 42H148.43L150.83 26.736ZM177.642 42L180.666 23.04L173.514 42H167.418L173.082 6.288H179.178L176.154 25.392L183.306 6.288H189.402L183.738 42H177.642ZM187.048 42L192.712 6.288H201.592C203.768 6.288 205.32 6.8 206.248 7.824C207.208 8.816 207.496 10.432 207.112 12.672L206.392 17.232C205.944 20.08 204.68 21.808 202.6 22.416C204.776 23.216 205.656 25.088 205.24 28.032L204.328 33.984C203.848 36.832 203.128 38.88 202.168 40.128C201.24 41.376 199.848 42 197.992 42H187.048ZM197.224 26.016H195.784L194.104 36.336H195.88C196.456 36.336 196.888 36.208 197.176 35.952C197.464 35.696 197.688 35.088 197.848 34.128L198.76 28.368C198.888 27.568 198.84 26.976 198.616 26.592C198.392 26.208 197.928 26.016 197.224 26.016ZM199.432 11.76H198.04L196.696 20.256H198.232C198.744 20.256 199.128 20.128 199.384 19.872C199.672 19.616 199.896 19.12 200.056 18.384L200.824 13.632C201.016 12.384 200.552 11.76 199.432 11.76ZM217.781 6.288L212.117 42H205.925L211.589 6.288H217.781ZM220.422 6.288H235.494L234.486 12.576H230.118L225.462 42H219.27L223.926 12.576H219.414L220.422 6.288Z"/>
</mask>
<path d="M6.94688 42H0.754876L6.41888 6.288H21.6829L16.0189 42H9.82688L14.4829 12.576H11.6029L6.94688 42ZM29.6734 42L34.3294 12.576H31.8814C30.0574 24.352 28.6974 32.064 27.8014 35.712C27.2574 37.952 26.4734 39.568 25.4494 40.56C24.4254 41.52 22.7934 42 20.5534 42H18.9694L19.9774 35.52H20.3614C20.9694 35.52 21.4174 35.344 21.7054 34.992C21.9934 34.64 22.2334 34.016 22.4254 33.12C23.8654 25.792 25.4014 16.848 27.0334 6.288H41.5294L35.8654 42H29.6734ZM48.6724 42L48.9604 36H45.1684L43.6804 42H38.0644L48.0964 6.288H55.4404L54.6244 42H48.6724ZM46.7524 29.856H49.2484L49.7764 17.808L46.7524 29.856ZM67.0166 34.08L68.2646 26.304H74.4566L73.2086 34.176C72.8566 36.736 72.0886 38.768 70.9046 40.272C69.7206 41.776 67.8646 42.528 65.3366 42.528H64.0886C61.3046 42.528 59.4006 41.744 58.3766 40.176C57.3526 38.576 57.0166 36.576 57.3686 34.176L60.5846 13.92C61.0326 11.36 61.8326 9.376 62.9846 7.968C64.1366 6.528 65.9766 5.808 68.5046 5.808H69.8006C75.0806 5.808 77.2886 8.432 76.4246 13.68L75.4646 19.776H69.2726L70.2326 13.92C70.4246 12.544 69.9606 11.856 68.8406 11.856C68.2646 11.856 67.8486 12.016 67.5926 12.336C67.3686 12.656 67.1926 13.184 67.0646 13.92L63.8486 34.176C63.7526 34.784 63.8166 35.28 64.0406 35.664C64.2966 36.048 64.7126 36.24 65.2886 36.24C65.8326 36.24 66.2166 36.064 66.4406 35.712C66.6966 35.36 66.8886 34.816 67.0166 34.08ZM85.2266 42L83.4986 26.544L81.0506 42H74.8586L80.5226 6.288H86.7146L84.5546 19.872L90.6026 6.288H96.8906L89.5466 22.752L91.7546 42H85.2266ZM103.96 42L106.984 23.04L99.8321 42H93.7361L99.4001 6.288H105.496L102.472 25.392L109.624 6.288H115.72L110.056 42H103.96ZM123.494 42L126.518 23.04L119.366 42H113.27L118.934 6.288H125.03L122.006 25.392L129.158 6.288H135.254L129.59 42H123.494ZM127.718 5.184H127.526C125.926 5.184 124.71 4.736 123.878 3.84C123.046 2.912 122.726 1.632 122.918 -2.86102e-06H126.806C126.742 0.415998 126.79 0.767998 126.95 1.056C127.142 1.312 127.43 1.44 127.814 1.44H127.862C128.694 1.44 129.11 0.959998 129.11 -2.86102e-06H133.094C133.03 1.632 132.502 2.912 131.51 3.84C130.55 4.736 129.286 5.184 127.718 5.184ZM150.83 26.736L144.446 42H137.918L146.462 22.512L144.11 6.288H150.206L151.934 20.064L154.094 6.288H160.286L158.078 20.064L164.174 6.288H170.27L162.782 22.512L165.134 42H158.606L157.022 26.832L154.622 42H148.43L150.83 26.736ZM177.642 42L180.666 23.04L173.514 42H167.418L173.082 6.288H179.178L176.154 25.392L183.306 6.288H189.402L183.738 42H177.642ZM187.048 42L192.712 6.288H201.592C203.768 6.288 205.32 6.8 206.248 7.824C207.208 8.816 207.496 10.432 207.112 12.672L206.392 17.232C205.944 20.08 204.68 21.808 202.6 22.416C204.776 23.216 205.656 25.088 205.24 28.032L204.328 33.984C203.848 36.832 203.128 38.88 202.168 40.128C201.24 41.376 199.848 42 197.992 42H187.048ZM197.224 26.016H195.784L194.104 36.336H195.88C196.456 36.336 196.888 36.208 197.176 35.952C197.464 35.696 197.688 35.088 197.848 34.128L198.76 28.368C198.888 27.568 198.84 26.976 198.616 26.592C198.392 26.208 197.928 26.016 197.224 26.016ZM199.432 11.76H198.04L196.696 20.256H198.232C198.744 20.256 199.128 20.128 199.384 19.872C199.672 19.616 199.896 19.12 200.056 18.384L200.824 13.632C201.016 12.384 200.552 11.76 199.432 11.76ZM217.781 6.288L212.117 42H205.925L211.589 6.288H217.781ZM220.422 6.288H235.494L234.486 12.576H230.118L225.462 42H219.27L223.926 12.576H219.414L220.422 6.288Z" fill="#FF7400"/>
<path d="M6.94688 42V46H10.3637L10.8977 42.6252L6.94688 42ZM0.754876 42L-3.19574 41.3734L-3.92953 46H0.754876V42ZM6.41888 6.288V2.288H3.00329L2.46826 5.66142L6.41888 6.288ZM21.6829 6.288L25.6335 6.91458L26.3673 2.288H21.6829V6.288ZM16.0189 42V46H19.4345L19.9695 42.6266L16.0189 42ZM9.82688 42L5.87603 41.3748L5.14415 46H9.82688V42ZM14.4829 12.576L18.4337 13.2012L19.1656 8.576H14.4829V12.576ZM11.6029 12.576V8.576H8.18606L7.65203 11.9508L11.6029 12.576ZM6.94688 38H0.754876V46H6.94688V38ZM4.7055 42.6266L10.3695 6.91458L2.46826 5.66142L-3.19574 41.3734L4.7055 42.6266ZM6.41888 10.288H21.6829V2.288H6.41888V10.288ZM17.7323 5.66142L12.0683 41.3734L19.9695 42.6266L25.6335 6.91458L17.7323 5.66142ZM16.0189 38H9.82688V46H16.0189V38ZM13.7777 42.6252L18.4337 13.2012L10.532 11.9508L5.87603 41.3748L13.7777 42.6252ZM14.4829 8.576H11.6029V16.576H14.4829V8.576ZM7.65203 11.9508L2.99603 41.3748L10.8977 42.6252L15.5537 13.2012L7.65203 11.9508ZM29.6734 42L25.7225 41.3748L24.9907 46H29.6734V42ZM34.3294 12.576L38.2802 13.2012L39.0121 8.576H34.3294V12.576ZM31.8814 12.576V8.576H28.4532L27.9285 11.9637L31.8814 12.576ZM27.8014 35.712L23.9168 34.7579L23.9144 34.768L27.8014 35.712ZM25.4494 40.56L28.1851 43.4781L28.209 43.4557L28.2326 43.433L25.4494 40.56ZM18.9694 42L15.0169 41.3852L14.299 46H18.9694V42ZM19.9774 35.52V31.52H16.5515L16.0249 34.9052L19.9774 35.52ZM21.7054 34.992L18.6095 32.459L18.6095 32.459L21.7054 34.992ZM22.4254 33.12L26.3366 33.9581L26.3437 33.9248L26.3503 33.8913L22.4254 33.12ZM27.0334 6.288V2.288H23.6041L23.0803 5.67707L27.0334 6.288ZM41.5294 6.288L45.48 6.91458L46.2138 2.288H41.5294V6.288ZM35.8654 42V46H39.281L39.816 42.6266L35.8654 42ZM33.6242 42.6252L38.2802 13.2012L30.3785 11.9508L25.7225 41.3748L33.6242 42.6252ZM34.3294 8.576H31.8814V16.576H34.3294V8.576ZM27.9285 11.9637C26.0989 23.7758 24.7637 31.3099 23.9168 34.7579L31.6859 36.6661C32.631 32.8181 34.0158 24.9282 35.8342 13.1883L27.9285 11.9637ZM23.9144 34.768C23.4491 36.6838 22.9082 37.4526 22.6662 37.687L28.2326 43.433C30.0386 41.6834 31.0656 39.2202 31.6884 36.656L23.9144 34.768ZM22.7136 37.6418C22.7659 37.5928 22.355 38 20.5534 38V46C23.2318 46 26.0848 45.4472 28.1851 43.4781L22.7136 37.6418ZM20.5534 38H18.9694V46H20.5534V38ZM22.9218 42.6148L23.9298 36.1348L16.0249 34.9052L15.0169 41.3852L22.9218 42.6148ZM19.9774 39.52H20.3614V31.52H19.9774V39.52ZM20.3614 39.52C21.738 39.52 23.5171 39.0944 24.8012 37.5249L18.6095 32.459C18.9246 32.074 19.316 31.8122 19.6908 31.665C20.0374 31.5288 20.2913 31.52 20.3614 31.52V39.52ZM24.8012 37.525C25.7264 36.3941 26.1203 34.9673 26.3366 33.9581L18.5142 32.2819C18.4817 32.4332 18.4513 32.5539 18.4248 32.6475C18.3979 32.7418 18.3779 32.7984 18.368 32.8241C18.3576 32.8511 18.364 32.8296 18.3942 32.7737C18.4235 32.7196 18.4907 32.6043 18.6095 32.459L24.8012 37.525ZM26.3503 33.8913C27.8042 26.4928 29.3494 17.4919 30.9864 6.89893L23.0803 5.67707C21.4534 16.2041 19.9266 25.0912 18.5004 32.3487L26.3503 33.8913ZM27.0334 10.288H41.5294V2.288H27.0334V10.288ZM37.5788 5.66142L31.9148 41.3734L39.816 42.6266L45.48 6.91458L37.5788 5.66142ZM35.8654 38H29.6734V46H35.8654V38ZM48.6724 42L44.677 41.8082L44.4758 46H48.6724V42ZM48.9604 36L52.9558 36.1918L53.157 32H48.9604V36ZM45.1684 36V32H42.0392L41.286 35.0372L45.1684 36ZM43.6804 42V46H46.8096L47.5628 42.9628L43.6804 42ZM38.0644 42L34.2134 40.9182L32.7859 46H38.0644V42ZM48.0964 6.288V2.288H45.0652L44.2454 5.20622L48.0964 6.288ZM55.4404 6.288L59.4393 6.37937L59.5328 2.288H55.4404V6.288ZM54.6244 42V46H58.534L58.6233 42.0914L54.6244 42ZM46.7524 29.856L42.8727 28.8822L41.6243 33.856H46.7524V29.856ZM49.2484 29.856V33.856H53.0769L53.2445 30.0311L49.2484 29.856ZM49.7764 17.808L53.7725 17.9831L45.8967 16.8342L49.7764 17.808ZM52.6678 42.1918L52.9558 36.1918L44.965 35.8082L44.677 41.8082L52.6678 42.1918ZM48.9604 32H45.1684V40H48.9604V32ZM41.286 35.0372L39.798 41.0372L47.5628 42.9628L49.0508 36.9628L41.286 35.0372ZM43.6804 38H38.0644V46H43.6804V38ZM41.9153 43.0818L51.9473 7.36978L44.2454 5.20622L34.2134 40.9182L41.9153 43.0818ZM48.0964 10.288H55.4404V2.288H48.0964V10.288ZM51.4414 6.19662L50.6254 41.9086L58.6233 42.0914L59.4393 6.37937L51.4414 6.19662ZM54.6244 38H48.6724V46H54.6244V38ZM46.7524 33.856H49.2484V25.856H46.7524V33.856ZM53.2445 30.0311L53.7725 17.9831L45.7802 17.6329L45.2522 29.6809L53.2445 30.0311ZM45.8967 16.8342L42.8727 28.8822L50.632 30.8298L53.656 18.7818L45.8967 16.8342ZM67.0166 34.08L70.9575 34.7654L70.9619 34.7396L70.9661 34.7139L67.0166 34.08ZM68.2646 26.304V22.304H64.8554L64.3152 25.6701L68.2646 26.304ZM74.4566 26.304L78.4073 26.9303L79.1407 22.304H74.4566V26.304ZM73.2086 34.176L69.258 33.5497L69.2515 33.5903L69.2459 33.6311L73.2086 34.176ZM70.9046 40.272L74.0476 42.7462L70.9046 40.272ZM58.3766 40.176L55.0075 42.3322L55.0175 42.3477L55.0275 42.3632L58.3766 40.176ZM57.3686 34.176L53.4181 33.5488L53.4144 33.5721L53.411 33.5955L57.3686 34.176ZM60.5846 13.92L56.6445 13.2305L56.6391 13.2616L56.6341 13.2928L60.5846 13.92ZM62.9846 7.968L66.0805 10.5009L66.0944 10.4839L66.1081 10.4668L62.9846 7.968ZM76.4246 13.68L72.4778 13.0302L72.4755 13.044L72.4733 13.0577L76.4246 13.68ZM75.4646 19.776V23.776H78.884L79.4159 20.3983L75.4646 19.776ZM69.2726 19.776L65.3253 19.1289L64.5635 23.776H69.2726V19.776ZM70.2326 13.92L74.1799 14.5671L74.1877 14.52L74.1942 14.4728L70.2326 13.92ZM67.5926 12.336L64.4692 9.83722L64.3891 9.93723L64.3157 10.0421L67.5926 12.336ZM67.0646 13.92L63.1238 13.2346L63.1187 13.2637L63.1141 13.2928L67.0646 13.92ZM63.8486 34.176L59.8981 33.5488L59.8976 33.5521L63.8486 34.176ZM64.0406 35.664L60.5855 37.6795L60.6459 37.783L60.7124 37.8828L64.0406 35.664ZM66.4406 35.712L63.2057 33.3593L63.1326 33.4597L63.066 33.5645L66.4406 35.712ZM70.9661 34.7139L72.2141 26.9379L64.3152 25.6701L63.0672 33.4461L70.9661 34.7139ZM68.2646 30.304H74.4566V22.304H68.2646V30.304ZM70.506 25.6777L69.258 33.5497L77.1593 34.8023L78.4073 26.9303L70.506 25.6777ZM69.2459 33.6311C68.9581 35.7243 68.3779 37.015 67.7617 37.7978L74.0476 42.7462C75.7993 40.521 76.7551 37.7477 77.1713 34.7209L69.2459 33.6311ZM67.7617 37.7978C67.5646 38.0481 67.0627 38.528 65.3366 38.528V46.528C68.6665 46.528 71.8766 45.5039 74.0476 42.7462L67.7617 37.7978ZM65.3366 38.528H64.0886V46.528H65.3366V38.528ZM64.0886 38.528C63.0461 38.528 62.4268 38.3777 62.0956 38.2413C61.8134 38.1251 61.7519 38.0289 61.7257 37.9888L55.0275 42.3632C57.1054 45.5448 60.6549 46.528 64.0886 46.528V38.528ZM61.7457 38.0198C61.3719 37.4357 61.0743 36.4743 61.3263 34.7565L53.411 33.5955C52.9589 36.6777 53.3333 39.7163 55.0075 42.3322L61.7457 38.0198ZM61.3191 34.8032L64.5351 14.5472L56.6341 13.2928L53.4181 33.5488L61.3191 34.8032ZM64.5247 14.6095C64.9021 12.4534 65.5106 11.1975 66.0805 10.5009L59.8888 5.43505C58.1547 7.55452 57.1632 10.2666 56.6445 13.2305L64.5247 14.6095ZM66.1081 10.4668C66.2455 10.295 66.7135 9.808 68.5046 9.808V1.808C65.2398 1.808 62.0277 2.761 59.8612 5.46922L66.1081 10.4668ZM68.5046 9.808H69.8006V1.808H68.5046V9.808ZM69.8006 9.808C71.9006 9.808 72.3453 10.3387 72.356 10.3514C72.3741 10.3729 72.8244 10.9244 72.4778 13.0302L80.3715 14.3298C80.8888 11.1876 80.6671 7.8031 78.4772 5.20061C76.2799 2.58932 72.9807 1.808 69.8006 1.808V9.808ZM72.4733 13.0577L71.5133 19.1537L79.4159 20.3983L80.3759 14.3023L72.4733 13.0577ZM75.4646 15.776H69.2726V23.776H75.4646V15.776ZM73.2199 20.4231L74.1799 14.5671L66.2853 13.2729L65.3253 19.1289L73.2199 20.4231ZM74.1942 14.4728C74.3412 13.4197 74.3973 11.6959 73.3449 10.1354C72.1227 8.3232 70.2186 7.856 68.8406 7.856V15.856C68.7282 15.856 68.3945 15.8408 67.9641 15.6539C67.4929 15.4492 67.0403 15.0948 66.7123 14.6086C66.1239 13.7361 66.3161 13.0443 66.271 13.3672L74.1942 14.4728ZM68.8406 7.856C67.5676 7.856 65.7577 8.22657 64.4692 9.83722L70.7161 14.8348C70.3626 15.2767 69.9267 15.5578 69.5325 15.7094C69.1701 15.8488 68.907 15.856 68.8406 15.856V7.856ZM64.3157 10.0421C63.5709 11.1061 63.277 12.3539 63.1238 13.2346L71.0055 14.6054C71.025 14.4932 71.0433 14.4065 71.0587 14.3424C71.0743 14.2776 71.0849 14.2443 71.0874 14.2369C71.0901 14.2285 71.0802 14.2603 71.0514 14.3215C71.0231 14.3813 70.9663 14.4916 70.8696 14.6298L64.3157 10.0421ZM63.1141 13.2928L59.8981 33.5488L67.7991 34.8032L71.0151 14.5472L63.1141 13.2928ZM59.8976 33.5521C59.7125 34.724 59.7465 36.2411 60.5855 37.6795L67.4957 33.6485C67.8868 34.3189 67.7927 34.844 67.7997 34.7999L59.8976 33.5521ZM60.7124 37.8828C61.8972 39.66 63.7515 40.24 65.2886 40.24V32.24C65.435 32.24 65.7864 32.2636 66.2209 32.4642C66.6885 32.68 67.0903 33.0275 67.3688 33.4452L60.7124 37.8828ZM65.2886 40.24C66.732 40.24 68.6367 39.7115 69.8153 37.8595L63.066 33.5645C63.3734 33.0815 63.8183 32.7008 64.318 32.4717C64.7766 32.2616 65.1447 32.24 65.2886 32.24V40.24ZM69.6756 38.0647C70.4622 36.983 70.7896 35.7304 70.9575 34.7654L63.0758 33.3946C63.0583 33.4953 63.0417 33.5714 63.0281 33.6259C63.0143 33.6808 63.0054 33.7067 63.0047 33.7087C63.0038 33.7112 63.0146 33.6797 63.0429 33.6231C63.0711 33.5668 63.1225 33.4737 63.2057 33.3593L69.6756 38.0647ZM85.2266 42L81.2514 42.4444L81.6489 46H85.2266V42ZM83.4986 26.544L87.4739 26.0996L79.5479 25.9183L83.4986 26.544ZM81.0506 42V46H84.4669L85.0014 42.6257L81.0506 42ZM74.8586 42L70.908 41.3734L70.1742 46H74.8586V42ZM80.5226 6.288V2.288H77.107L76.572 5.66142L80.5226 6.288ZM86.7146 6.288L90.665 6.91615L91.4009 2.288H86.7146V6.288ZM84.5546 19.872L80.6043 19.2438L88.2088 21.4989L84.5546 19.872ZM90.6026 6.288V2.288H88.005L86.9484 4.66105L90.6026 6.288ZM96.8906 6.288L100.544 7.91749L103.055 2.288H96.8906V6.288ZM89.5466 22.752L85.8936 21.1225L85.4481 22.1213L85.5727 23.2079L89.5466 22.752ZM91.7546 42V46H96.2397L95.7286 41.5441L91.7546 42ZM89.2019 41.5556L87.4739 26.0996L79.5234 26.9884L81.2514 42.4444L89.2019 41.5556ZM79.5479 25.9183L77.0999 41.3743L85.0014 42.6257L87.4494 27.1697L79.5479 25.9183ZM81.0506 38H74.8586V46H81.0506V38ZM78.8092 42.6266L84.4733 6.91458L76.572 5.66142L70.908 41.3734L78.8092 42.6266ZM80.5226 10.288H86.7146V2.288H80.5226V10.288ZM82.7643 5.65985L80.6043 19.2438L88.505 20.5001L90.665 6.91615L82.7643 5.65985ZM88.2088 21.4989L94.2568 7.91495L86.9484 4.66105L80.9004 18.245L88.2088 21.4989ZM90.6026 10.288H96.8906V2.288H90.6026V10.288ZM93.2376 4.65851L85.8936 21.1225L93.1997 24.3815L100.544 7.91749L93.2376 4.65851ZM85.5727 23.2079L87.7807 42.4559L95.7286 41.5441L93.5206 22.2961L85.5727 23.2079ZM91.7546 38H85.2266V46H91.7546V38ZM103.96 42L100.01 41.37L99.2716 46H103.96V42ZM106.984 23.04L110.934 23.67L103.242 21.6282L106.984 23.04ZM99.8321 42V46H102.598L103.575 43.4118L99.8321 42ZM93.7361 42L89.7855 41.3734L89.0517 46H93.7361V42ZM99.4001 6.288V2.288H95.9845L95.4495 5.66142L99.4001 6.288ZM105.496 6.288L109.447 6.91338L110.179 2.288H105.496V6.288ZM102.472 25.392L98.5213 24.7666L106.218 26.7944L102.472 25.392ZM109.624 6.288V2.288H106.85L105.878 4.88557L109.624 6.288ZM115.72 6.288L119.671 6.91458L120.405 2.288H115.72V6.288ZM110.056 42V46H113.472L114.007 42.6266L110.056 42ZM107.91 42.63L110.934 23.67L103.034 22.41L100.01 41.37L107.91 42.63ZM103.242 21.6282L96.0895 40.5882L103.575 43.4118L110.727 24.4518L103.242 21.6282ZM99.8321 38H93.7361V46H99.8321V38ZM97.6867 42.6266L103.351 6.91458L95.4495 5.66142L89.7855 41.3734L97.6867 42.6266ZM99.4001 10.288H105.496V2.288H99.4001V10.288ZM101.545 5.66262L98.5213 24.7666L106.423 26.0174L109.447 6.91338L101.545 5.66262ZM106.218 26.7944L113.37 7.69043L105.878 4.88557L98.726 23.9896L106.218 26.7944ZM109.624 10.288H115.72V2.288H109.624V10.288ZM111.77 5.66142L106.105 41.3734L114.007 42.6266L119.671 6.91458L111.77 5.66142ZM110.056 38H103.96V46H110.056V38ZM123.494 42L119.544 41.37L118.805 46H123.494V42ZM126.518 23.04L130.468 23.67L122.775 21.6282L126.518 23.04ZM119.366 42V46H122.132L123.108 43.4118L119.366 42ZM113.27 42L109.319 41.3734L108.585 46H113.27V42ZM118.934 6.288V2.288H115.518L114.983 5.66142L118.934 6.288ZM125.03 6.288L128.981 6.91338L129.713 2.288H125.03V6.288ZM122.006 25.392L118.055 24.7666L125.752 26.7944L122.006 25.392ZM129.158 6.288V2.288H126.384L125.412 4.88557L129.158 6.288ZM135.254 6.288L139.204 6.91458L139.938 2.288H135.254V6.288ZM129.59 42V46H133.005L133.54 42.6266L129.59 42ZM123.878 3.84L120.9 6.51018L120.923 6.5362L120.947 6.5618L123.878 3.84ZM122.918 -2.86102e-06V-4H119.361L118.945 -0.467368L122.918 -2.86102e-06ZM126.806 -2.86102e-06L130.759 0.608227L131.468 -4H126.806V-2.86102e-06ZM126.95 1.056L123.453 2.99857L123.586 3.23741L123.75 3.456L126.95 1.056ZM129.11 -2.86102e-06V-4H125.11V-2.86102e-06H129.11ZM133.094 -2.86102e-06L137.091 0.15674L137.254 -4H133.094V-2.86102e-06ZM131.51 3.84L134.239 6.76422L134.243 6.76108L131.51 3.84ZM127.444 42.63L130.468 23.67L122.568 22.41L119.544 41.37L127.444 42.63ZM122.775 21.6282L115.623 40.5882L123.108 43.4118L130.26 24.4518L122.775 21.6282ZM119.366 38H113.27V46H119.366V38ZM117.22 42.6266L122.884 6.91458L114.983 5.66142L109.319 41.3734L117.22 42.6266ZM118.934 10.288H125.03V2.288H118.934V10.288ZM121.079 5.66262L118.055 24.7666L125.957 26.0174L128.981 6.91338L121.079 5.66262ZM125.752 26.7944L132.904 7.69043L125.412 4.88557L118.26 23.9896L125.752 26.7944ZM129.158 10.288H135.254V2.288H129.158V10.288ZM131.303 5.66142L125.639 41.3734L133.54 42.6266L139.204 6.91458L131.303 5.66142ZM129.59 38H123.494V46H129.59V38ZM127.718 1.184H127.526V9.184H127.718V1.184ZM127.526 1.184C127.091 1.184 126.872 1.12227 126.797 1.09463C126.742 1.07464 126.772 1.07791 126.809 1.1182L120.947 6.5618C122.751 8.50439 125.175 9.184 127.526 9.184V1.184ZM126.856 1.16982C126.9 1.21907 126.906 1.26033 126.894 1.21386C126.877 1.14299 126.838 0.916187 126.89 0.467362L118.945 -0.467368C118.664 1.92042 119.076 4.47635 120.9 6.51018L126.856 1.16982ZM122.918 4H126.806V-4H122.918V4ZM122.852 -0.608232C122.691 0.438772 122.755 1.74165 123.453 2.99857L130.447 -0.886572C130.825 -0.20565 130.792 0.393223 130.759 0.608227L122.852 -0.608232ZM123.75 3.456C124.852 4.92599 126.454 5.44 127.814 5.44V-2.56C128.062 -2.56 128.468 -2.51853 128.934 -2.31125C129.424 -2.09366 129.843 -1.75319 130.15 -1.344L123.75 3.456ZM127.814 5.44H127.862V-2.56H127.814V5.44ZM127.862 5.44C129.055 5.44 130.634 5.06911 131.821 3.69972C132.913 2.43979 133.11 0.967392 133.11 -2.86102e-06H125.11C125.11 -0.00739634 125.099 -0.75979 125.775 -1.53972C126.546 -2.42911 127.5 -2.56 127.862 -2.56V5.44ZM129.11 4H133.094V-4H129.11V4ZM129.097 -0.156745C129.065 0.650591 128.849 0.851816 128.777 0.918915L134.243 6.76108C136.155 4.97218 136.994 2.6134 137.091 0.15674L129.097 -0.156745ZM128.781 0.915778C128.701 0.990217 128.481 1.184 127.718 1.184V9.184C130.09 9.184 132.399 8.48178 134.239 6.76422L128.781 0.915778ZM150.829 26.736L154.781 27.3573L147.139 25.1926L150.829 26.736ZM144.446 42V46H147.108L148.136 43.5434L144.446 42ZM137.918 42L134.254 40.3939L131.796 46H137.918V42ZM146.462 22.512L150.125 24.1181L150.584 23.0703L150.42 21.9381L146.462 22.512ZM144.11 6.288V2.288H139.488L140.151 6.86188L144.11 6.288ZM150.206 6.288L154.174 5.79016L153.735 2.288H150.206V6.288ZM151.934 20.064L147.965 20.5618L155.885 20.6836L151.934 20.064ZM154.094 6.288V2.288H150.672L150.142 5.66839L154.094 6.288ZM160.286 6.288L164.235 6.92103L164.978 2.288H160.286V6.288ZM158.077 20.064L154.128 19.431L161.735 21.6826L158.077 20.064ZM164.174 6.288V2.288H161.569L160.516 4.66936L164.174 6.288ZM170.27 6.288L173.901 7.96423L176.521 2.288H170.27V6.288ZM162.782 22.512L159.15 20.8358L158.674 21.8654L158.81 22.9913L162.782 22.512ZM165.133 42V46H169.645L169.105 41.5207L165.133 42ZM158.605 42L154.627 42.4155L155.001 46H158.605V42ZM157.021 26.832L161 26.4165L153.071 26.2069L157.021 26.832ZM154.622 42V46H158.038L158.572 42.6251L154.622 42ZM148.43 42L144.478 41.3787L143.751 46H148.43V42ZM147.139 25.1926L140.755 40.4566L148.136 43.5434L154.52 28.2794L147.139 25.1926ZM144.446 38H137.918V46H144.446V38ZM141.581 43.6061L150.125 24.1181L142.798 20.9059L134.254 40.3939L141.581 43.6061ZM150.42 21.9381L148.068 5.71412L140.151 6.86188L142.503 23.0859L150.42 21.9381ZM144.11 10.288H150.206V2.288H144.11V10.288ZM146.237 6.78584L147.965 20.5618L155.902 19.5662L154.174 5.79016L146.237 6.78584ZM155.885 20.6836L158.045 6.90761L150.142 5.66839L147.982 19.4444L155.885 20.6836ZM154.094 10.288H160.286V2.288H154.094V10.288ZM156.336 5.65496L154.128 19.431L162.027 20.697L164.235 6.92103L156.336 5.65496ZM161.735 21.6826L167.831 7.90664L160.516 4.66936L154.42 18.4454L161.735 21.6826ZM164.174 10.288H170.27V2.288H164.174V10.288ZM166.638 4.61177L159.15 20.8358L166.413 24.1882L173.901 7.96423L166.638 4.61177ZM158.81 22.9913L161.162 42.4793L169.105 41.5207L166.753 22.0327L158.81 22.9913ZM165.133 38H158.605V46H165.133V38ZM162.584 41.5845L161 26.4165L153.043 27.2475L154.627 42.4155L162.584 41.5845ZM153.071 26.2069L150.671 41.3749L158.572 42.6251L160.972 27.4571L153.071 26.2069ZM154.622 38H148.43V46H154.622V38ZM152.381 42.6213L154.781 27.3573L146.878 26.1147L144.478 41.3787L152.381 42.6213ZM177.642 42L173.692 41.37L172.953 46H177.642V42ZM180.666 23.04L184.616 23.67L176.923 21.6282L180.666 23.04ZM173.514 42V46H176.28L177.257 43.4118L173.514 42ZM167.418 42L163.467 41.3734L162.734 46H167.418V42ZM173.082 6.288V2.288H169.666L169.131 5.66142L173.082 6.288ZM179.178 6.288L183.129 6.91338L183.861 2.288H179.178V6.288ZM176.154 25.392L172.203 24.7666L179.9 26.7944L176.154 25.392ZM183.306 6.288V2.288H180.532L179.56 4.88557L183.306 6.288ZM189.402 6.288L193.353 6.91458L194.086 2.288H189.402V6.288ZM183.738 42V46H187.154L187.689 42.6266L183.738 42ZM181.592 42.63L184.616 23.67L176.716 22.41L173.692 41.37L181.592 42.63ZM176.923 21.6282L169.771 40.5882L177.257 43.4118L184.409 24.4518L176.923 21.6282ZM173.514 38H167.418V46H173.514V38ZM171.369 42.6266L177.033 6.91458L169.131 5.66142L163.467 41.3734L171.369 42.6266ZM173.082 10.288H179.178V2.288H173.082V10.288ZM175.227 5.66262L172.203 24.7666L180.105 26.0174L183.129 6.91338L175.227 5.66262ZM179.9 26.7944L187.052 7.69043L179.56 4.88557L172.408 23.9896L179.9 26.7944ZM183.306 10.288H189.402V2.288H183.306V10.288ZM185.451 5.66142L179.787 41.3734L187.689 42.6266L193.353 6.91458L185.451 5.66142ZM183.738 38H177.642V46H183.738V38ZM187.048 42L183.097 41.3734L182.363 46H187.048V42ZM192.712 6.288V2.288H189.296L188.761 5.66142L192.712 6.288ZM206.248 7.824L203.284 10.5101L203.328 10.5586L203.373 10.6057L206.248 7.824ZM207.112 12.672L203.169 11.9961L203.165 12.0221L203.161 12.0481L207.112 12.672ZM206.392 17.232L202.441 16.6081L202.44 16.6104L206.392 17.232ZM202.6 22.416L201.477 18.5767L189.827 21.9821L201.219 26.1703L202.6 22.416ZM205.24 28.032L209.194 28.6378L209.197 28.6148L209.2 28.5917L205.24 28.032ZM204.328 33.984L208.272 34.6488L208.277 34.6193L208.282 34.5898L204.328 33.984ZM202.168 40.128L198.997 37.6892L198.977 37.715L198.958 37.7412L202.168 40.128ZM195.784 26.016V22.016H192.382L191.836 25.3733L195.784 26.016ZM194.104 36.336L190.156 35.6933L189.4 40.336H194.104V36.336ZM197.176 35.952L199.833 38.9416L197.176 35.952ZM197.848 34.128L201.793 34.7856L201.796 34.7696L201.799 34.7535L197.848 34.128ZM198.76 28.368L194.81 27.736L194.809 27.7425L198.76 28.368ZM198.04 11.76V7.76H194.623L194.089 11.135L198.04 11.76ZM196.696 20.256L192.745 19.631L192.013 24.256H196.696V20.256ZM199.384 19.872L196.726 16.8824L196.638 16.9605L196.555 17.0436L199.384 19.872ZM200.056 18.384L203.964 19.2337L203.987 19.1285L204.005 19.0222L200.056 18.384ZM200.824 13.632L204.773 14.2702L204.775 14.2552L204.777 14.2402L200.824 13.632ZM190.998 42.6266L196.662 6.91458L188.761 5.66142L183.097 41.3734L190.998 42.6266ZM192.712 10.288H201.592V2.288H192.712V10.288ZM201.592 10.288C202.386 10.288 202.872 10.3839 203.135 10.4706C203.374 10.5497 203.363 10.597 203.284 10.5101L209.212 5.13792C207.183 2.89901 204.259 2.288 201.592 2.288V10.288ZM203.373 10.6057C203.202 10.4286 203.215 10.3065 203.246 10.4818C203.284 10.6962 203.311 11.1697 203.169 11.9961L211.054 13.3479C211.514 10.6637 211.418 7.41471 209.122 5.04231L203.373 10.6057ZM203.161 12.0481L202.441 16.6081L210.343 17.8559L211.063 13.2959L203.161 12.0481ZM202.44 16.6104C202.283 17.6134 202.028 18.0993 201.879 18.3024C201.774 18.446 201.683 18.5166 201.477 18.5767L203.722 26.2553C207.793 25.0654 209.749 21.6332 210.343 17.8536L202.44 16.6104ZM201.219 26.1703C201.369 26.2251 201.391 26.259 201.356 26.2283C201.314 26.1915 201.282 26.1439 201.272 26.1217C201.265 26.108 201.424 26.4502 201.279 27.4723L209.2 28.5917C209.472 26.6698 209.398 24.604 208.512 22.7183C207.568 20.7117 205.925 19.3769 203.98 18.6617L201.219 26.1703ZM201.286 27.4262L200.374 33.3782L208.282 34.5898L209.194 28.6378L201.286 27.4262ZM200.383 33.3192C199.936 35.9765 199.349 37.2323 198.997 37.6892L205.338 42.5668C206.907 40.5277 207.76 37.6875 208.272 34.6488L200.383 33.3192ZM198.958 37.7412C198.894 37.8277 198.851 37.8553 198.792 37.882C198.709 37.9189 198.475 38 197.992 38V46C200.837 46 203.544 44.9805 205.378 42.5148L198.958 37.7412ZM197.992 38H187.048V46H197.992V38ZM197.224 22.016H195.784V30.016H197.224V22.016ZM191.836 25.3733L190.156 35.6933L198.052 36.9787L199.732 26.6587L191.836 25.3733ZM194.104 40.336H195.88V32.336H194.104V40.336ZM195.88 40.336C196.964 40.336 198.524 40.1053 199.833 38.9416L194.518 32.9624C194.881 32.6396 195.247 32.4796 195.499 32.4048C195.622 32.3683 195.719 32.3517 195.781 32.3439C195.842 32.3361 195.877 32.336 195.88 32.336V40.336ZM199.833 38.9416C200.697 38.1736 201.11 37.2388 201.313 36.6868C201.543 36.0622 201.69 35.403 201.793 34.7856L193.902 33.4704C193.845 33.813 193.8 33.9378 193.806 33.9212C193.812 33.9072 193.849 33.8056 193.939 33.6548C194.025 33.5089 194.204 33.2415 194.518 32.9624L199.833 38.9416ZM201.799 34.7535L202.711 28.9935L194.809 27.7425L193.897 33.5025L201.799 34.7535ZM202.71 29C202.877 27.9506 203.014 26.1926 202.071 24.5765L195.161 28.6075C194.887 28.139 194.842 27.757 194.833 27.6473C194.824 27.5329 194.84 27.546 194.81 27.736L202.71 29ZM202.071 24.5765C200.776 22.357 198.47 22.016 197.224 22.016V30.016C197.222 30.016 197.162 30.0162 197.058 29.999C196.954 29.9819 196.782 29.9437 196.57 29.8561C196.104 29.663 195.546 29.2679 195.161 28.6075L202.071 24.5765ZM199.432 7.76H198.04V15.76H199.432V7.76ZM194.089 11.135L192.745 19.631L200.647 20.881L201.991 12.385L194.089 11.135ZM196.696 24.256H198.232V16.256H196.696V24.256ZM198.232 24.256C199.36 24.256 200.941 23.9711 202.212 22.7004L196.555 17.0436C197.314 16.2849 198.127 16.256 198.232 16.256V24.256ZM202.041 22.8616C203.331 21.7154 203.769 20.131 203.964 19.2337L196.147 17.5343C196.106 17.7244 196.084 17.7456 196.122 17.6617C196.153 17.5938 196.315 17.2484 196.726 16.8824L202.041 22.8616ZM204.005 19.0222L204.773 14.2702L196.875 12.9938L196.107 17.7458L204.005 19.0222ZM204.777 14.2402C204.939 13.1908 205.001 11.4163 203.83 9.84119C202.55 8.12058 200.669 7.76 199.432 7.76V15.76C199.315 15.76 198.225 15.7114 197.41 14.6148C196.703 13.6637 196.901 12.8252 196.87 13.0238L204.777 14.2402ZM217.781 6.288L221.732 6.91458L222.466 2.288H217.781V6.288ZM212.117 42V46H215.533L216.068 42.6266L212.117 42ZM205.925 42L201.975 41.3734L201.241 46H205.925V42ZM211.589 6.288V2.288H208.174L207.639 5.66142L211.589 6.288ZM213.831 5.66142L208.167 41.3734L216.068 42.6266L221.732 6.91458L213.831 5.66142ZM212.117 38H205.925V46H212.117V38ZM209.876 42.6266L215.54 6.91458L207.639 5.66142L201.975 41.3734L209.876 42.6266ZM211.589 10.288H217.781V2.288H211.589V10.288ZM220.422 6.288V2.288H217.012L216.472 5.65486L220.422 6.288ZM235.494 6.288L239.444 6.92114L240.186 2.288H235.494V6.288ZM234.486 12.576V16.576H237.896L238.436 13.2091L234.486 12.576ZM230.118 12.576V8.576H226.701L226.167 11.9508L230.118 12.576ZM225.462 42V46H228.879L229.413 42.6252L225.462 42ZM219.27 42L215.319 41.3748L214.587 46H219.27V42ZM223.926 12.576L227.877 13.2012L228.609 8.576H223.926V12.576ZM219.414 12.576L215.464 11.9429L214.722 16.576H219.414V12.576ZM220.422 10.288H235.494V2.288H220.422V10.288ZM231.544 5.65486L230.536 11.9429L238.436 13.2091L239.444 6.92114L231.544 5.65486ZM234.486 8.576H230.118V16.576H234.486V8.576ZM226.167 11.9508L221.511 41.3748L229.413 42.6252L234.069 13.2012L226.167 11.9508ZM225.462 38H219.27V46H225.462V38ZM223.221 42.6252L227.877 13.2012L219.975 11.9508L215.319 41.3748L223.221 42.6252ZM223.926 8.576H219.414V16.576H223.926V8.576ZM223.364 13.2091L224.372 6.92114L216.472 5.65486L215.464 11.9429L223.364 13.2091Z" fill="#272727" mask="url(#path-1-outside-1_2299_2346)"/>
</svg>
